<?xml version="1.0" encoding="UTF-8" standalone="no"?>
<!DOCTYPE svg PUBLIC "-//W3C//DTD SVG 1.1//EN"
 "http://www.w3.org/Graphics/SVG/1.1/DTD/svg11.dtd">
<!-- Generated by graphviz version 2.40.1 (20161225.0304)
 -->
<!-- Title: LightningNetwork Pages: 1 -->
<svg width="2380pt" height="800pt"
 viewBox="0.00 0.00 2380.32 800.00" xmlns="http://www.w3.org/2000/svg" xmlns:xlink="http://www.w3.org/1999/xlink">
<g id="graph0" class="graph" transform="scale(1 1) rotate(0) translate(4 796)">
<title>LightningNetwork</title>
<polygon fill="#ffffff" stroke="transparent" points="-4,4 -4,-796 2376.3242,-796 2376.3242,4 -4,4"/>
<!-- 02e908e249 -->
<g id="node1" class="node">
<title>02e908e249</title>
<ellipse fill="none" stroke="#000000" cx="1160.331" cy="-450" rx="53.1625" ry="18"/>
<text text-anchor="middle" x="1160.331" y="-445.8" font-family="Times,serif" font-size="14.00" fill="#000000">02e908e249</text>
</g>
<!-- 03c0b01e01 -->
<g id="node2" class="node">
<title>03c0b01e01</title>
<ellipse fill="none" stroke="#000000" cx="233.331" cy="-126" rx="53.1625" ry="18"/>
<text text-anchor="middle" x="233.331" y="-121.8" font-family="Times,serif" font-size="14.00" fill="#000000">03c0b01e01</text>
</g>
<!-- 02e908e249&#45;&#45;03c0b01e01 -->
<g id="edge1" class="edge">
<title>02e908e249&#45;&#45;03c0b01e01</title>
<path fill="none" stroke="#000000" stroke-width="2.9734" d="M1119.8067,-438.089C1111.1255,-435.8258 1101.9668,-433.6522 1093.331,-432 1059.2728,-425.484 967.9766,-431.9878 938.331,-414 897.019,-388.9335 917.0662,-351.4977 877.331,-324 849.145,-304.4946 826.6267,-330.1859 802.3378,-306 773.1585,-276.9444 806.189,-248.0473 780.331,-216 771.7184,-205.326 682.6153,-165.4114 669.331,-162 514.1657,-122.1535 467.9352,-166.5543 309.331,-144 298.0545,-142.3964 285.9956,-139.9072 274.8818,-137.2862"/>
<text text-anchor="middle" x="838.3276" y="-283.8" font-family="Times,serif" font-size="14.00" fill="#000000">cid:1297207</text>
</g>
<!-- 02e908e249&#45;&#45;03c0b01e01 -->
<g id="edge2" class="edge">
<title>02e908e249&#45;&#45;03c0b01e01</title>
<path fill="none" stroke="#000000" stroke-width="3" d="M1119.7781,-438.2344C1111.0988,-435.9613 1101.9481,-433.747 1093.331,-432 1036.165,-420.4105 1012.3625,-445.5941 963.331,-414 947.4208,-403.7481 885.1691,-283.9075 872.331,-270 844.7146,-240.0832 762.8415,-175.2145 724.331,-162 637.0193,-132.0398 400.763,-156.6938 309.331,-144 298.0492,-142.4337 285.9885,-139.9573 274.8747,-137.3367"/>
<text text-anchor="middle" x="930.3276" y="-283.8" font-family="Times,serif" font-size="14.00" fill="#000000">cid:1297208</text>
</g>
<!-- 03b75d5e04 -->
<g id="node10" class="node">
<title>03b75d5e04</title>
<ellipse fill="none" stroke="#000000" cx="228.331" cy="-234" rx="53.6557" ry="18"/>
<text text-anchor="middle" x="228.331" y="-229.8" font-family="Times,serif" font-size="14.00" fill="#000000">03b75d5e04</text>
</g>
<!-- 02e908e249&#45;&#45;03b75d5e04 -->
<g id="edge61" class="edge">
<title>02e908e249&#45;&#45;03b75d5e04</title>
<path fill="none" stroke="#000000" stroke-width="3" d="M1111.718,-442.5121C1087.5871,-438.975 1057.9695,-434.9028 1031.331,-432 929.8401,-420.9407 901.0335,-440.0868 802.331,-414 756.7737,-401.9593 655.7681,-336.4866 610.331,-324 531.5267,-302.3437 506.8007,-325.0703 427.331,-306 384.6352,-295.7543 376.5953,-285.0052 335.331,-270 312.8591,-261.8284 287.5047,-253.2694 267.1189,-246.548"/>
<text text-anchor="middle" x="722.3276" y="-337.8" font-family="Times,serif" font-size="14.00" fill="#000000">cid:1298530</text>
</g>
<!-- 033a2aff9a -->
<g id="node18" class="node">
<title>033a2aff9a</title>
<ellipse fill="none" stroke="#000000" cx="818.331" cy="-342" rx="49.9518" ry="18"/>
<text text-anchor="middle" x="818.331" y="-337.8" font-family="Times,serif" font-size="14.00" fill="#000000">033a2aff9a</text>
</g>
<!-- 02e908e249&#45;&#45;033a2aff9a -->
<g id="edge45" class="edge">
<title>02e908e249&#45;&#45;033a2aff9a</title>
<path fill="none" stroke="#000000" stroke-width="3" d="M1120.5797,-437.9355C1111.6848,-435.6249 1102.2437,-433.4709 1093.331,-432 1062.7913,-426.9599 836.5059,-436.583 815.3378,-414 801.9906,-399.7606 806.0218,-376.1392 811.2078,-359.8576"/>
<text text-anchor="middle" x="851.3276" y="-391.8" font-family="Times,serif" font-size="14.00" fill="#000000">cid:1298191</text>
</g>
<!-- 03cde254c5 -->
<g id="node35" class="node">
<title>03cde254c5</title>
<ellipse fill="none" stroke="#000000" cx="174.331" cy="-18" rx="52.6693" ry="18"/>
<text text-anchor="middle" x="174.331" y="-13.8" font-family="Times,serif" font-size="14.00" fill="#000000">03cde254c5</text>
</g>
<!-- 03c0b01e01&#45;&#45;03cde254c5 -->
<g id="edge55" class="edge">
<title>03c0b01e01&#45;&#45;03cde254c5</title>
<path fill="none" stroke="#000000" stroke-width="2.9734" d="M214.405,-108.9301C208.9854,-103.3114 203.4411,-96.7605 199.3378,-90 189.0393,-73.0321 182.2239,-51.2292 178.3456,-36.0828"/>
<text text-anchor="middle" x="235.3276" y="-67.8" font-family="Times,serif" font-size="14.00" fill="#000000">cid:1298497</text>
</g>
<!-- 02e4847124 -->
<g id="node3" class="node">
<title>02e4847124</title>
<ellipse fill="none" stroke="#000000" cx="1519.331" cy="-666" rx="53.6557" ry="18"/>
<text text-anchor="middle" x="1519.331" y="-661.8" font-family="Times,serif" font-size="14.00" fill="#000000">02e4847124</text>
</g>
<!-- 02e4847124&#45;&#45;03c0b01e01 -->
<g id="edge3" class="edge">
<title>02e4847124&#45;&#45;03c0b01e01</title>
<path fill="none" stroke="#000000" stroke-width="2.9734" d="M1512.8929,-648.062C1501.2439,-612.0469 1481.5367,-530.5817 1523.331,-486 1554.9106,-452.3142 1699.1276,-502.0345 1730.331,-468 1741.1435,-456.2064 1741.3018,-443.6465 1730.331,-432 1684.386,-383.2253 1475.2829,-462.7747 1429.3378,-414 1418.367,-402.3535 1422.0443,-392.2409 1429.3378,-378 1435.5779,-365.816 1448.0909,-372.184 1454.331,-360 1461.6245,-345.7591 1465.2206,-335.7225 1454.331,-324 1417.3271,-284.1658 1258.2596,-331.669 1210.331,-306 1192.4625,-296.4302 1196.9267,-284.0652 1182.331,-270 1172.4721,-260.4995 1167.6334,-261.0176 1157.331,-252 1140.7707,-237.505 1139.2634,-231.1823 1123.331,-216 1114.4317,-207.5198 1110.9627,-206.7524 1102.331,-198 1087.7065,-183.1709 1090.9983,-171.2364 1072.331,-162 1037.1105,-144.5733 465.9976,-130.9631 286.7278,-127.1035"/>
<text text-anchor="middle" x="1464.3276" y="-391.8" font-family="Times,serif" font-size="14.00" fill="#000000">cid:1297230</text>
</g>
<!-- 02c663ccbd -->
<g id="node4" class="node">
<title>02c663ccbd</title>
<ellipse fill="none" stroke="#000000" cx="1429.331" cy="-558" rx="52.6693" ry="18"/>
<text text-anchor="middle" x="1429.331" y="-553.8" font-family="Times,serif" font-size="14.00" fill="#000000">02c663ccbd</text>
</g>
<!-- 02c663ccbd&#45;&#45;03c0b01e01 -->
<g id="edge4" class="edge">
<title>02c663ccbd&#45;&#45;03c0b01e01</title>
<path fill="none" stroke="#000000" stroke-width="2.9734" d="M1409.7891,-541.0935C1404.7547,-535.5726 1400.0056,-529.0347 1397.331,-522 1391.6449,-507.0445 1386.3447,-497.632 1397.331,-486 1445.4742,-435.0272 1664.1877,-518.9728 1712.331,-468 1723.3172,-456.368 1723.3398,-443.6106 1712.331,-432 1686.4543,-404.7086 1400.5092,-441.0022 1374.331,-414 1346.4814,-385.2738 1399.5676,-353.308 1372.331,-324 1343.7609,-293.257 1221.1096,-326.2167 1184.331,-306 1166.5679,-296.2359 1171.1777,-283.8 1156.331,-270 1145.7674,-260.1811 1140.5261,-261.0923 1129.331,-252 1102.7394,-230.4033 1097.9463,-222.8163 1074.331,-198 1059.5736,-182.4922 1061.7504,-171.0087 1042.331,-162 1005.379,-144.858 349.7294,-149.2222 309.331,-144 298.035,-142.5398 285.9694,-140.0999 274.8554,-137.4804"/>
<text text-anchor="middle" x="1415.3276" y="-337.8" font-family="Times,serif" font-size="14.00" fill="#000000">cid:1297248</text>
</g>
<!-- 02ac61d212 -->
<g id="node5" class="node">
<title>02ac61d212</title>
<ellipse fill="none" stroke="#000000" cx="442.331" cy="-720" rx="53.1625" ry="18"/>
<text text-anchor="middle" x="442.331" y="-715.8" font-family="Times,serif" font-size="14.00" fill="#000000">02ac61d212</text>
</g>
<!-- 02ac61d212&#45;&#45;03c0b01e01 -->
<g id="edge5" class="edge">
<title>02ac61d212&#45;&#45;03c0b01e01</title>
<path fill="none" stroke="#000000" stroke-width="1.444" d="M450.0911,-702.0692C455.6328,-686.188 460.2187,-663.2255 448.331,-648 428.0317,-622.0012 396.6303,-655.9988 376.331,-630 366.4844,-617.3887 371.9974,-609.402 376.331,-594 380.14,-580.4623 430.7696,-494.0071 442.331,-486 477.3001,-461.7814 509.2285,-500.7847 536.331,-468 546.5254,-455.6682 546.9809,-443.9407 536.331,-432 489.5813,-379.5843 426.0806,-466.4157 379.331,-414 368.6811,-402.0593 371.0781,-391.7073 379.331,-378 388.1503,-363.352 404.5117,-374.648 413.331,-360 421.5839,-346.2927 420.998,-338.0434 413.331,-324 406.2419,-311.0151 395.0895,-317.1191 385.331,-306 338.6447,-252.8043 368.2776,-211.1307 317.331,-162 305.6818,-150.766 289.9803,-142.769 275.3051,-137.213"/>
<text text-anchor="middle" x="579.3276" y="-445.8" font-family="Times,serif" font-size="14.00" fill="#000000">cid:1297249</text>
</g>
<!-- 02b4f0aa3f -->
<g id="node6" class="node">
<title>02b4f0aa3f</title>
<ellipse fill="none" stroke="#000000" cx="538.331" cy="-558" rx="50.2551" ry="18"/>
<text text-anchor="middle" x="538.331" y="-553.8" font-family="Times,serif" font-size="14.00" fill="#000000">02b4f0aa3f</text>
</g>
<!-- 02ac61d212&#45;&#45;02b4f0aa3f -->
<g id="edge9" class="edge">
<title>02ac61d212&#45;&#45;02b4f0aa3f</title>
<path fill="none" stroke="#000000" stroke-width="1.444" d="M465.4893,-703.5299C471.6064,-698.0212 477.5493,-691.3806 481.331,-684 499.7068,-648.1359 472.5116,-629.0869 492.331,-594 496.9196,-585.8766 504.1511,-578.9425 511.5332,-573.392"/>
<text text-anchor="middle" x="523.3276" y="-661.8" font-family="Times,serif" font-size="14.00" fill="#000000">cid:1297331</text>
</g>
<!-- 02ac61d212&#45;&#45;033a2aff9a -->
<g id="edge21" class="edge">
<title>02ac61d212&#45;&#45;033a2aff9a</title>
<path fill="none" stroke="#000000" stroke-width="1.444" d="M492.6631,-713.9827C515.9222,-709.0741 542.6766,-700.1653 562.331,-684 618.223,-638.0301 579.0354,-581.4773 638.3378,-540 686.855,-506.0662 719.0283,-551.5543 770.331,-522 787.8948,-511.8819 780.4791,-495.6007 798.331,-486 844.0683,-461.4026 996.052,-506.1095 1031.331,-468 1042.2003,-456.2587 1042.1924,-443.7486 1031.331,-432 996.6792,-394.5176 836.9828,-451.4824 802.331,-414 788.7708,-399.3321 797.6785,-375.8044 806.7067,-359.6615"/>
<text text-anchor="middle" x="674.3276" y="-553.8" font-family="Times,serif" font-size="14.00" fill="#000000">cid:1297499</text>
</g>
<!-- 02b4f0aa3f&#45;&#45;02e908e249 -->
<g id="edge48" class="edge">
<title>02b4f0aa3f&#45;&#45;02e908e249</title>
<path fill="none" stroke="#000000" stroke-width="3" d="M577.8688,-546.6225C585.9464,-544.3706 594.4007,-542.066 602.331,-540 635.5036,-531.3578 646.3087,-536.5853 677.331,-522 701.4657,-510.6529 700.2761,-495.1188 725.3378,-486 794.3522,-460.8889 982.3514,-476.2181 1055.331,-468 1074.7208,-465.8166 1095.9617,-462.3757 1114.235,-459.0847"/>
<text text-anchor="middle" x="761.3276" y="-499.8" font-family="Times,serif" font-size="14.00" fill="#000000">cid:1298327</text>
</g>
<!-- 02b4f0aa3f&#45;&#45;03c0b01e01 -->
<g id="edge56" class="edge">
<title>02b4f0aa3f&#45;&#45;03c0b01e01</title>
<path fill="none" stroke="#000000" stroke-width="3" d="M499.6142,-546.2517C479.9143,-539.41 458.9511,-530.4838 453.331,-522 444.4947,-508.6614 442.3916,-497.676 453.331,-486 495.3543,-441.1467 687.3076,-512.8533 729.331,-468 740.2704,-456.324 740.2439,-443.7008 729.331,-432 690.1314,-389.9702 510.5306,-456.0298 471.331,-414 460.4181,-402.2992 463.1636,-391.7584 471.331,-378 479.8591,-363.634 495.8029,-374.366 504.331,-360 512.4984,-346.2416 514.1131,-336.6614 504.331,-324 484.9544,-298.9202 458.609,-327.5077 435.331,-306 385.571,-260.0243 435.6079,-207.4099 385.331,-162 385.331,-162 322.1871,-147.0449 277.2957,-136.4127"/>
<text text-anchor="middle" x="546.3276" y="-337.8" font-family="Times,serif" font-size="14.00" fill="#000000">cid:1298529</text>
</g>
<!-- 03b19a969b -->
<g id="node7" class="node">
<title>03b19a969b</title>
<ellipse fill="none" stroke="#000000" cx="637.331" cy="-396" rx="53.6557" ry="18"/>
<text text-anchor="middle" x="637.331" y="-391.8" font-family="Times,serif" font-size="14.00" fill="#000000">03b19a969b</text>
</g>
<!-- 02b4f0aa3f&#45;&#45;03b19a969b -->
<g id="edge6" class="edge">
<title>02b4f0aa3f&#45;&#45;03b19a969b</title>
<path fill="none" stroke="#000000" stroke-width="2.9966" d="M537.6691,-539.8607C538.1374,-523.1403 541.7558,-499.007 557.3378,-486 596.5239,-453.2895 751.6803,-505.4813 786.331,-468 797.1924,-456.2514 796.4879,-444.3627 786.331,-432 760.1592,-400.1443 735.2967,-424.1241 695.331,-414 688.9943,-412.3948 682.325,-410.5113 675.8559,-408.5785"/>
<text text-anchor="middle" x="593.3276" y="-499.8" font-family="Times,serif" font-size="14.00" fill="#000000">cid:1297285</text>
</g>
<!-- 0384704df7 -->
<g id="node11" class="node">
<title>0384704df7</title>
<ellipse fill="none" stroke="#000000" cx="489.331" cy="-288" rx="52.6952" ry="18"/>
<text text-anchor="middle" x="489.331" y="-283.8" font-family="Times,serif" font-size="14.00" fill="#000000">0384704df7</text>
</g>
<!-- 02b4f0aa3f&#45;&#45;0384704df7 -->
<g id="edge11" class="edge">
<title>02b4f0aa3f&#45;&#45;0384704df7</title>
<path fill="none" stroke="#000000" stroke-width=".5142" d="M578.328,-546.8554C594.5494,-541.1045 612.8358,-532.9523 627.331,-522 643.5034,-509.7804 637.6902,-495.9834 655.331,-486 684.3571,-469.5734 782.207,-492.9575 804.331,-468 814.9446,-456.0271 814.1352,-444.6443 804.331,-432 784.647,-406.6141 755.1205,-438.4887 734.331,-414 708.3417,-383.3863 754.57,-352.5517 726.331,-324 698.0626,-295.4186 585.7069,-314.0957 546.331,-306 539.8254,-304.6625 533.0102,-302.8687 526.4466,-300.9304"/>
<text text-anchor="middle" x="847.3276" y="-445.8" font-family="Times,serif" font-size="14.00" fill="#000000">cid:1297366</text>
</g>
<!-- 02b4f0aa3f&#45;&#45;033a2aff9a -->
<g id="edge19" class="edge">
<title>02b4f0aa3f&#45;&#45;033a2aff9a</title>
<path fill="none" stroke="#000000" stroke-width="3" d="M577.7985,-546.7926C608.1544,-537.9632 645.9631,-526.43 652.331,-522 668.9704,-510.4244 662.4299,-495.5088 680.331,-486 733.2411,-457.8949 908.4058,-511.7552 949.331,-468 960.2605,-456.3147 960.1361,-443.8004 949.331,-432 918.5977,-398.4355 776.0643,-447.5645 745.331,-414 734.5259,-402.1996 736.8819,-391.5873 745.331,-378 752.7184,-366.12 765.3094,-358.0446 777.9745,-352.6078"/>
<text text-anchor="middle" x="992.3276" y="-445.8" font-family="Times,serif" font-size="14.00" fill="#000000">cid:1297489</text>
</g>
<!-- 03ec6530cb -->
<g id="node32" class="node">
<title>03ec6530cb</title>
<ellipse fill="none" stroke="#000000" cx="525.331" cy="-396" rx="52.6693" ry="18"/>
<text text-anchor="middle" x="525.331" y="-391.8" font-family="Times,serif" font-size="14.00" fill="#000000">03ec6530cb</text>
</g>
<!-- 02b4f0aa3f&#45;&#45;03ec6530cb -->
<g id="edge46" class="edge">
<title>02b4f0aa3f&#45;&#45;03ec6530cb</title>
<path fill="none" stroke="#000000" stroke-width="2.9966" d="M497.0506,-547.3513C484.346,-541.9266 471.7625,-533.8691 464.3378,-522 455.8525,-508.4353 453.3647,-497.6443 464.3378,-486 510.5967,-436.9114 721.0721,-517.0886 767.331,-468 778.3041,-456.3557 778.0829,-443.8489 767.331,-432 739.574,-401.4112 622.8011,-422.2642 582.331,-414 575.8237,-412.6712 569.0075,-410.8818 562.4436,-408.9451"/>
<text text-anchor="middle" x="500.3276" y="-499.8" font-family="Times,serif" font-size="14.00" fill="#000000">cid:1298234</text>
</g>
<!-- 0269355f90 -->
<g id="node8" class="node">
<title>0269355f90</title>
<ellipse fill="none" stroke="#000000" cx="1198.331" cy="-504" rx="52.6952" ry="18"/>
<text text-anchor="middle" x="1198.331" y="-499.8" font-family="Times,serif" font-size="14.00" fill="#000000">0269355f90</text>
</g>
<!-- 0269355f90&#45;&#45;03c0b01e01 -->
<g id="edge7" class="edge">
<title>0269355f90&#45;&#45;03c0b01e01</title>
<path fill="none" stroke="#000000" stroke-width="2.9734" d="M1235.0988,-490.9547C1241.7611,-489.0035 1248.6996,-487.2351 1255.331,-486 1383.3597,-462.1535 1631.9942,-527.3878 1543.331,-432 1524.6722,-411.9261 1323.5355,-422.0272 1297.331,-414 1251.2658,-399.8889 1240.7161,-390.3972 1203.3378,-360 1186.7277,-346.4921 1188.7525,-336.4438 1171.331,-324 1154.472,-311.958 1145.281,-317.9135 1128.331,-306 1110.5734,-293.5188 1113.474,-281.9139 1095.331,-270 1074.888,-256.5758 1064.2342,-264.6957 1043.331,-252 1023.4467,-239.9232 1025.7467,-227.1549 1005.331,-216 976.0066,-199.9775 960.3599,-216.194 932.331,-198 915.329,-186.9638 922.4029,-171.1799 904.331,-162 845.3614,-132.0456 374.9022,-152.666 309.331,-144 298.0392,-142.5077 285.9751,-140.0567 274.8611,-137.4368"/>
<text text-anchor="middle" x="1238.3276" y="-337.8" font-family="Times,serif" font-size="14.00" fill="#000000">cid:1297317</text>
</g>
<!-- 02252bef3c -->
<g id="node9" class="node">
<title>02252bef3c</title>
<ellipse fill="none" stroke="#000000" cx="164.331" cy="-720" rx="51.7088" ry="18"/>
<text text-anchor="middle" x="164.331" y="-715.8" font-family="Times,serif" font-size="14.00" fill="#000000">02252bef3c</text>
</g>
<!-- 02252bef3c&#45;&#45;03c0b01e01 -->
<g id="edge8" class="edge">
<title>02252bef3c&#45;&#45;03c0b01e01</title>
<path fill="none" stroke="#000000" stroke-width="3" d="M155.2544,-702.1269C152.8335,-696.4755 150.5526,-690.1082 149.331,-684 141.4863,-644.7768 143.9286,-633.6335 149.331,-594 152.6951,-569.3195 156.4738,-563.637 164.331,-540 167.0386,-531.8546 169.7483,-530.4365 171.331,-522 174.2811,-506.2743 177.2407,-500.8686 171.331,-486 167.2674,-475.7761 158.4014,-478.2239 154.3378,-468 148.4281,-453.1314 150.3266,-447.489 154.3378,-432 156.6318,-423.142 162.037,-422.858 164.331,-414 168.3422,-398.511 164.4199,-393.9998 164.331,-378 163.8865,-297.9963 162.7754,-278.0037 162.331,-198 162.2421,-182.0002 153.9576,-175.634 162.331,-162 169.1298,-150.9299 180.5084,-143.1357 192.1869,-137.7041"/>
<text text-anchor="middle" x="190.3276" y="-445.8" font-family="Times,serif" font-size="14.00" fill="#000000">cid:1297322</text>
</g>
<!-- 02252bef3c&#45;&#45;02b4f0aa3f -->
<g id="edge12" class="edge">
<title>02252bef3c&#45;&#45;02b4f0aa3f</title>
<path fill="none" stroke="#000000" stroke-width="3" d="M182.0948,-702.971C199.1242,-687.275 226.0552,-664.0495 252.3378,-648 303.6369,-616.6742 319.1756,-612.6053 376.331,-594 414.8225,-581.4702 459.86,-571.8502 492.6641,-565.7201"/>
<text text-anchor="middle" x="288.3276" y="-661.8" font-family="Times,serif" font-size="14.00" fill="#000000">cid:1297375</text>
</g>
<!-- 02252bef3c&#45;&#45;03b75d5e04 -->
<g id="edge57" class="edge">
<title>02252bef3c&#45;&#45;03b75d5e04</title>
<path fill="none" stroke="#000000" stroke-width="3" d="M159.8735,-701.7118C154.5938,-676.8836 147.6578,-631.3263 157.331,-594 157.3848,-593.7924 217.2298,-486.1853 217.3378,-486 222.0581,-477.9012 225.7933,-477.024 228.331,-468 247.8674,-398.5289 220.8267,-378.0811 217.331,-306 216.5559,-290.0188 214.9673,-285.8244 217.331,-270 218.2192,-264.0535 219.8897,-257.7317 221.6654,-252.0722"/>
<text text-anchor="middle" x="253.3276" y="-499.8" font-family="Times,serif" font-size="14.00" fill="#000000">cid:1298529</text>
</g>
<!-- 03b75d5e04&#45;&#45;03c0b01e01 -->
<g id="edge10" class="edge">
<title>03b75d5e04&#45;&#45;03c0b01e01</title>
<path fill="none" stroke="#000000" stroke-width="3" d="M194.2291,-220.0368C185.1658,-214.5722 176.4784,-207.3272 171.3378,-198 163.6149,-183.9873 163.3553,-175.8665 171.3378,-162 177.0504,-152.0767 186.6635,-144.6363 196.6359,-139.1759"/>
<text text-anchor="middle" x="207.3276" y="-175.8" font-family="Times,serif" font-size="14.00" fill="#000000">cid:1297364</text>
</g>
<!-- 03b75d5e04&#45;&#45;03c0b01e01 -->
<g id="edge59" class="edge">
<title>03b75d5e04&#45;&#45;03c0b01e01</title>
<path fill="none" stroke="#000000" stroke-width="3" d="M236.2032,-216.0206C238.3016,-210.3649 240.277,-204.0219 241.331,-198 244.5184,-179.7888 241.4075,-158.7516 238.1804,-144.1387"/>
<text text-anchor="middle" x="278.3276" y="-175.8" font-family="Times,serif" font-size="14.00" fill="#000000">cid:1298530</text>
</g>
<!-- 0284065d1a -->
<g id="node12" class="node">
<title>0284065d1a</title>
<ellipse fill="none" stroke="#000000" cx="697.331" cy="-774" rx="53.6557" ry="18"/>
<text text-anchor="middle" x="697.331" y="-769.8" font-family="Times,serif" font-size="14.00" fill="#000000">0284065d1a</text>
</g>
<!-- 0352d564b1 -->
<g id="node13" class="node">
<title>0352d564b1</title>
<ellipse fill="none" stroke="#000000" cx="1565.331" cy="-180" rx="54.1489" ry="18"/>
<text text-anchor="middle" x="1565.331" y="-175.8" font-family="Times,serif" font-size="14.00" fill="#000000">0352d564b1</text>
</g>
<!-- 0284065d1a&#45;&#45;0352d564b1 -->
<g id="edge13" class="edge">
<title>0284065d1a&#45;&#45;0352d564b1</title>
<path fill="none" stroke="#000000" stroke-width=".1252" d="M735.9686,-761.2673C743.942,-759.1204 752.3444,-757.201 760.331,-756 955.9497,-726.583 1454.4682,-765.7452 1650.331,-738 1742.3427,-724.9659 1764.9986,-715.7664 1852.331,-684 2065.7221,-606.3808 2193.3436,-659.5191 2315.331,-468 2457.3972,-244.9573 2035.411,-268.9943 1776.331,-216 1721.3557,-204.7549 1657.8239,-194.2506 1614.9563,-187.5254"/>
<text text-anchor="middle" x="2337.3276" y="-499.8" font-family="Times,serif" font-size="14.00" fill="#000000">cid:1297381</text>
</g>
<!-- 02d7873490 -->
<g id="node14" class="node">
<title>02d7873490</title>
<ellipse fill="none" stroke="#000000" cx="1656.331" cy="-288" rx="54.1489" ry="18"/>
<text text-anchor="middle" x="1656.331" y="-283.8" font-family="Times,serif" font-size="14.00" fill="#000000">02d7873490</text>
</g>
<!-- 0284065d1a&#45;&#45;02d7873490 -->
<g id="edge14" class="edge">
<title>0284065d1a&#45;&#45;02d7873490</title>
<path fill="none" stroke="#000000" stroke-width=".1252" d="M735.9698,-761.2748C743.943,-759.1273 752.3451,-757.2058 760.331,-756 852.6394,-742.0619 1510.5731,-763.6637 1600.331,-738 1645.5483,-725.0714 1659.4331,-718.5583 1691.331,-684 1757.7951,-611.9924 1708.2766,-542.5142 1788.331,-486 1817.0199,-465.7471 1921.9562,-494.2079 1945.331,-468 1955.9809,-456.0593 1954.7476,-444.9355 1945.331,-432 1884.0356,-347.7985 1809.9817,-416.2527 1722.331,-360 1700.0683,-345.7122 1680.43,-322.1014 1668.4845,-305.8355"/>
<text text-anchor="middle" x="1779.3276" y="-553.8" font-family="Times,serif" font-size="14.00" fill="#000000">cid:1297386</text>
</g>
<!-- 024dce9196 -->
<g id="node15" class="node">
<title>024dce9196</title>
<ellipse fill="none" stroke="#000000" cx="53.331" cy="-774" rx="53.1625" ry="18"/>
<text text-anchor="middle" x="53.331" y="-769.8" font-family="Times,serif" font-size="14.00" fill="#000000">024dce9196</text>
</g>
<!-- 024dce9196&#45;&#45;02e908e249 -->
<g id="edge60" class="edge">
<title>024dce9196&#45;&#45;02e908e249</title>
<path fill="none" stroke="#000000" stroke-width="3" d="M103.7949,-767.8747C138.712,-763.866 186.2798,-758.8587 228.331,-756 288.3369,-751.9206 711.6439,-755.0162 769.331,-738 799.1588,-729.2016 800.1814,-712.8357 829.331,-702 873.3008,-685.6552 903.1216,-719.8871 933.331,-684 943.6349,-671.7595 944.1647,-659.7741 933.331,-648 900.7181,-612.5563 749.9507,-665.4437 717.3378,-630 706.5041,-618.2259 710.921,-608.6569 717.3378,-594 736.2579,-550.7843 763.4099,-556.7363 795.331,-522 809.0463,-507.0751 805.4288,-495.5066 823.331,-486 876.4404,-457.7974 1034.0097,-477.8482 1093.331,-468 1102.2423,-466.5206 1111.6828,-464.3631 1120.5776,-462.0517"/>
<text text-anchor="middle" x="753.3276" y="-607.8" font-family="Times,serif" font-size="14.00" fill="#000000">cid:1298530</text>
</g>
<!-- 024dce9196&#45;&#45;03b75d5e04 -->
<g id="edge40" class="edge">
<title>024dce9196&#45;&#45;03b75d5e04</title>
<path fill="none" stroke="#000000" stroke-width="3" d="M55.5691,-755.8575C63.628,-692.8981 92.7932,-484.804 132.331,-432 142.1114,-418.938 153.9431,-426.5842 164.331,-414 207.2771,-361.9736 187.9365,-332.8969 212.331,-270 214.6558,-264.0059 217.4305,-257.56 220.0114,-251.8022"/>
<text text-anchor="middle" x="143.3276" y="-499.8" font-family="Times,serif" font-size="14.00" fill="#000000">cid:1297982</text>
</g>
<!-- 024dce9196&#45;&#45;02d7873490 -->
<g id="edge15" class="edge">
<title>024dce9196&#45;&#45;02d7873490</title>
<path fill="none" stroke="#000000" stroke-width=".1252" d="M103.4085,-767.8066C138.3566,-763.7402 186.1158,-758.6925 228.331,-756 549.1121,-735.5405 630.3864,-755.7119 951.331,-738 968.8961,-737.0306 1570.4338,-696.9588 1582.331,-684 1593.1516,-672.2138 1590.4984,-661.7584 1582.331,-648 1573.8029,-633.634 1559.015,-643.6136 1549.331,-630 1539.9844,-616.8607 1520.2015,-497.6677 1531.331,-486 1560.5829,-455.3335 1883.0791,-498.6665 1912.331,-468 1923.3745,-456.4224 1922.9722,-443.9484 1912.331,-432 1889.2689,-406.1048 1789.777,-426.2342 1757.331,-414 1717.8787,-399.124 1704.417,-393.8891 1679.331,-360 1667.4638,-343.9685 1661.5805,-321.5916 1658.7589,-306.0562"/>
<text text-anchor="middle" x="1570.3276" y="-553.8" font-family="Times,serif" font-size="14.00" fill="#000000">cid:1297396</text>
</g>
<!-- 02a07d7d15 -->
<g id="node34" class="node">
<title>02a07d7d15</title>
<ellipse fill="none" stroke="#000000" cx="385.331" cy="-666" rx="53.6557" ry="18"/>
<text text-anchor="middle" x="385.331" y="-661.8" font-family="Times,serif" font-size="14.00" fill="#000000">02a07d7d15</text>
</g>
<!-- 024dce9196&#45;&#45;02a07d7d15 -->
<g id="edge51" class="edge">
<title>024dce9196&#45;&#45;02a07d7d15</title>
<path fill="none" stroke="#000000" stroke-width=".1252" d="M102.255,-766.6645C137.0829,-760.7436 184.7157,-751.216 225.331,-738 250.5312,-729.8 315.3909,-699.4846 354.3561,-680.9052"/>
<text text-anchor="middle" x="342.3276" y="-715.8" font-family="Times,serif" font-size="14.00" fill="#000000">cid:1298453</text>
</g>
<!-- 024dce9196&#45;&#45;03cde254c5 -->
<g id="edge54" class="edge">
<title>024dce9196&#45;&#45;03cde254c5</title>
<path fill="none" stroke="#000000" stroke-width="2.3206" d="M53.4337,-755.9313C53.6126,-741.358 54.0875,-720.34 55.331,-702 65.129,-557.4937 66.0592,-520.7887 90.3378,-378 112.8758,-245.4483 154.7767,-88.7501 169.2549,-36.1979"/>
<text text-anchor="middle" x="126.3276" y="-391.8" font-family="Times,serif" font-size="14.00" fill="#000000">cid:1298497</text>
</g>
<!-- 026d2f2323 -->
<g id="node16" class="node">
<title>026d2f2323</title>
<ellipse fill="none" stroke="#000000" cx="1850.331" cy="-450" rx="52.6952" ry="18"/>
<text text-anchor="middle" x="1850.331" y="-445.8" font-family="Times,serif" font-size="14.00" fill="#000000">026d2f2323</text>
</g>
<!-- 026d2f2323&#45;&#45;03c0b01e01 -->
<g id="edge16" class="edge">
<title>026d2f2323&#45;&#45;03c0b01e01</title>
<path fill="none" stroke="#000000" stroke-width="2.9734" d="M1810.5784,-437.9434C1801.6836,-435.6323 1792.2429,-433.4762 1783.331,-432 1753.3404,-427.0324 1531.1073,-436.1913 1510.331,-414 1499.3958,-402.32 1504.4198,-392.868 1510.331,-378 1514.3964,-367.7746 1523.2656,-370.2254 1527.331,-360 1533.2422,-345.132 1538.2959,-335.652 1527.331,-324 1504.7508,-300.0049 1259.7424,-322.6976 1231.3378,-306 1214.9684,-296.3772 1220.0142,-284.9686 1208.331,-270 1197.9855,-256.7453 1117.8214,-168.5394 1102.331,-162 1021.1358,-127.723 396.748,-155.2176 309.331,-144 298.0337,-142.5503 285.9676,-140.114 274.8536,-137.4946"/>
<text text-anchor="middle" x="1266.3276" y="-283.8" font-family="Times,serif" font-size="14.00" fill="#000000">cid:1297432</text>
</g>
<!-- 026d2f2323&#45;&#45;03c0b01e01 -->
<g id="edge17" class="edge">
<title>026d2f2323&#45;&#45;03c0b01e01</title>
<path fill="none" stroke="#000000" stroke-width="2.9734" d="M1810.57,-437.9935C1801.6757,-435.6796 1792.2373,-433.5096 1783.331,-432 1756.4192,-427.4386 1556.9113,-433.9955 1538.331,-414 1511.0422,-384.6328 1571.519,-353.4605 1544.331,-324 1510.4641,-287.3024 1362.0366,-333.4753 1320.3378,-306 1305.2295,-296.0451 1314.5208,-282.385 1301.331,-270 1287.1193,-256.6555 1278.5629,-261.1166 1261.331,-252 1220.77,-230.541 1209.7394,-225.9304 1173.331,-198 1154.8724,-183.8397 1156.8478,-170.8467 1135.331,-162 1092.8793,-144.5459 354.8601,-149.8215 309.331,-144 298.033,-142.5554 285.9667,-140.1208 274.8527,-137.5015"/>
<text text-anchor="middle" x="1355.3276" y="-283.8" font-family="Times,serif" font-size="14.00" fill="#000000">cid:1297434</text>
</g>
<!-- 02f8bcf47c -->
<g id="node17" class="node">
<title>02f8bcf47c</title>
<ellipse fill="none" stroke="#000000" cx="1793.331" cy="-666" rx="50.2551" ry="18"/>
<text text-anchor="middle" x="1793.331" y="-661.8" font-family="Times,serif" font-size="14.00" fill="#000000">02f8bcf47c</text>
</g>
<!-- 02f8bcf47c&#45;&#45;0352d564b1 -->
<g id="edge18" class="edge">
<title>02f8bcf47c&#45;&#45;0352d564b1</title>
<path fill="none" stroke="#000000" stroke-width=".1252" d="M1781.1847,-648.239C1772.0552,-632.4722 1763.0461,-609.5822 1775.331,-594 1796.5545,-567.0802 1829.1075,-602.9198 1850.331,-576 1860.237,-563.4353 1859.5312,-553.0903 1850.331,-540 1836.7501,-520.6768 1813.9119,-541.3232 1800.331,-522 1791.1308,-508.9097 1789.2547,-497.5463 1800.331,-486 1833.6655,-451.251 2199.9965,-502.749 2233.331,-468 2244.4072,-456.4537 2244.0829,-443.8489 2233.331,-432 2205.574,-401.4112 2079.6878,-440.8864 2048.331,-414 2016.9892,-387.1265 2046.8469,-359.2358 2025.331,-324 2006.4613,-293.0978 1997.4949,-284.5315 1964.331,-270 1891.9061,-238.2654 1861.2595,-280.0538 1787.331,-252 1761.7293,-242.2849 1762.3877,-227.0449 1737.331,-216 1699.0855,-199.1416 1652.5152,-190.0168 1617.4834,-185.1764"/>
<text text-anchor="middle" x="2276.3276" y="-445.8" font-family="Times,serif" font-size="14.00" fill="#000000">cid:1297441</text>
</g>
<!-- 033a2aff9a&#45;&#45;03c0b01e01 -->
<g id="edge20" class="edge">
<title>033a2aff9a&#45;&#45;03c0b01e01</title>
<path fill="none" stroke="#000000" stroke-width="3" d="M800.3024,-324.8452C794.413,-319.014 787.9466,-312.3612 782.331,-306 768.9164,-290.8042 770.4789,-282.2519 754.331,-270 737.5011,-257.2307 727.2976,-264.5963 710.3378,-252 668.9891,-221.2897 683.204,-185.4202 637.331,-162 572.3156,-128.8068 381.5773,-154.4531 309.331,-144 298.1926,-142.3884 286.2878,-139.9297 275.2844,-137.3426"/>
<text text-anchor="middle" x="746.3276" y="-229.8" font-family="Times,serif" font-size="14.00" fill="#000000">cid:1297489</text>
</g>
<!-- 033a2aff9a&#45;&#45;03c0b01e01 -->
<g id="edge41" class="edge">
<title>033a2aff9a&#45;&#45;03c0b01e01</title>
<path fill="none" stroke="#000000" stroke-width="3" d="M779.5347,-330.5736C771.2481,-328.2777 762.5237,-325.9683 754.331,-324 714.6675,-314.4708 699.0309,-327.4457 664.331,-306 647.0885,-295.3435 654.0324,-279.8755 636.331,-270 571.5267,-233.846 533.7799,-290.4944 470.3378,-252 429.2364,-227.0611 450.5563,-188.3287 410.331,-162 372.1803,-137.0292 353.9774,-153.2578 309.331,-144 298.7094,-141.7975 287.3044,-139.2138 276.6429,-136.7021"/>
<text text-anchor="middle" x="506.3276" y="-229.8" font-family="Times,serif" font-size="14.00" fill="#000000">cid:1298186</text>
</g>
<!-- 033a2aff9a&#45;&#45;03b75d5e04 -->
<g id="edge47" class="edge">
<title>033a2aff9a&#45;&#45;03b75d5e04</title>
<path fill="none" stroke="#000000" stroke-width="3" d="M780.6925,-330.2081C772.0973,-327.8533 762.9537,-325.612 754.331,-324 713.0783,-316.288 602.1424,-327.8927 566.3378,-306 550.1379,-296.0945 559.4394,-280.0536 543.331,-270 532.343,-263.1422 367.1814,-246.9035 280.5314,-238.7887"/>
<text text-anchor="middle" x="602.3276" y="-283.8" font-family="Times,serif" font-size="14.00" fill="#000000">cid:1298243</text>
</g>
<!-- 03867586f8 -->
<g id="node30" class="node">
<title>03867586f8</title>
<ellipse fill="none" stroke="#000000" cx="602.331" cy="-234" rx="52.6952" ry="18"/>
<text text-anchor="middle" x="602.331" y="-229.8" font-family="Times,serif" font-size="14.00" fill="#000000">03867586f8</text>
</g>
<!-- 033a2aff9a&#45;&#45;03867586f8 -->
<g id="edge44" class="edge">
<title>033a2aff9a&#45;&#45;03867586f8</title>
<path fill="none" stroke="#000000" stroke-width="3" d="M779.1076,-330.8182C770.9291,-328.5289 762.3557,-326.16 754.331,-324 723.3147,-315.6513 710.35,-324.8436 684.3378,-306 668.9604,-294.8604 674.8966,-283.2864 661.331,-270 652.9299,-261.7718 642.3147,-254.5677 632.4117,-248.8094"/>
<text text-anchor="middle" x="720.3276" y="-283.8" font-family="Times,serif" font-size="14.00" fill="#000000">cid:1298191</text>
</g>
<!-- 0333fe9b08 -->
<g id="node19" class="node">
<title>0333fe9b08</title>
<ellipse fill="none" stroke="#000000" cx="951.331" cy="-504" rx="52.202" ry="18"/>
<text text-anchor="middle" x="951.331" y="-499.8" font-family="Times,serif" font-size="14.00" fill="#000000">0333fe9b08</text>
</g>
<!-- 0333fe9b08&#45;&#45;03c0b01e01 -->
<g id="edge22" class="edge">
<title>0333fe9b08&#45;&#45;03c0b01e01</title>
<path fill="none" stroke="#000000" stroke-width=".1252" d="M987.418,-490.8226C993.9672,-488.8855 1000.7946,-487.1561 1007.331,-486 1032.5152,-481.5458 1449.6037,-486.4345 1467.331,-468 1478.4213,-456.4672 1478.3815,-443.5709 1467.331,-432 1437.294,-400.5484 1111.8038,-439.1614 1076.331,-414 1020.0544,-374.0821 1066.3619,-319.5331 1018.331,-270 1004.4772,-255.7129 994.5158,-262.0365 977.331,-252 954.3039,-238.5514 952.8028,-228.6564 929.331,-216 908.5423,-204.7903 898.5656,-211.7061 879.331,-198 862.5988,-186.077 868.7138,-171.1758 850.331,-162 796.518,-135.1392 368.9449,-151.9702 309.331,-144 298.0415,-142.4906 285.9781,-140.0338 274.8642,-137.4138"/>
<text text-anchor="middle" x="1079.3276" y="-337.8" font-family="Times,serif" font-size="14.00" fill="#000000">cid:1297513</text>
</g>
<!-- 0341f1ed97 -->
<g id="node20" class="node">
<title>0341f1ed97</title>
<ellipse fill="none" stroke="#000000" cx="1594.331" cy="-396" rx="52.202" ry="18"/>
<text text-anchor="middle" x="1594.331" y="-391.8" font-family="Times,serif" font-size="14.00" fill="#000000">0341f1ed97</text>
</g>
<!-- 0341f1ed97&#45;&#45;03c0b01e01 -->
<g id="edge23" class="edge">
<title>0341f1ed97&#45;&#45;03c0b01e01</title>
<path fill="none" stroke="#000000" stroke-width="2.9734" d="M1603.5657,-377.9647C1610.4024,-361.7887 1616.4741,-338.44 1603.331,-324 1574.6354,-292.4728 1447.5111,-330.0882 1412.3378,-306 1397.5775,-295.8915 1407.8469,-281.7205 1394.331,-270 1375.2181,-253.426 1363.8743,-261.2582 1340.331,-252 1304.4228,-237.8794 1297.114,-230.435 1261.331,-216 1239.0394,-207.0075 1230.7538,-210.6763 1210.331,-198 1190.837,-185.9002 1194.4969,-170.8558 1173.331,-162 1129.041,-143.4691 356.9566,-150.0664 309.331,-144 298.0323,-142.5608 285.9658,-140.1281 274.8518,-137.5088"/>
<text text-anchor="middle" x="1447.3276" y="-283.8" font-family="Times,serif" font-size="14.00" fill="#000000">cid:1297532</text>
</g>
<!-- 02a6dd5bd4 -->
<g id="node21" class="node">
<title>02a6dd5bd4</title>
<ellipse fill="none" stroke="#000000" cx="1785.331" cy="-342" rx="53.6557" ry="18"/>
<text text-anchor="middle" x="1785.331" y="-337.8" font-family="Times,serif" font-size="14.00" fill="#000000">02a6dd5bd4</text>
</g>
<!-- 02a6dd5bd4&#45;&#45;03c0b01e01 -->
<g id="edge24" class="edge">
<title>02a6dd5bd4&#45;&#45;03c0b01e01</title>
<path fill="none" stroke="#000000" stroke-width="2.9734" d="M1774.4415,-324.0756C1763.0129,-307.0173 1743.3764,-282.1967 1719.331,-270 1654.3327,-237.0306 1623.6822,-279.8656 1556.3378,-252 1532.6691,-242.2064 1534.8623,-226.1193 1511.331,-216 1457.7466,-192.9569 1438.2156,-210.9 1381.331,-198 1329.9269,-186.3429 1320.3366,-170.5844 1268.331,-162 1058.0282,-127.2858 520.7989,-170.7143 309.331,-144 298.0309,-142.5725 285.9638,-140.1438 274.8498,-137.5246"/>
<text text-anchor="middle" x="1591.3276" y="-229.8" font-family="Times,serif" font-size="14.00" fill="#000000">cid:1297546</text>
</g>
<!-- 020c754f6c -->
<g id="node22" class="node">
<title>020c754f6c</title>
<ellipse fill="none" stroke="#000000" cx="890.331" cy="-720" rx="51.7088" ry="18"/>
<text text-anchor="middle" x="890.331" y="-715.8" font-family="Times,serif" font-size="14.00" fill="#000000">020c754f6c</text>
</g>
<!-- 020c754f6c&#45;&#45;03c0b01e01 -->
<g id="edge28" class="edge">
<title>020c754f6c&#45;&#45;03c0b01e01</title>
<path fill="none" stroke="#000000" stroke-width="3" d="M927.6121,-707.202C945.1881,-700.3386 963.3875,-691.7262 968.331,-684 976.9542,-670.5226 978.5374,-660.3219 968.331,-648 940.9181,-614.9054 900.7438,-663.0946 873.331,-630 863.1246,-617.6781 867.4198,-608.868 873.331,-594 877.3964,-583.7746 885.8165,-586.0352 890.331,-576 906.8063,-539.3775 869.3126,-513.7592 898.331,-486 930.9608,-454.7861 1273.1164,-500.6292 1304.331,-468 1315.3913,-456.4385 1315.247,-443.6979 1304.331,-432 1264.8177,-389.6565 1091.1796,-448.0511 1044.331,-414 988.5195,-373.4343 1036.9609,-316.8733 986.331,-270 966.8363,-251.9518 952.3945,-265.1853 929.331,-252 908.5671,-240.1294 909.3028,-229.1596 889.331,-216 873.3899,-205.4963 866.272,-208.5037 850.331,-198 830.3591,-184.8404 832.3831,-171.2602 810.331,-162 762.8462,-142.06 420.5994,-130.9527 286.7701,-127.3325"/>
<text text-anchor="middle" x="1347.3276" y="-445.8" font-family="Times,serif" font-size="14.00" fill="#000000">cid:1297679</text>
</g>
<!-- 020c754f6c&#45;&#45;02b4f0aa3f -->
<g id="edge25" class="edge">
<title>020c754f6c&#45;&#45;02b4f0aa3f</title>
<path fill="none" stroke="#000000" stroke-width="3" d="M876.6497,-702.5923C862.3055,-685.6779 838.1512,-660.7372 811.331,-648 762.2185,-624.6759 742.3515,-645.8087 690.331,-630 665.8851,-622.571 603.8317,-591.6532 567.0108,-572.8318"/>
<text text-anchor="middle" x="894.3276" y="-661.8" font-family="Times,serif" font-size="14.00" fill="#000000">cid:1297598</text>
</g>
<!-- 020c754f6c&#45;&#45;033a2aff9a -->
<g id="edge27" class="edge">
<title>020c754f6c&#45;&#45;033a2aff9a</title>
<path fill="none" stroke="#000000" stroke-width="3" d="M926.1321,-706.8799C936.0593,-701.3979 945.6603,-693.9313 951.331,-684 959.2647,-670.1055 961.7083,-660.1783 951.331,-648 918.6316,-609.6258 878.0223,-662.3235 839.331,-630 789.09,-588.0277 811.0308,-513.7365 870.331,-486 905.8047,-469.4079 1195.3555,-496.3902 1222.331,-468 1233.352,-456.401 1233.2501,-443.695 1222.331,-432 1202.4175,-410.6714 988.4619,-421.7531 960.331,-414 948.473,-410.7319 884.4538,-377.1994 846.5429,-357.0689"/>
<text text-anchor="middle" x="853.3276" y="-553.8" font-family="Times,serif" font-size="14.00" fill="#000000">cid:1297678</text>
</g>
<!-- 025614041d -->
<g id="node23" class="node">
<title>025614041d</title>
<ellipse fill="none" stroke="#000000" cx="1649.331" cy="-450" rx="54.1489" ry="18"/>
<text text-anchor="middle" x="1649.331" y="-445.8" font-family="Times,serif" font-size="14.00" fill="#000000">025614041d</text>
</g>
<!-- 020c754f6c&#45;&#45;025614041d -->
<g id="edge29" class="edge">
<title>020c754f6c&#45;&#45;025614041d</title>
<path fill="none" stroke="#000000" stroke-width="3" d="M941.9543,-717.6997C1056.7352,-712.3354 1324.0824,-698.3584 1337.331,-684 1348.1811,-672.2409 1338.2128,-663.9757 1337.331,-648 1336.8874,-639.9633 1335.9674,-638.0242 1335.3378,-630 1331.579,-582.0957 1331.4439,-570.0387 1330.331,-522 1329.9604,-506.0043 1319.4294,-497.7114 1330.331,-486 1349.3818,-465.534 1553.7511,-472.5976 1581.331,-468 1590.245,-466.514 1599.6875,-464.3831 1608.6081,-462.1043"/>
<text text-anchor="middle" x="1370.3276" y="-607.8" font-family="Times,serif" font-size="14.00" fill="#000000">cid:1297679</text>
</g>
<!-- 0211056c47 -->
<g id="node26" class="node">
<title>0211056c47</title>
<ellipse fill="none" stroke="#000000" cx="1118.331" cy="-612" rx="53.5074" ry="18"/>
<text text-anchor="middle" x="1118.331" y="-607.8" font-family="Times,serif" font-size="14.00" fill="#000000">0211056c47</text>
</g>
<!-- 020c754f6c&#45;&#45;0211056c47 -->
<g id="edge34" class="edge">
<title>020c754f6c&#45;&#45;0211056c47</title>
<path fill="none" stroke="#000000" stroke-width="1.4174" d="M941.5429,-717.1755C1019.6338,-712.339 1161.0827,-701.288 1176.331,-684 1186.9147,-672.0006 1184.109,-661.9822 1176.331,-648 1171.0882,-638.5753 1162.244,-631.3021 1153.0211,-625.8417"/>
<text text-anchor="middle" x="1217.3276" y="-661.8" font-family="Times,serif" font-size="14.00" fill="#000000">cid:1297740</text>
</g>
<!-- 020c754f6c&#45;&#45;0211056c47 -->
<g id="edge36" class="edge">
<title>020c754f6c&#45;&#45;0211056c47</title>
<path fill="none" stroke="#000000" stroke-width="1.4174" d="M942.1594,-718.6794C1038.1225,-715.6957 1235.6409,-706.825 1256.331,-684 1267.0767,-672.1455 1266.1131,-660.6614 1256.331,-648 1245.4317,-633.8926 1203.13,-624.2654 1168.2023,-618.5419"/>
<text text-anchor="middle" x="1298.3276" y="-661.8" font-family="Times,serif" font-size="14.00" fill="#000000">cid:1297745</text>
</g>
<!-- 0272271b09 -->
<g id="node27" class="node">
<title>0272271b09</title>
<ellipse fill="none" stroke="#000000" cx="936.331" cy="-612" rx="54.1489" ry="18"/>
<text text-anchor="middle" x="936.331" y="-607.8" font-family="Times,serif" font-size="14.00" fill="#000000">0272271b09</text>
</g>
<!-- 020c754f6c&#45;&#45;0272271b09 -->
<g id="edge38" class="edge">
<title>020c754f6c&#45;&#45;0272271b09</title>
<path fill="none" stroke="#000000" stroke-width="3" d="M942.3585,-718.2416C996.5409,-715.1859 1076.1607,-706.8301 1095.331,-684 1105.6199,-671.7469 1105.3177,-660.5006 1095.331,-648 1088.353,-639.2655 1029.4221,-627.5995 985.3258,-619.9477"/>
<text text-anchor="middle" x="1137.3276" y="-661.8" font-family="Times,serif" font-size="14.00" fill="#000000">cid:1297755</text>
</g>
<!-- 03335bde14 -->
<g id="node24" class="node">
<title>03335bde14</title>
<ellipse fill="none" stroke="#000000" cx="987.331" cy="-180" rx="53.6557" ry="18"/>
<text text-anchor="middle" x="987.331" y="-175.8" font-family="Times,serif" font-size="14.00" fill="#000000">03335bde14</text>
</g>
<!-- 025614041d&#45;&#45;03335bde14 -->
<g id="edge26" class="edge">
<title>025614041d&#45;&#45;03335bde14</title>
<path fill="none" stroke="#000000" stroke-width="1.4709" d="M1608.6099,-437.8845C1599.6892,-435.6063 1590.2462,-433.4785 1581.331,-432 1524.8514,-422.6332 1372.2279,-445.3619 1324.331,-414 1286.5781,-389.2802 1314.0787,-350.1907 1277.331,-324 1233.4138,-292.6995 1204.1115,-332.8334 1157.331,-306 1139.5091,-295.7773 1144.4002,-282.8024 1128.331,-270 1114.0282,-258.6049 1106.939,-261.5294 1091.331,-252 1068.5711,-238.104 1065.2276,-231.22 1043.331,-216 1033.5558,-209.2054 1022.5813,-202.0507 1012.955,-195.9255"/>
<text text-anchor="middle" x="1333.3276" y="-337.8" font-family="Times,serif" font-size="14.00" fill="#000000">cid:1297663</text>
</g>
<!-- 027462c767 -->
<g id="node25" class="node">
<title>027462c767</title>
<ellipse fill="none" stroke="#000000" cx="291.331" cy="-774" rx="53.6557" ry="18"/>
<text text-anchor="middle" x="291.331" y="-769.8" font-family="Times,serif" font-size="14.00" fill="#000000">027462c767</text>
</g>
<!-- 027462c767&#45;&#45;03c0b01e01 -->
<g id="edge30" class="edge">
<title>027462c767&#45;&#45;03c0b01e01</title>
<path fill="none" stroke="#000000" stroke-width="3" d="M341.724,-767.4236C374.5804,-763.4108 418.4266,-758.5728 457.331,-756 584.1947,-747.6103 1515.2242,-779.3459 1599.331,-684 1600.9849,-682.1251 1599.7431,-596.43 1600.331,-594 1602.4343,-585.3065 1605.3667,-584.0178 1609.331,-576 1629.0649,-536.0877 1616.3459,-510.7895 1653.331,-486 1704.5713,-451.6559 1888.1507,-513.0102 1930.331,-468 1941.2717,-456.3252 1937.998,-446.0434 1930.331,-432 1923.2419,-419.0151 1912.629,-424.6214 1902.331,-414 1869.86,-380.5092 1881.7018,-356.5943 1848.331,-324 1813.5873,-290.0649 1798.9803,-286.5788 1753.331,-270 1711.2959,-254.7339 1692.578,-275.1768 1654.331,-252 1636.9957,-241.4952 1644.1557,-225.6512 1626.331,-216 1583.7801,-192.9608 1455.8873,-211.1867 1409.331,-198 1375.29,-188.3582 1372.6032,-170.7846 1338.331,-162 1312.5911,-155.4024 504.1566,-133.271 286.7257,-127.4258"/>
<text text-anchor="middle" x="1972.3276" y="-445.8" font-family="Times,serif" font-size="14.00" fill="#000000">cid:1297681</text>
</g>
<!-- 027462c767&#45;&#45;02b4f0aa3f -->
<g id="edge31" class="edge">
<title>027462c767&#45;&#45;02b4f0aa3f</title>
<path fill="none" stroke="#000000" stroke-width="3" d="M342.9113,-768.7237C396.6094,-762.6256 476.6711,-751.6547 504.331,-738 535.9129,-722.4092 548.274,-716.2939 562.331,-684 570.6853,-664.8072 553.8258,-605.8512 544.2798,-575.885"/>
<text text-anchor="middle" x="600.3276" y="-661.8" font-family="Times,serif" font-size="14.00" fill="#000000">cid:1297684</text>
</g>
<!-- 0211056c47&#45;&#45;03c0b01e01 -->
<g id="edge32" class="edge">
<title>0211056c47&#45;&#45;03c0b01e01</title>
<path fill="none" stroke="#000000" stroke-width="3" d="M1119.4157,-593.9517C1121.7119,-562.5381 1128.2395,-499.8316 1144.331,-486 1173.104,-461.2678 1459.2189,-495.5268 1485.331,-468 1496.3425,-456.3919 1496.3361,-443.6141 1485.331,-432 1459.7688,-405.0231 1181.2232,-436.0917 1151.3378,-414 1117.0771,-388.674 1144.1922,-357.8585 1118.331,-324 1115.1871,-319.8838 1046.786,-272.6419 1042.331,-270 1026.6016,-260.6723 1020.3662,-262.4097 1005.331,-252 986.2036,-238.757 987.4895,-227.6133 967.331,-216 942.8379,-201.8896 929.687,-213.922 906.331,-198 889.5827,-186.5825 896.3966,-171.1923 878.331,-162 821.9556,-133.3144 372.0338,-152.331 309.331,-144 298.0403,-142.4999 285.9765,-140.0462 274.8625,-137.4263"/>
<text text-anchor="middle" x="1186.3276" y="-391.8" font-family="Times,serif" font-size="14.00" fill="#000000">cid:1297730</text>
</g>
<!-- 0211056c47&#45;&#45;025614041d -->
<g id="edge35" class="edge">
<title>0211056c47&#45;&#45;025614041d</title>
<path fill="none" stroke="#000000" stroke-width="3" d="M1156.8979,-599.3903C1171.8246,-593.5331 1188.5882,-585.6947 1202.331,-576 1229.0581,-557.1457 1231.1599,-546.9321 1252.331,-522 1265.451,-506.5492 1262.3964,-495.4453 1280.331,-486 1339.6197,-454.7755 1515.1705,-478.6261 1581.331,-468 1590.3742,-466.5476 1599.9552,-464.4012 1608.9826,-462.0922"/>
<text text-anchor="middle" x="1272.3276" y="-553.8" font-family="Times,serif" font-size="14.00" fill="#000000">cid:1297745</text>
</g>
<!-- 0272271b09&#45;&#45;0333fe9b08 -->
<g id="edge37" class="edge">
<title>0272271b09&#45;&#45;0333fe9b08</title>
<path fill="none" stroke="#000000" stroke-width=".1252" d="M938.8755,-593.6793C941.6506,-573.699 946.0639,-541.9231 948.824,-522.0502"/>
<text text-anchor="middle" x="981.3276" y="-553.8" font-family="Times,serif" font-size="14.00" fill="#000000">cid:1297748</text>
</g>
<!-- 036c49153b -->
<g id="node28" class="node">
<title>036c49153b</title>
<ellipse fill="none" stroke="#000000" cx="332.331" cy="-72" rx="53.6557" ry="18"/>
<text text-anchor="middle" x="332.331" y="-67.8" font-family="Times,serif" font-size="14.00" fill="#000000">036c49153b</text>
</g>
<!-- 0272271b09&#45;&#45;036c49153b -->
<g id="edge33" class="edge">
<title>0272271b09&#45;&#45;036c49153b</title>
<path fill="none" stroke="#000000" stroke-width="2.9966" d="M984.2323,-603.4403C1005.877,-599.9121 1031.8183,-596.1527 1055.331,-594 1085.9967,-591.1924 1583.4768,-592.7282 1609.331,-576 1646.713,-551.8131 1616.0556,-510.3508 1653.331,-486 1693.9228,-459.4827 2055.761,-502.9845 2089.331,-468 2100.4089,-456.4553 2099.9632,-443.9564 2089.331,-432 2066.5817,-406.4174 1965.159,-432.4647 1936.331,-414 1896.8563,-388.7159 1909.6169,-361.3823 1881.331,-324 1861.595,-297.9171 1859.992,-285.7599 1831.331,-270 1792.5264,-248.6625 1775.5764,-265.282 1733.331,-252 1696.5225,-240.4274 1691.4897,-226.3931 1654.331,-216 1588.8177,-197.6762 1568.3501,-214.4083 1502.331,-198 1459.3175,-187.3095 1452.5224,-171.947 1409.331,-162 1210.9445,-116.3117 575.0379,-83.4125 385.8893,-74.4488"/>
<text text-anchor="middle" x="1934.3276" y="-337.8" font-family="Times,serif" font-size="14.00" fill="#000000">cid:1297734</text>
</g>
<!-- 0396a1e7d6 -->
<g id="node29" class="node">
<title>0396a1e7d6</title>
<ellipse fill="none" stroke="#000000" cx="1062.331" cy="-504" rx="53.1625" ry="18"/>
<text text-anchor="middle" x="1062.331" y="-499.8" font-family="Times,serif" font-size="14.00" fill="#000000">0396a1e7d6</text>
</g>
<!-- 0272271b09&#45;&#45;0396a1e7d6 -->
<g id="edge39" class="edge">
<title>0272271b09&#45;&#45;0396a1e7d6</title>
<path fill="none" stroke="#000000" stroke-width="0" d="M977.7873,-600.2262C992.4065,-594.6095 1008.2048,-586.7174 1020.331,-576 1037.0295,-561.2414 1048.8365,-538.1841 1055.5942,-522.1532"/>
<text text-anchor="middle" x="1081.3276" y="-553.8" font-family="Times,serif" font-size="14.00" fill="#000000">cid:1297981</text>
</g>
<!-- 03867586f8&#45;&#45;03c0b01e01 -->
<g id="edge42" class="edge">
<title>03867586f8&#45;&#45;03c0b01e01</title>
<path fill="none" stroke="#000000" stroke-width="2.9734" d="M584.8474,-216.7871C579.1254,-210.9521 572.8312,-204.3117 567.3378,-198 554.0292,-182.7088 557.1803,-171.6095 539.331,-162 494.1898,-137.6974 359.9812,-151.9313 309.331,-144 298.2121,-142.2589 286.3142,-139.7547 275.3112,-137.1652"/>
<text text-anchor="middle" x="603.3276" y="-175.8" font-family="Times,serif" font-size="14.00" fill="#000000">cid:1298186</text>
</g>
<!-- 03867586f8&#45;&#45;03c0b01e01 -->
<g id="edge58" class="edge">
<title>03867586f8&#45;&#45;03c0b01e01</title>
<path fill="none" stroke="#000000" stroke-width="2.9734" d="M559.2461,-223.4039C520.6068,-213.7883 469.3679,-200.7105 465.3378,-198 448.7406,-186.8373 455.5592,-172.1617 438.331,-162 388.4694,-132.5902 366.2256,-154.6825 309.331,-144 298.5364,-141.9732 286.9642,-139.427 276.1872,-136.8929"/>
<text text-anchor="middle" x="501.3276" y="-175.8" font-family="Times,serif" font-size="14.00" fill="#000000">cid:1298529</text>
</g>
<!-- 035ee0915e -->
<g id="node31" class="node">
<title>035ee0915e</title>
<ellipse fill="none" stroke="#000000" cx="1544.331" cy="-288" rx="52.6693" ry="18"/>
<text text-anchor="middle" x="1544.331" y="-283.8" font-family="Times,serif" font-size="14.00" fill="#000000">035ee0915e</text>
</g>
<!-- 035ee0915e&#45;&#45;03c0b01e01 -->
<g id="edge43" class="edge">
<title>035ee0915e&#45;&#45;03c0b01e01</title>
<path fill="none" stroke="#000000" stroke-width="2.9734" d="M1507.0678,-275.2245C1487.4652,-268.4409 1463.0562,-259.8948 1441.3378,-252 1377.4867,-228.7896 1361.5565,-222.8643 1298.331,-198 1259.0054,-182.5347 1251.7108,-170.5669 1210.331,-162 1014.2274,-121.4005 507.9989,-169.2192 309.331,-144 298.0317,-142.5657 285.965,-140.1346 274.851,-137.5154"/>
<text text-anchor="middle" x="1476.3276" y="-229.8" font-family="Times,serif" font-size="14.00" fill="#000000">cid:1298186</text>
</g>
<!-- 0299a8ba36 -->
<g id="node33" class="node">
<title>0299a8ba36</title>
<ellipse fill="none" stroke="#000000" cx="707.331" cy="-720" rx="53.1625" ry="18"/>
<text text-anchor="middle" x="707.331" y="-715.8" font-family="Times,serif" font-size="14.00" fill="#000000">0299a8ba36</text>
</g>
<!-- 0299a8ba36&#45;&#45;03c0b01e01 -->
<g id="edge49" class="edge">
<title>0299a8ba36&#45;&#45;03c0b01e01</title>
<path fill="none" stroke="#000000" stroke-width="2.9734" d="M746.439,-707.6279C775.0736,-698.3835 809.2876,-686.8696 811.331,-684 820.6116,-670.9666 821.6349,-660.2405 811.331,-648 781.1216,-612.1129 737.5404,-665.8871 707.331,-630 697.0271,-617.7595 699.7024,-608.0643 707.331,-594 717.8225,-574.6577 852.4035,-492.7999 873.331,-486 910.2598,-474.0009 1195.591,-496.1547 1222.331,-468 1233.3495,-456.3986 1233.1944,-443.7468 1222.331,-432 1187.5224,-394.3608 1030.4734,-448.2564 992.331,-414 943.8859,-370.4905 1009.2849,-318.0422 965.331,-270 945.3855,-248.1994 928.1111,-264.4865 901.331,-252 899.3199,-251.0623 771.4282,-162.7248 769.331,-162 724.5399,-146.5206 413.005,-132.9282 286.5203,-127.9839"/>
<text text-anchor="middle" x="1265.3276" y="-445.8" font-family="Times,serif" font-size="14.00" fill="#000000">cid:1298347</text>
</g>
<!-- 0299a8ba36&#45;&#45;02b4f0aa3f -->
<g id="edge50" class="edge">
<title>0299a8ba36&#45;&#45;02b4f0aa3f</title>
<path fill="none" stroke="#000000" stroke-width="3" d="M721.8048,-702.4559C733.0336,-686.6187 744.6389,-663.4919 731.331,-648 696.7621,-607.7581 660.9103,-653.4656 613.331,-630 587.592,-617.3058 564.8939,-592.6057 551.3883,-575.7101"/>
<text text-anchor="middle" x="772.3276" y="-661.8" font-family="Times,serif" font-size="14.00" fill="#000000">cid:1298349</text>
</g>
<!-- 02a07d7d15&#45;&#45;03c0b01e01 -->
<g id="edge53" class="edge">
<title>02a07d7d15&#45;&#45;03c0b01e01</title>
<path fill="none" stroke="#000000" stroke-width="2.1374" d="M379.1809,-647.9514C375.0784,-633.2073 371.2813,-611.9471 376.331,-594 380.14,-580.4623 430.3211,-493.3172 442.331,-486 489.708,-457.1348 653.543,-508.6183 691.331,-468 702.2292,-456.2855 702.3018,-443.6465 691.331,-432 645.386,-383.2253 436.2829,-462.7747 390.3378,-414 379.367,-402.3535 380.4132,-390.55 390.3378,-378 411.8676,-350.7749 444.8013,-387.2251 466.331,-360 476.2556,-347.45 475.756,-336.9294 466.331,-324 450.9311,-302.8742 429.0301,-324.2702 410.331,-306 361.8733,-258.6536 409.6047,-208.4966 360.331,-162 354.0805,-156.1018 311.5528,-144.756 277.4062,-136.3714"/>
<text text-anchor="middle" x="426.3276" y="-391.8" font-family="Times,serif" font-size="14.00" fill="#000000">cid:1298455</text>
</g>
<!-- 02a07d7d15&#45;&#45;02b4f0aa3f -->
<g id="edge52" class="edge">
<title>02a07d7d15&#45;&#45;02b4f0aa3f</title>
<path fill="none" stroke="#000000" stroke-width="3" d="M381.4102,-648.0459C379.0174,-631.926 378.5145,-608.6139 391.3378,-594 416.2317,-565.6299 437.7044,-585.1136 474.331,-576 482.3955,-573.9934 490.9862,-571.6916 499.1692,-569.4195"/>
<text text-anchor="middle" x="427.3276" y="-607.8" font-family="Times,serif" font-size="14.00" fill="#000000">cid:1298453</text>
</g>
<!-- 02a07d7d15&#45;&#45;03b75d5e04 -->
<g id="edge66" class="edge">
<title>02a07d7d15&#45;&#45;03b75d5e04</title>
<path fill="none" stroke="#000000" stroke-width="2.5297" d="M347.4163,-653.0794C324.2972,-644.8202 298.5741,-634.7902 295.331,-630 286.3609,-616.7509 285.5268,-606.6443 295.331,-594 315.0149,-568.6141 345.0882,-600.9425 365.331,-576 390.5623,-544.9108 343.437,-516.5395 369.331,-486 394.3041,-456.5466 430.0181,-498.0007 454.331,-468 464.4048,-455.5695 464.8142,-444.0873 454.331,-432 417.2672,-389.2651 365.3948,-456.7349 328.331,-414 317.8478,-401.9127 318.595,-390.6969 328.331,-378 347.0933,-353.5318 376.5687,-384.4682 395.331,-360 405.067,-347.3031 404.8819,-336.8367 395.331,-324 378.712,-301.6635 358.2995,-321.734 335.331,-306 318.6085,-294.5447 323.2356,-282.5661 307.331,-270 295.1498,-260.3758 279.9821,-252.6684 266.203,-246.8933"/>
<text text-anchor="middle" x="497.3276" y="-445.8" font-family="Times,serif" font-size="14.00" fill="#000000">cid:1298695</text>
</g>
<!-- 031bc4bbbb -->
<g id="node36" class="node">
<title>031bc4bbbb</title>
<ellipse fill="none" stroke="#000000" cx="520.331" cy="-774" rx="53.6557" ry="18"/>
<text text-anchor="middle" x="520.331" y="-769.8" font-family="Times,serif" font-size="14.00" fill="#000000">031bc4bbbb</text>
</g>
<!-- 031bc4bbbb&#45;&#45;03c0b01e01 -->
<g id="edge62" class="edge">
<title>031bc4bbbb&#45;&#45;03c0b01e01</title>
<path fill="none" stroke="#000000" stroke-width=".1252" d="M567.2986,-765.1188C587.8034,-761.6219 612.178,-757.9754 634.331,-756 821.6303,-739.298 1296.1678,-775.9989 1480.331,-738 1542.8124,-725.1081 1561.2719,-720.8779 1613.331,-684 1709.1668,-616.1113 1682.6635,-537.2616 1788.331,-486 1820.2717,-470.5049 2082.9455,-493.8003 2107.331,-468 2118.3214,-456.372 2117.3092,-444.5074 2107.331,-432 2084.8732,-403.8497 2057.5738,-435.0154 2028.331,-414 1990.2637,-386.6428 2007.971,-355.5848 1973.331,-324 1933.0866,-287.3051 1915.3747,-286.049 1863.331,-270 1809.2744,-253.3303 1791.7652,-267.3921 1737.331,-252 1698.6388,-241.0592 1693.1478,-226.4903 1654.331,-216 1589.0854,-198.3673 1569.4355,-212.0747 1503.331,-198 1450.5332,-186.7585 1440.5697,-170.9226 1387.331,-162 1278.2322,-143.7155 499.2071,-130.1961 286.7395,-126.8197"/>
<text text-anchor="middle" x="2149.3276" y="-445.8" font-family="Times,serif" font-size="14.00" fill="#000000">cid:1298638</text>
</g>
<!-- 02527e1158 -->
<g id="node37" class="node">
<title>02527e1158</title>
<ellipse fill="none" stroke="#000000" cx="302.331" cy="-558" rx="53.5074" ry="18"/>
<text text-anchor="middle" x="302.331" y="-553.8" font-family="Times,serif" font-size="14.00" fill="#000000">02527e1158</text>
</g>
<!-- 02574473ad -->
<g id="node38" class="node">
<title>02574473ad</title>
<ellipse fill="none" stroke="#000000" cx="332.331" cy="-342" rx="53.6557" ry="18"/>
<text text-anchor="middle" x="332.331" y="-337.8" font-family="Times,serif" font-size="14.00" fill="#000000">02574473ad</text>
</g>
<!-- 02527e1158&#45;&#45;02574473ad -->
<g id="edge63" class="edge">
<title>02527e1158&#45;&#45;02574473ad</title>
<path fill="none" stroke="#000000" stroke-width="2.7096" d="M309.7586,-540.1195C316.9045,-524.4877 328.891,-501.8693 344.331,-486 354.9096,-475.1273 365.9565,-481.2567 373.331,-468 381.109,-454.0178 383.1352,-444.6443 373.331,-432 353.647,-406.6141 323.0149,-439.3859 303.331,-414 293.5268,-401.3557 298.0094,-393.0891 303.331,-378 305.7334,-371.1881 310.0309,-364.7164 314.5941,-359.1876"/>
<text text-anchor="middle" x="415.3276" y="-445.8" font-family="Times,serif" font-size="14.00" fill="#000000">cid:1298680</text>
</g>
<!-- 02574473ad&#45;&#45;03b75d5e04 -->
<g id="edge64" class="edge">
<title>02574473ad&#45;&#45;03b75d5e04</title>
<path fill="none" stroke="#000000" stroke-width=".1252" d="M290.3259,-330.7332C268.2501,-323.9421 244.3433,-314.9064 237.3378,-306 225.4219,-290.8507 224.532,-268.0917 225.745,-252.2301"/>
<text text-anchor="middle" x="273.3276" y="-283.8" font-family="Times,serif" font-size="14.00" fill="#000000">cid:1298681</text>
</g>
<!-- 033f2ad3d5 -->
<g id="node39" class="node">
<title>033f2ad3d5</title>
<ellipse fill="none" stroke="#000000" cx="213.331" cy="-612" rx="52.202" ry="18"/>
<text text-anchor="middle" x="213.331" y="-607.8" font-family="Times,serif" font-size="14.00" fill="#000000">033f2ad3d5</text>
</g>
<!-- 033f2ad3d5&#45;&#45;03b75d5e04 -->
<g id="edge65" class="edge">
<title>033f2ad3d5&#45;&#45;03b75d5e04</title>
<path fill="none" stroke="#000000" stroke-width="3" d="M215.4318,-593.9782C218.2299,-577.8116 224.6684,-554.4689 239.331,-540 256.739,-522.8219 277.1452,-541.922 291.331,-522 320.5589,-480.9532 231.6221,-355.5256 222.331,-306 218.9312,-287.8775 221.4142,-266.8272 224.145,-252.187"/>
<text text-anchor="middle" x="326.3276" y="-445.8" font-family="Times,serif" font-size="14.00" fill="#000000">cid:1298687</text>
</g>
<!-- 0262b3daf8 -->
<g id="node40" class="node">
<title>0262b3daf8</title>
<ellipse fill="none" stroke="#000000" cx="821.331" cy="-774" rx="52.202" ry="18"/>
<text text-anchor="middle" x="821.331" y="-769.8" font-family="Times,serif" font-size="14.00" fill="#000000">0262b3daf8</text>
</g>
<!-- 02ae91a4c8 -->
<g id="node41" class="node">
<title>02ae91a4c8</title>
<ellipse fill="none" stroke="#000000" cx="944.331" cy="-774" rx="52.1762" ry="18"/>
<text text-anchor="middle" x="944.331" y="-769.8" font-family="Times,serif" font-size="14.00" fill="#000000">02ae91a4c8</text>
</g>
<!-- 0307945454 -->
<g id="node42" class="node">
<title>0307945454</title>
<ellipse fill="none" stroke="#000000" cx="1069.331" cy="-774" rx="54.1489" ry="18"/>
<text text-anchor="middle" x="1069.331" y="-769.8" font-family="Times,serif" font-size="14.00" fill="#000000">0307945454</text>
</g>
<!-- 03ee7f315e -->
<g id="node43" class="node">
<title>03ee7f315e</title>
<ellipse fill="none" stroke="#000000" cx="1193.331" cy="-774" rx="51.2156" ry="18"/>
<text text-anchor="middle" x="1193.331" y="-769.8" font-family="Times,serif" font-size="14.00" fill="#000000">03ee7f315e</text>
</g>
<!-- 03f17fad98 -->
<g id="node44" class="node">
<title>03f17fad98</title>
<ellipse fill="none" stroke="#000000" cx="1313.331" cy="-774" rx="50.7483" ry="18"/>
<text text-anchor="middle" x="1313.331" y="-769.8" font-family="Times,serif" font-size="14.00" fill="#000000">03f17fad98</text>
</g>
</g>
</svg>
