<?xml version="1.0" encoding="UTF-8"?>
<svg width="32px" height="33px" viewBox="0 0 32 33" version="1.1" xmlns="http://www.w3.org/2000/svg" xmlns:xlink="http://www.w3.org/1999/xlink">
    <!-- Generator: Sketch 48.2 (47327) - http://www.bohemiancoding.com/sketch -->
    <title>Bitcoin</title>
    <desc>Created with Sketch.</desc>
    <defs></defs>
    <g id="Pay-Hover-Copy" stroke="none" stroke-width="1" fill="none" fill-rule="evenodd" transform="translate(-56.000000, -92.000000)">
        <g id="Group" transform="translate(56.000000, 90.000000)" fill="#F5B300">
            <g id="Bitcoin" transform="translate(0.000000, 2.000000)">
                <g id="btc">
                    <path d="M15.85,32.1 C7.09628672,32.1 0,25.0037133 0,16.25 C0,7.49628672 7.09628672,0.4 15.85,0.4 C24.6037133,0.4 31.7,7.49628672 31.7,16.25 C31.7,25.0037133 24.6037133,32.1 15.85,32.1 Z M11.55,8.15 C11.5,8.2 11.5,8.2 11.7,8.05 C11.55,8.6 11.4,9.2 11.25,9.75 C11.2,9.85 11.25,9.9 11.35,9.9 C11.75,10 12.2,10.1 12.65,10.25 C13.1,10.4 13.35,10.85 13.25,11.25 C12.65,13.85 12,16.4 11.35,18.95 C11.3,19.3 11,19.5 10.6,19.4 C10.25,19.35 9.85,19.25 9.5,19.15 C9.35,19.15 9.3,19.15 9.25,19.3 C9.1,19.7 8.9,20.15 8.7,20.6 C8.6,20.8 8.55,20.95 8.45,21.15 C9.65,21.45 10.8,21.75 11.95,22.05 C11.95,22.15 11.9,22.2 11.9,22.25 C11.65,23.05 11.45,23.9 11.25,24.75 C11.2,24.85 11.2,24.9 11.35,24.95 C11.85,25.05 12.35,25.15 12.85,25.3 C13,25.35 13,25.3 13.05,25.2 C13.15,24.75 13.3,24.3 13.4,23.85 C13.5,23.4 13.65,22.95 13.75,22.5 C14.2,22.6 14.6,22.7 15,22.8 C15.1,22.85 15.05,22.9 15.05,23 C14.8,23.8 14.6,24.65 14.4,25.5 C14.35,25.6 14.35,25.65 14.5,25.7 C14.95,25.8 15.45,25.95 15.9,26.05 C16.15,26.15 16.15,26.1 16.2,25.9 C16.4,25.1 16.6,24.25 16.8,23.45 C16.85,23.3 16.95,23.25 17.1,23.3 C18.1,23.45 19.1,23.55 20.15,23.4 C20.95,23.3 21.65,22.95 22.2,22.3 C22.65,21.75 22.9,21.15 23.1,20.45 C23.25,19.9 23.3,19.3 23.2,18.75 C23,18.05 22.6,17.5 22,17.05 C21.8,16.9 21.6,16.8 21.4,16.65 C21.5,16.65 21.55,16.6 21.6,16.6 C22,16.45 22.4,16.25 22.7,15.95 C23.1,15.55 23.3,15.05 23.45,14.5 C23.65,13.7 23.6,12.9 23.15,12.15 C22.8,11.65 22.35,11.25 21.85,10.95 C21.3,10.7 20.75,10.45 20.2,10.2 C20.05,10.15 20,10.1 20.05,9.95 C20.15,9.7 20.2,9.45 20.25,9.2 C20.4,8.6 20.55,8 20.7,7.35 C20.65,7.35 20.65,7.3 20.6,7.3 C20.05,7.15 19.55,7.05 19.05,6.9 C18.95,6.85 18.9,6.9 18.9,7 C18.85,7.2 18.8,7.4 18.75,7.6 C18.55,8.25 18.4,8.85 18.25,9.5 C18.2,9.55 18.15,9.65 18.1,9.65 C17.7,9.55 17.25,9.45 16.85,9.35 C16.9,9.25 16.9,9.2 16.9,9.15 C17.1,8.35 17.3,7.5 17.5,6.7 C17.55,6.6 17.55,6.55 17.4,6.5 C16.9,6.4 16.45,6.3 15.95,6.15 C15.8,6.1 15.75,6.15 15.7,6.3 C15.5,7.15 15.3,7.95 15.1,8.8 C15.05,8.95 15,9 14.85,8.95 C14.3,8.8 13.75,8.7 13.2,8.55 C12.65,8.4 12.1,8.3 11.55,8.15 Z M14.1,20.5 C14.3,19.75 14.45,19.05 14.65,18.35 C14.75,17.85 14.9,17.4 15,16.9 C15.05,16.75 15.05,16.7 15.2,16.75 C16.2,16.95 17.25,17.15 18.15,17.65 C18.55,17.9 18.95,18.15 19.2,18.55 C19.75,19.35 19.35,20.6 18.4,20.9 C17.85,21.1 17.3,21.1 16.7,21.05 C15.85,21 15,20.75 14.2,20.55 C14.2,20.55 14.15,20.5 14.1,20.5 Z M18.3,15.4 C17.5,15.4 16.85,15.25 16.1,15.15 C15.9,15.1 15.75,15.05 15.55,15 C15.45,14.95 15.4,14.9 15.45,14.8 C15.75,13.75 16,12.75 16.25,11.7 C16.3,11.55 16.35,11.5 16.5,11.55 C17.25,11.75 17.95,11.9 18.65,12.2 C19.1,12.4 19.55,12.7 19.8,13.15 C20.3,14 19.8,15.1 18.85,15.3 C18.65,15.35 18.4,15.4 18.3,15.4 Z" id="Combined-Shape" fill-rule="nonzero"></path>
                </g>
            </g>
        </g>
    </g>
</svg>