<svg xmlns="http://www.w3.org/2000/svg" width="16" height="16" viewBox="0 0 16 16">
    <path fill="#FFF" fill-rule="nonzero" d="M8 .187a8 8 0 0 0-2.48 15.606h.193a.667.667 0 0 0 .707-.706v-.14-.727a.335.335 0 0 0-.133-.22.334.334 0 0 0-.28-.067c-1.787.387-2.167-.733-2.194-.806a3.096 3.096 0 0 0-1.146-1.46.77.77 0 0 0-.1-.074.418.418 0 0 1 .253-.046.98.98 0 0 1 .767.586 2 2 0 0 0 2.666.774.332.332 0 0 0 .194-.24c.025-.309.157-.598.373-.82a.334.334 0 0 0-.18-.58c-1.58-.18-3.193-.734-3.193-3.46a2.666 2.666 0 0 1 .7-1.854.332.332 0 0 0 .06-.353A2.348 2.348 0 0 1 4.213 4c.616.11 1.194.373 1.68.767a.327.327 0 0 0 .28.046A7.071 7.071 0 0 1 8 4.567c.62 0 1.236.083 1.833.246a.326.326 0 0 0 .274-.046A3.725 3.725 0 0 1 11.787 4a2.382 2.382 0 0 1 0 1.587.332.332 0 0 0 .06.353c.458.5.708 1.155.7 1.833 0 2.727-1.62 3.274-3.207 3.454a.334.334 0 0 0-.18.586c.299.309.447.733.407 1.16v2.12a.706.706 0 0 0 .24.554.8.8 0 0 0 .706.126A8 8 0 0 0 8 .187z"/>
</svg>
