<svg xmlns="http://www.w3.org/2000/svg" width="14" height="15" viewBox="0 0 14 15">
    <g fill="none" fill-rule="evenodd">
        <path stroke="currentColor" stroke-linecap="round" d="M4.058 2.615C1.562 3.8.078 6.455.598 9.222c.5 2.652 2.69 4.616 5.315 5.052a6.762 6.762 0 0 0 4.252-.69c2.332-1.243 3.69-3.804 3.19-6.47a6.085 6.085 0 0 0-1.231-2.676A6.496 6.496 0 0 0 9.862 2.64"/>
        <path fill="currentColor" d="M7.062 0a.5.5 0 0 1 .5.5v6a.5.5 0 0 1-1 0v-6a.5.5 0 0 1 .5-.5z"/>
    </g>
</svg>
