<svg xmlns="http://www.w3.org/2000/svg" width="16" height="16" viewBox="0 0 16 16">
    <path fill="#FFF" fill-rule="nonzero" d="M15.333 0H.667A.667.667 0 0 0 0 .667v14.666c0 .368.299.667.667.667h14.666a.667.667 0 0 0 .667-.667V.667A.667.667 0 0 0 15.333 0zm-1.76 3.9l-.906.82a.253.253 0 0 0-.094.24v6.32a.253.253 0 0 0 .094.24l.9.887v.18H9.333v-.18l.774-.907c.086-.087.086-.113.086-.24V6.667l-1.866 5.266-.2.667H7.6C5.833 8.74 5.273 7.387 4.733 6.46v4.667l1.094 1.333v.18h-3.16v-.18l1.066-1.333v-6L2.907 4.1v-.353h3.18l2.146 5.14L10 4.04a.5.5 0 0 1 .527-.387h3.053l-.007.247z"/>
</svg>
