<svg xmlns="http://www.w3.org/2000/svg" width="29" height="23" viewBox="0 0 29 23">
    <g fill="none" fill-rule="evenodd" stroke="currentColor" stroke-linecap="round" stroke-linejoin="round" stroke-width="1.208">
        <path d="M3.02 7.875h22.96a2.416 2.416 0 0 1 2.416 2.417v9.666a2.416 2.416 0 0 1-2.417 2.417H3.021a2.416 2.416 0 0 1-2.417-2.417v-9.666a2.416 2.416 0 0 1 2.417-2.417z"/>
        <path d="M6.646 16.938a1.813 1.813 0 0 1-3.625 0v-3.625a1.813 1.813 0 0 1 3.625 0v3.624zM21.146 18.75V11.5l3.625 7.25V11.5M18.73 18.75h-2.418a1.209 1.209 0 0 1-1.208-1.208v-4.834c0-.667.542-1.208 1.209-1.208h2.416M15.104 15.125h2.417M12.688 13.313c0 1-.813 1.812-1.813 1.812H9.062V11.5h1.813c1 0 1.813.812 1.813 1.813zM9.063 18.75v-3.625M19.938 7.875l-3.625-6.206a2.104 2.104 0 0 0-3.635 0L9.062 7.875"/>
    </g>
</svg>
