<svg xmlns="http://www.w3.org/2000/svg" width="16" height="16" viewBox="0 0 16 16">
    <path fill="currentColor" fill-rule="nonzero" d="M12.114 4.53a.546.546 0 0 0 .534.402h3.162c.114 0 .19-.074.19-.183V1.717a.532.532 0 0 0-.419-.512c-.343-.054-.629.183-.629.494v1.443C13.39 1.187 10.952 0 8.324 0 3.734.018 0 3.598 0 8s3.733 8 8.343 8c3.18 0 6.133-1.772 7.505-4.53a.496.496 0 0 0-.153-.639.527.527 0 0 0-.78.183c-1.2 2.41-3.791 3.963-6.572 3.963-4.02 0-7.276-3.123-7.276-6.977 0-3.434 2.647-6.393 6.171-6.904 2.781-.402 5.467.749 7.029 2.85h-1.638c-.324 0-.59.273-.515.584z"/>
</svg>
