<?xml version="1.0" encoding="UTF-8" standalone="no"?>
<svg width="24px" height="24px" viewBox="0 0 24 24" version="1.1" xmlns="http://www.w3.org/2000/svg" xmlns:xlink="http://www.w3.org/1999/xlink">
    <!-- Generator: Sketch 47.1 (45422) - http://www.bohemiancoding.com/sketch -->
    <title>settings</title>
    <desc>Created with Sketch.</desc>
    <defs></defs>
    <g id="Exploration-v2" stroke="none" stroke-width="1" fill="none" fill-rule="evenodd" stroke-linecap="round" stroke-linejoin="round">
        <g id="Main-Page-Copy-14" transform="translate(-36.000000, -434.000000)" stroke="#FFFFFF">
            <g id="Group-33" transform="translate(37.000000, 435.000000)">
                <g id="settings">
                    <circle id="Oval" cx="11" cy="11" r="3"></circle>
                    <path d="M18.4,14 C18.1276535,14.6170901 18.2583341,15.3378133 18.73,15.82 L18.79,15.88 C19.1655541,16.2551365 19.3765733,16.7641815 19.3765733,17.295 C19.3765733,17.8258185 19.1655541,18.3348635 18.79,18.71 C18.4148635,19.0855541 17.9058185,19.2965733 17.375,19.2965733 C16.8441815,19.2965733 16.3351365,19.0855541 15.96,18.71 L15.9,18.65 C15.4178133,18.1783341 14.6970901,18.0476535 14.08,18.32 C13.4755294,18.5790683 13.0826229,19.1723571 13.08,19.83 L13.08,20 C13.08,21.1045695 12.1845695,22 11.08,22 C9.9754305,22 9.08,21.1045695 9.08,20 L9.08,19.91 C9.0641566,19.2326708 8.63587177,18.6338652 8,18.4 C7.38290993,18.1276535 6.66218673,18.2583341 6.18,18.73 L6.12,18.79 C5.74486349,19.1655541 5.2358185,19.3765733 4.705,19.3765733 C4.1741815,19.3765733 3.66513651,19.1655541 3.29,18.79 C2.91444591,18.4148635 2.70342669,17.9058185 2.70342669,17.375 C2.70342669,16.8441815 2.91444591,16.3351365 3.29,15.96 L3.35,15.9 C3.82166588,15.4178133 3.95234646,14.6970901 3.68,14.08 C3.42093172,13.4755294 2.82764292,13.0826229 2.17,13.08 L2,13.08 C0.8954305,13.08 2.22044605e-16,12.1845695 0,11.08 C-1.11022302e-16,9.9754305 0.8954305,9.08 2,9.08 L2.09,9.08 C2.76732918,9.0641566 3.36613483,8.63587177 3.6,8 C3.87234646,7.38290993 3.74166588,6.66218673 3.27,6.18 L3.21,6.12 C2.83444591,5.74486349 2.62342669,5.2358185 2.62342669,4.705 C2.62342669,4.1741815 2.83444591,3.66513651 3.21,3.29 C3.58513651,2.91444591 4.0941815,2.70342669 4.625,2.70342669 C5.1558185,2.70342669 5.66486349,2.91444591 6.04,3.29 L6.1,3.35 C6.58218673,3.82166588 7.30290993,3.95234646 7.92,3.68 L8,3.68 C8.60447061,3.42093172 8.99737709,2.82764292 9,2.17 L9,2 C9,0.8954305 9.8954305,2.22044605e-16 11,0 C12.1045695,0 13,0.8954305 13,2 L13,2.09 C13.0026229,2.74764292 13.3955294,3.34093172 14,3.6 C14.6170901,3.87234646 15.3378133,3.74166588 15.82,3.27 L15.88,3.21 C16.2551365,2.83444591 16.7641815,2.62342669 17.295,2.62342669 C17.8258185,2.62342669 18.3348635,2.83444591 18.71,3.21 C19.0855541,3.58513651 19.2965733,4.0941815 19.2965733,4.625 C19.2965733,5.1558185 19.0855541,5.66486349 18.71,6.04 L18.65,6.1 C18.1783341,6.58218673 18.0476535,7.30290993 18.32,7.92 L18.32,8 C18.5790683,8.60447061 19.1723571,8.99737709 19.83,9 L20,9 C21.1045695,9 22,9.8954305 22,11 C22,12.1045695 21.1045695,13 20,13 L19.91,13 C19.2523571,13.0026229 18.6590683,13.3955294 18.4,14 Z" id="Shape"></path>
                </g>
            </g>
        </g>
    </g>
</svg>
