<svg xmlns="http://www.w3.org/2000/svg" width="13" height="13" viewBox="0 0 13 13">
    <g fill="none" fill-rule="evenodd" stroke="#FFF" stroke-linecap="round" stroke-linejoin="round" stroke-width=".813">
        <path d="M5.712 1.32a1.06 1.06 0 0 0 1.576 0L7.8.759a1.06 1.06 0 0 1 1.847.766l-.038.758a1.06 1.06 0 0 0 1.11 1.113l.759-.039a1.061 1.061 0 0 1 .764 1.847l-.565.51a1.062 1.062 0 0 0 0 1.575l.565.51a1.06 1.06 0 0 1-.766 1.846l-.758-.038a1.06 1.06 0 0 0-1.114 1.114l.039.758a1.061 1.061 0 0 1-1.843.764l-.51-.564a1.061 1.061 0 0 0-1.575 0l-.512.564a1.061 1.061 0 0 1-1.845-.763l.04-.758a1.06 1.06 0 0 0-1.114-1.114l-.759.038A1.06 1.06 0 0 1 .758 7.8l.564-.51a1.062 1.062 0 0 0 0-1.575l-.564-.512a1.061 1.061 0 0 1 .764-1.845l.758.039A1.06 1.06 0 0 0 3.395 2.28l-.037-.759A1.061 1.061 0 0 1 5.203.758l.51.563z"/>
        <path d="M6.5 4.063a2.438 2.438 0 1 1 0 4.875 2.438 2.438 0 0 1 0-4.875z"/>
    </g>
</svg>
