<svg xmlns="http://www.w3.org/2000/svg" width="16" height="16" viewBox="0 0 16 16">
    <g fill="#FFF" fill-rule="nonzero">
        <path d="M3.548 10.017c0 .905-.696 1.6-1.6 1.6-.905 0-1.6-.695-1.6-1.6 0-.904.695-1.6 1.6-1.6h1.6v1.6zM4.383 10.017c0-.904.695-1.6 1.6-1.6.904 0 1.6.696 1.6 1.6v4.035c0 .905-.696 1.6-1.6 1.6-.905 0-1.6-.695-1.6-1.6v-4.035zM5.983 3.617c-.905 0-1.6-.695-1.6-1.6 0-.904.695-1.6 1.6-1.6.904 0 1.6.696 1.6 1.6v1.6h-1.6zM5.983 4.383c.904 0 1.6.695 1.6 1.6 0 .904-.696 1.6-1.6 1.6H1.948c-.905 0-1.6-.696-1.6-1.6 0-.905.695-1.6 1.6-1.6h4.035z"/>
        <g>
            <path d="M12.452 6.052c0-.904.696-1.6 1.6-1.6.905 0 1.6.696 1.6 1.6 0 .905-.695 1.6-1.6 1.6h-1.6v-1.6zM11.617 6.052c0 .905-.695 1.6-1.6 1.6-.904 0-1.6-.695-1.6-1.6V2.017c0-.904.696-1.6 1.6-1.6.905 0 1.6.696 1.6 1.6v4.035z"/>
        </g>
        <g>
            <path d="M10.017 12.452c.905 0 1.6.696 1.6 1.6 0 .905-.695 1.6-1.6 1.6-.904 0-1.6-.695-1.6-1.6v-1.6h1.6zM10.017 11.687c-.904 0-1.6-.696-1.6-1.6 0-.904.696-1.6 1.6-1.6h4.035c.905 0 1.6.696 1.6 1.6 0 .904-.695 1.6-1.6 1.6h-4.035z"/>
        </g>
    </g>
</svg>
