<?xml version="1.0" encoding="UTF-8" standalone="no"?>
<svg width="25px" height="23px" viewBox="0 0 25 23" version="1.1" xmlns="http://www.w3.org/2000/svg" xmlns:xlink="http://www.w3.org/1999/xlink">
    <!-- Generator: Sketch 47.1 (45422) - http://www.bohemiancoding.com/sketch -->
    <title>Group 2</title>
    <desc>Created with Sketch.</desc>
    <defs></defs>
    <g id="Exploration-v2" stroke="none" stroke-width="1" fill="none" fill-rule="evenodd">
        <g id="Main-Page-Copy-14" transform="translate(-37.000000, -278.000000)" fill="#FFFFFF">
            <g id="Group-5" transform="translate(37.000000, 278.000000)">
                <g id="Group-2">
                    <path d="M22.9,22.8215957 L2.1,22.8215957 C0.942,22.8215957 0,21.8795957 0,20.7215957 L0,4.86859573 C0,4.65959573 0.129,4.48059573 0.311,4.40559573 C0.243,4.30259573 0.183,4.18859573 0.135,4.06259573 C0.036,3.80459573 0.164,3.51459573 0.422,3.41559573 C0.68,3.31859573 0.969,3.44459573 1.068,3.70259573 C1.324,4.36859573 2.41,4.37659573 2.883,4.36859573 L22.9,4.36859573 C24.058,4.36859573 25,5.31059573 25,6.46859573 L25,20.7215957 C25,21.8795957 24.058,22.8215957 22.9,22.8215957 L22.9,22.8215957 Z M1,5.01759573 L1,20.7215957 C1,21.3275957 1.494,21.8215957 2.1,21.8215957 L22.9,21.8215957 C23.507,21.8215957 24,21.3275957 24,20.7215957 L24,6.46859573 C24,5.86259573 23.507,5.36859573 22.9,5.36859573 L2.901,5.36859573 C2.499,5.38859573 1.669,5.36959573 1,5.01759573 L1,5.01759573 Z" id="Fill-305"></path>
                    <path d="M22.318,5.30459573 C22.042,5.30459573 21.818,5.08159573 21.818,4.80459573 L21.818,1.82859573 C21.818,1.55459573 21.719,1.32059573 21.538,1.17259573 C21.357,1.02359573 21.11,0.969595727 20.843,1.02259573 L2.149,2.83359573 C1.071,3.07359573 1,3.95959573 0.999,3.96859573 L1,4.71859573 C1,4.99459573 0.776,5.21859573 0.5,5.21859573 C0.224,5.21859573 0,4.99459573 0,4.71859573 L0,3.93559573 C0.039,3.33559573 0.503,2.17459573 1.993,1.84759573 L20.699,0.0345957267 C21.21,-0.0694042733 21.765,0.0635957267 22.174,0.399595727 C22.583,0.737595727 22.818,1.25859573 22.818,1.82859573 L22.818,4.80459573 C22.818,5.08159573 22.595,5.30459573 22.318,5.30459573" id="Fill-306"></path>
                    <path d="M19.916,14.9965957 C19.199,14.9965957 18.616,14.4125957 18.616,13.6955957 C18.616,12.9795957 19.199,12.3965957 19.916,12.3965957 C20.633,12.3965957 21.216,12.9795957 21.216,13.6955957 C21.216,14.4125957 20.633,14.9965957 19.916,14.9965957 L19.916,14.9965957 Z M19.916,13.3965957 C19.75,13.3965957 19.616,13.5305957 19.616,13.6955957 C19.616,13.8615957 19.75,13.9965957 19.916,13.9965957 C20.081,13.9965957 20.216,13.8615957 20.216,13.6955957 C20.216,13.5305957 20.081,13.3965957 19.916,13.3965957 L19.916,13.3965957 Z" id="Fill-307"></path>
                    <path d="M24.5,17.5995957 L17.347,17.5995957 C15.96,17.5995957 14.832,16.4715957 14.832,15.0845957 L14.832,12.3085957 C14.832,10.9215957 15.96,9.79259573 17.347,9.79259573 L24.5,9.79259573 C24.776,9.79259573 25,10.0165957 25,10.2925957 L25,17.0995957 C25,17.3765957 24.776,17.5995957 24.5,17.5995957 L24.5,17.5995957 Z M17.347,10.7925957 C16.512,10.7925957 15.832,11.4725957 15.832,12.3085957 L15.832,15.0845957 C15.832,15.9205957 16.512,16.5995957 17.347,16.5995957 L24,16.5995957 L24,10.7925957 L17.347,10.7925957 L17.347,10.7925957 Z" id="Fill-308"></path>
                </g>
            </g>
        </g>
    </g>
</svg>