<svg width="22px" height="22px" viewBox="0 0 22 22" version="1.1" xmlns="http://www.w3.org/2000/svg">
  <defs></defs>
  <title>9A34091F-52FF-4333-89C8-0C5FDDF57D62</title>
  <desc>Created with sketchtool.</desc>
  <g id="Symbols" stroke="none" stroke-width="1" fill="none" fill-rule="evenodd">
    <g id="zap_logo_white">
      <g>
        <g id="cloud+lightning" fill-rule="nonzero">
          <path d="M16.6727659,5.80227568 C19.3272782,5.79961847 21.5566955,7.80517054 21.8247454,10.4483461 C22.0930089,13.0936275 20.3085737,15.5064139 17.7047412,16.033042 C17.4630865,16.081917 17.2286366,15.9201965 17.1810827,15.6718292 C17.1335287,15.423462 17.2908783,15.1824996 17.532533,15.1336246 C19.688772,14.6975228 21.1575392,12.7115602 20.9376591,10.5433746 C20.7175653,8.37308316 18.8763332,6.71673697 16.6732003,6.71894213 L15.4819499,6.71894213 C15.2798916,6.71894213 15.1030828,6.57931111 15.051046,6.37864496 C14.2411564,3.25551826 11.40746,1.06944441 8.15879339,1.06944444 C4.91012674,1.06944448 2.07643043,3.25551838 1.26654089,6.3786451 C0.457757316,9.49750698 1.87029392,12.768117 4.7067742,14.3319196 C4.92380959,14.4515751 5.00537319,14.7294042 4.88895162,14.9524684 C4.77253004,15.1755325 4.50220976,15.2593618 4.28517437,15.1397063 C1.08702458,13.3765088 -0.511414741,9.67545665 0.404733062,6.14257278 C1.31977491,2.61395375 4.51007196,0.152777814 8.15879338,0.152777778 C11.6890414,0.152777743 14.7901518,2.45672047 15.8165859,5.80227552 L16.6727659,5.80227568 Z" id="Shape" fill="#FFFFFF"></path>
          <path d="M8.62162162,16.1944444 C8.26294332,16.1944444 8.05102508,15.7813509 8.25366052,15.4771755 L12.0194263,9.82439775 C12.1585674,9.61553346 12.4361054,9.56214492 12.6393247,9.70515109 C12.842544,9.84815727 12.8944896,10.1334046 12.7553485,10.3422689 L9.46741271,15.2777778 L14.2702703,15.2777778 C14.6289486,15.2777778 14.8408668,15.6908713 14.6382314,15.9950467 L10.8724656,21.6478245 C10.7333245,21.8566888 10.4557865,21.9100773 10.2525672,21.7670711 C10.0493479,21.624065 9.99740226,21.3388176 10.1365434,21.1299533 L13.4244792,16.1944444 L8.62162162,16.1944444 Z" id="Shape" fill="#FD9800"></path>
        </g>
      </g>
    </g>
  </g>
</svg>
