<svg xmlns="http://www.w3.org/2000/svg" xmlns:xlink="http://www.w3.org/1999/xlink" viewBox="0 0 50 50" version="1.1" width="100" height="100">
<g id="surface1">
<path style="" class="thunderstorm-path" d="M 26 5 C 21.890625 5 18.4375 7.535156 16.90625 11.09375 C 16.605469 11.0625 16.3125 11 16 11 C 11.792969 11 8.320313 13.925781 7.34375 17.84375 C 4.210938 19.253906 2 22.351563 2 26 C 2 30.957031 6.042969 35 11 35 L 16.125 35 L 15.0625 37.625 L 14.53125 39 L 20.5625 39 L 18.0625 45.65625 L 16.9375 48.625 L 19.5625 46.8125 L 32.5625 37.90625 L 33 37.59375 L 33 36 L 28.71875 36 L 29.28125 35 L 39 35 C 43.957031 35 48 30.957031 48 26 C 48 22.417969 45.851563 19.382813 42.8125 17.9375 C 42.292969 13.710938 38.910156 10.433594 34.625 10.125 C 32.90625 7.097656 29.726563 5 26 5 Z M 26 7 C 29.148438 7 31.847656 8.804688 33.15625 11.4375 L 33.4375 12 L 34.0625 12 C 37.792969 12.023438 40.777344 14.941406 40.96875 18.625 L 41 19.28125 L 41.59375 19.5 C 44.164063 20.535156 46 23.046875 46 26 C 46 29.878906 42.878906 33 39 33 L 30.375 33 L 32.875 28.5 L 33.6875 27 L 19.3125 27 L 19.0625 27.625 L 16.90625 33 L 11 33 C 7.121094 33 4 29.878906 4 26 C 4 23.007813 5.871094 20.476563 8.5 19.46875 L 9.03125 19.28125 L 9.125 18.71875 C 9.726563 15.464844 12.5625 13 16 13 C 16.433594 13 16.855469 13.046875 17.28125 13.125 L 18.15625 13.28125 L 18.40625 12.46875 C 19.46875 9.300781 22.460938 7 26 7 Z M 20.6875 29 L 30.28125 29 L 26.125 36.5 L 25.3125 38 L 28.90625 38 L 21.03125 43.40625 L 22.9375 38.34375 L 23.4375 37 L 17.5 37 Z "/>
</g>
</svg>