<svg id="svg" version="1.1" width="24" height="24" viewBox="0 0 400 400" xmlns="http://www.w3.org/2000/svg" xmlns:xlink="http://www.w3.org/1999/xlink" ><g id="svgg"><path id="path0" d="" stroke="none" fill="#000000" fill-rule="evenodd"></path><path id="path1" d="M132.759 62.500 C 132.737 62.555,132.655 63.309,132.577 64.176 L 132.436 65.753 133.018 64.631 C 133.695 63.326,133.770 62.400,133.200 62.400 C 132.980 62.400,132.782 62.445,132.759 62.500 M193.390 69.048 C 193.747 69.404,194.159 69.574,194.307 69.426 C 194.456 69.278,194.312 68.989,193.988 68.784 C 193.043 68.187,192.687 68.344,193.390 69.048 M132.537 78.600 C 132.539 80.360,132.609 81.030,132.693 80.089 C 132.778 79.149,132.777 77.709,132.691 76.889 C 132.605 76.070,132.536 76.840,132.537 78.600 M244.190 93.048 C 244.547 93.404,244.959 93.574,245.107 93.426 C 245.256 93.278,245.112 92.989,244.788 92.784 C 243.843 92.187,243.487 92.344,244.190 93.048 M248.252 94.991 C 248.380 95.326,248.736 95.600,249.043 95.600 C 249.824 95.600,249.736 95.301,248.809 94.805 C 248.164 94.459,248.061 94.494,248.252 94.991 M168.412 106.500 C 168.427 117.931,169.014 117.833,169.419 106.333 C 169.678 98.996,169.783 98.090,170.355 98.266 C 170.831 98.413,170.797 98.300,170.224 97.833 C 168.452 96.389,168.399 96.643,168.412 106.500 M210.000 117.000 C 210.274 117.330,210.701 117.586,210.949 117.568 C 211.230 117.549,211.211 117.460,210.898 117.334 C 210.621 117.223,210.497 116.967,210.621 116.766 C 210.745 116.565,210.545 116.400,210.175 116.400 C 209.622 116.400,209.591 116.507,210.000 117.000 M242.800 132.757 C 242.800 132.954,243.070 133.218,243.400 133.345 C 243.765 133.485,244.000 133.345,244.000 132.987 C 244.000 132.664,243.730 132.400,243.400 132.400 C 243.070 132.400,242.800 132.561,242.800 132.757 M244.800 133.828 C 244.800 134.143,245.143 134.400,245.563 134.400 C 246.124 134.400,246.271 134.608,246.120 135.186 C 246.007 135.618,245.798 135.934,245.657 135.889 C 245.180 135.736,243.446 137.179,243.746 137.479 C 243.910 137.643,244.187 137.545,244.362 137.262 C 244.746 136.640,246.676 135.600,247.446 135.600 C 248.090 135.600,248.194 134.567,247.587 134.192 C 246.438 133.482,244.800 133.268,244.800 133.828 M180.400 171.200 C 180.400 171.420,180.670 171.600,181.000 171.600 C 181.330 171.600,181.600 171.810,181.600 172.067 C 181.600 172.323,181.716 172.418,181.857 172.276 C 182.155 171.979,181.272 170.800,180.751 170.800 C 180.558 170.800,180.400 170.980,180.400 171.200 M183.600 173.010 C 183.600 173.456,184.799 174.467,185.167 174.332 C 185.364 174.259,185.093 173.877,184.563 173.481 C 184.033 173.086,183.600 172.874,183.600 173.010 M187.832 175.949 C 187.678 176.197,187.743 176.400,187.976 176.400 C 188.209 176.400,188.400 176.670,188.400 177.000 C 188.400 177.330,188.754 177.600,189.187 177.600 C 189.722 177.600,189.901 177.408,189.746 177.002 C 189.619 176.674,189.366 176.497,189.183 176.611 C 188.999 176.724,188.683 176.520,188.480 176.157 C 188.228 175.707,188.022 175.641,187.832 175.949 M220.535 199.443 C 219.888 200.431,219.889 200.506,220.571 200.888 C 220.967 201.109,221.630 201.630,222.045 202.045 C 222.460 202.460,222.980 202.800,223.200 202.800 C 223.420 202.800,223.600 202.980,223.600 203.200 C 223.600 203.420,223.878 203.600,224.219 203.600 C 225.006 203.600,223.701 201.633,222.900 201.613 C 222.625 201.606,222.400 201.345,222.400 201.033 C 222.400 200.722,222.212 200.404,221.982 200.327 C 221.752 200.251,221.534 199.786,221.497 199.294 C 221.412 198.168,221.366 198.175,220.535 199.443 M225.700 204.032 C 226.085 204.256,226.400 204.701,226.400 205.020 C 226.400 205.620,226.877 205.790,227.320 205.347 C 227.592 205.075,225.897 203.592,225.337 203.612 C 225.152 203.619,225.315 203.808,225.700 204.032 M233.600 209.991 C 233.600 210.216,233.780 210.400,234.000 210.400 C 234.220 210.400,234.400 210.670,234.400 211.000 C 234.400 211.330,234.670 211.600,235.000 211.600 C 235.906 211.600,235.721 210.971,234.600 210.237 C 234.050 209.876,233.600 209.766,233.600 209.991 M244.400 217.797 C 244.400 218.052,245.934 219.600,246.187 219.600 C 246.291 219.600,246.287 219.371,246.180 219.091 C 245.981 218.575,244.400 217.424,244.400 217.797 M178.400 231.000 C 178.400 231.330,178.591 231.600,178.824 231.600 C 179.057 231.600,179.145 231.435,179.021 231.234 C 178.897 231.033,179.021 230.777,179.298 230.666 C 179.601 230.544,179.522 230.451,179.100 230.432 C 178.715 230.414,178.400 230.670,178.400 231.000 M263.900 232.265 C 264.175 232.376,264.400 232.722,264.400 233.033 C 264.400 233.626,264.882 233.785,265.327 233.340 C 265.623 233.044,264.410 232.016,263.800 232.044 C 263.580 232.055,263.625 232.154,263.900 232.265 M267.200 234.551 C 267.200 234.621,267.536 235.065,267.947 235.539 C 268.729 236.440,269.600 236.683,269.600 236.000 C 269.600 235.780,269.330 235.600,269.000 235.600 C 268.670 235.600,268.400 235.439,268.400 235.243 C 268.400 235.046,268.130 234.782,267.800 234.655 C 267.470 234.529,267.200 234.482,267.200 234.551 M170.460 236.780 C 170.632 237.296,171.181 237.388,171.230 236.910 C 171.246 236.750,171.044 236.548,170.780 236.460 C 170.516 236.372,170.372 236.516,170.460 236.780 M272.400 239.200 C 272.400 239.420,272.670 239.600,273.000 239.600 C 273.330 239.600,273.600 239.420,273.600 239.200 C 273.600 238.980,273.330 238.800,273.000 238.800 C 272.670 238.800,272.400 238.980,272.400 239.200 M286.400 249.013 C 286.400 249.336,286.670 249.600,287.000 249.600 C 287.330 249.600,287.600 249.439,287.600 249.243 C 287.600 249.046,287.330 248.782,287.000 248.655 C 286.635 248.515,286.400 248.655,286.400 249.013 M224.800 249.829 C 224.800 250.251,225.902 251.164,226.133 250.933 C 226.259 250.808,226.113 250.456,225.810 250.152 C 225.233 249.576,224.800 249.437,224.800 249.829 M228.400 252.800 C 228.400 253.020,228.670 253.200,229.000 253.200 C 229.330 253.200,229.600 253.020,229.600 252.800 C 229.600 252.580,229.330 252.400,229.000 252.400 C 228.670 252.400,228.400 252.580,228.400 252.800 M236.655 259.000 C 236.782 259.330,237.046 259.600,237.243 259.600 C 237.439 259.600,237.600 259.330,237.600 259.000 C 237.600 258.670,237.336 258.400,237.013 258.400 C 236.655 258.400,236.515 258.635,236.655 259.000 M240.900 268.665 C 240.207 268.944,240.273 269.467,241.000 269.467 C 241.330 269.467,241.600 269.227,241.600 268.933 C 241.600 268.640,241.555 268.414,241.500 268.432 C 241.445 268.449,241.175 268.554,240.900 268.665 M223.867 276.667 C 223.406 277.127,223.575 277.600,224.200 277.600 C 224.530 277.600,224.800 277.330,224.800 277.000 C 224.800 276.375,224.327 276.206,223.867 276.667 M219.600 279.000 C 219.192 279.491,219.220 279.600,219.751 279.600 C 220.108 279.600,220.400 279.330,220.400 279.000 C 220.400 278.670,220.332 278.400,220.249 278.400 C 220.166 278.400,219.874 278.670,219.600 279.000 M206.800 285.000 C 206.392 285.491,206.420 285.600,206.951 285.600 C 207.308 285.600,207.600 285.330,207.600 285.000 C 207.600 284.670,207.532 284.400,207.449 284.400 C 207.366 284.400,207.074 284.670,206.800 285.000 M168.400 297.120 C 168.400 302.461,168.500 303.600,168.970 303.600 C 169.448 303.600,169.504 302.615,169.320 297.500 C 169.023 289.242,168.400 288.985,168.400 297.120 M181.200 297.000 C 180.792 297.491,180.820 297.600,181.351 297.600 C 181.708 297.600,182.000 297.330,182.000 297.000 C 182.000 296.670,181.932 296.400,181.849 296.400 C 181.766 296.400,181.474 296.670,181.200 297.000 M264.400 298.787 C 264.400 299.001,264.700 299.060,265.066 298.919 C 265.549 298.734,265.642 298.809,265.404 299.194 C 265.186 299.546,265.231 299.628,265.538 299.438 C 266.268 298.987,266.077 298.400,265.200 298.400 C 264.760 298.400,264.400 298.574,264.400 298.787 M256.400 302.987 C 256.400 303.345,256.635 303.485,257.000 303.345 C 257.330 303.218,257.600 302.954,257.600 302.757 C 257.600 302.561,257.330 302.400,257.000 302.400 C 256.670 302.400,256.400 302.664,256.400 302.987 M252.400 305.000 C 252.400 305.330,252.561 305.600,252.757 305.600 C 252.954 305.600,253.218 305.330,253.345 305.000 C 253.485 304.635,253.345 304.400,252.987 304.400 C 252.664 304.400,252.400 304.670,252.400 305.000 M243.600 309.000 C 243.600 309.330,243.791 309.600,244.024 309.600 C 244.257 309.600,244.344 309.434,244.219 309.230 C 244.093 309.027,244.307 308.778,244.695 308.677 C 245.232 308.537,245.185 308.482,244.500 308.446 C 243.946 308.418,243.600 308.631,243.600 309.000 M239.600 311.000 C 239.600 311.330,239.780 311.600,240.000 311.600 C 240.220 311.600,240.400 311.330,240.400 311.000 C 240.400 310.670,240.220 310.400,240.000 310.400 C 239.780 310.400,239.600 310.670,239.600 311.000 M231.467 314.667 C 230.981 315.153,231.190 315.579,231.800 315.345 C 232.130 315.218,232.400 314.954,232.400 314.757 C 232.400 314.338,231.849 314.284,231.467 314.667 M226.400 316.787 C 226.400 317.001,226.700 317.060,227.066 316.919 C 227.549 316.734,227.642 316.809,227.404 317.194 C 227.186 317.546,227.231 317.628,227.538 317.438 C 228.268 316.987,228.077 316.400,227.200 316.400 C 226.760 316.400,226.400 316.574,226.400 316.787 M224.400 317.965 C 224.400 318.371,225.423 318.311,225.855 317.878 C 226.008 317.725,225.743 317.600,225.267 317.600 C 224.790 317.600,224.400 317.764,224.400 317.965 M218.400 321.033 C 218.400 321.382,218.614 321.595,218.875 321.508 C 219.617 321.261,219.740 320.400,219.033 320.400 C 218.685 320.400,218.400 320.685,218.400 321.033 M197.443 331.033 C 197.293 331.423,197.382 331.606,197.675 331.508 C 198.273 331.309,198.602 330.400,198.076 330.400 C 197.861 330.400,197.576 330.685,197.443 331.033 M184.400 337.049 C 184.400 337.580,184.509 337.608,185.000 337.200 C 185.330 336.926,185.600 336.634,185.600 336.551 C 185.600 336.468,185.330 336.400,185.000 336.400 C 184.670 336.400,184.400 336.692,184.400 337.049 M180.400 339.033 C 180.400 339.740,181.261 339.617,181.508 338.875 C 181.595 338.614,181.382 338.400,181.033 338.400 C 180.685 338.400,180.400 338.685,180.400 339.033 M167.481 344.933 C 167.368 345.227,167.529 345.467,167.838 345.467 C 168.147 345.467,168.400 345.227,168.400 344.933 C 168.400 344.640,168.239 344.400,168.043 344.400 C 167.846 344.400,167.593 344.640,167.481 344.933 " stroke="none" fill="#ffffff" fill-rule="evenodd"></path><path id="path2" d="" stroke="none" fill="#555500" fill-rule="evenodd"></path><path id="path3" d="M168.893 164.286 C 168.488 164.434,168.390 171.739,168.409 200.475 L 168.432 236.479 169.512 236.208 C 170.106 236.059,170.684 235.803,170.796 235.640 C 170.908 235.477,172.080 234.558,173.400 233.597 C 174.720 232.636,175.860 231.704,175.933 231.525 C 176.007 231.346,176.277 231.200,176.533 231.199 C 176.790 231.199,177.810 230.479,178.800 229.600 C 179.790 228.721,180.800 228.001,181.044 228.001 C 181.288 228.000,182.156 227.370,182.973 226.600 C 183.789 225.830,184.687 225.200,184.969 225.200 C 185.250 225.200,185.885 224.672,186.379 224.027 C 186.874 223.382,187.915 222.552,188.693 222.183 C 189.471 221.814,191.118 220.753,192.354 219.825 C 200.570 213.658,208.412 208.000,208.743 208.000 C 208.958 208.000,209.193 207.850,209.267 207.667 C 209.340 207.483,210.840 206.274,212.600 204.979 C 219.047 200.235,219.090 201.186,212.200 196.214 C 209.780 194.467,207.710 192.936,207.600 192.810 C 207.490 192.684,206.880 192.226,206.244 191.791 C 204.833 190.826,204.339 190.469,197.173 185.236 C 194.037 182.945,191.180 180.785,190.824 180.436 C 190.468 180.086,189.509 179.350,188.691 178.800 C 187.874 178.250,187.204 177.665,187.203 177.500 C 187.201 177.335,186.939 177.200,186.620 177.200 C 186.301 177.200,185.896 176.966,185.720 176.680 C 185.544 176.394,184.770 175.731,184.000 175.208 C 183.230 174.684,182.330 174.019,182.000 173.729 C 180.438 172.358,177.669 170.371,176.467 169.757 C 175.733 169.383,174.754 168.565,174.291 167.939 C 173.828 167.312,173.138 166.800,172.758 166.800 C 172.378 166.800,172.005 166.665,171.929 166.500 C 171.587 165.751,169.348 164.119,168.893 164.286 " stroke="none" fill="#1d7a44" fill-rule="evenodd"></path><path id="path4" d="M168.267 163.867 C 168.120 164.013,168.000 180.489,168.000 200.480 L 168.000 236.826 168.879 237.151 C 169.577 237.409,169.982 237.231,170.841 236.291 C 171.436 235.639,172.119 235.226,172.357 235.374 C 172.627 235.540,172.701 235.407,172.553 235.021 C 172.375 234.558,172.579 234.400,173.357 234.400 C 173.931 234.400,174.400 234.207,174.400 233.971 C 174.400 233.315,175.462 232.400,176.224 232.400 C 176.599 232.400,177.542 231.725,178.319 230.901 C 179.163 230.006,180.029 229.452,180.467 229.526 C 180.918 229.603,181.200 229.410,181.200 229.025 C 181.200 228.681,181.470 228.400,181.800 228.400 C 182.130 228.400,182.400 228.130,182.400 227.800 C 182.400 227.470,182.670 227.200,183.000 227.200 C 183.330 227.200,183.600 227.020,183.600 226.800 C 183.600 226.580,183.879 226.400,184.219 226.400 C 184.560 226.400,185.255 225.950,185.765 225.400 C 186.275 224.850,186.896 224.400,187.146 224.400 C 187.396 224.400,187.600 224.234,187.600 224.031 C 187.600 222.778,190.494 222.724,191.618 223.956 C 192.243 224.640,192.875 225.200,193.022 225.200 C 193.327 225.200,198.731 229.082,199.529 229.875 C 199.819 230.164,200.230 230.400,200.442 230.400 C 200.654 230.400,201.457 231.030,202.227 231.800 C 202.997 232.570,203.809 233.200,204.031 233.200 C 204.253 233.200,204.920 233.650,205.513 234.200 C 206.107 234.750,206.799 235.200,207.053 235.200 C 207.307 235.200,207.618 235.470,207.745 235.800 C 207.871 236.130,208.240 236.400,208.565 236.400 C 208.889 236.400,209.390 236.727,209.677 237.127 C 209.965 237.527,210.825 238.202,211.588 238.627 C 212.351 239.052,213.341 239.727,213.788 240.127 C 214.235 240.526,215.185 241.216,215.900 241.659 C 216.615 242.102,217.200 242.600,217.200 242.765 C 217.200 242.930,217.695 243.318,218.300 243.627 C 219.340 244.158,220.299 244.894,222.041 246.500 C 222.458 246.885,223.055 247.200,223.367 247.200 C 223.678 247.200,223.993 247.346,224.067 247.525 C 224.140 247.704,225.280 248.636,226.600 249.597 C 227.920 250.558,229.090 251.460,229.200 251.602 C 229.310 251.744,229.985 252.201,230.700 252.616 C 231.415 253.032,232.000 253.514,232.000 253.686 C 232.000 253.859,232.188 254.000,232.417 254.000 C 232.646 254.000,233.841 254.765,235.072 255.700 C 236.302 256.635,237.710 257.670,238.201 258.000 C 239.297 258.738,243.725 262.112,244.000 262.419 C 244.110 262.542,244.830 263.026,245.600 263.495 C 248.599 265.320,249.583 266.800,247.800 266.800 C 247.159 266.800,246.800 267.025,246.800 267.427 C 246.800 267.859,246.566 267.980,246.047 267.815 C 245.572 267.664,245.208 267.802,245.060 268.188 C 244.931 268.525,244.479 268.800,244.055 268.800 C 243.632 268.800,243.182 269.070,243.055 269.400 C 242.929 269.730,242.380 270.000,241.836 270.000 C 241.292 270.000,240.736 270.180,240.600 270.400 C 240.464 270.620,240.003 270.800,239.576 270.800 C 239.149 270.800,238.800 270.945,238.800 271.123 C 238.800 271.464,236.024 272.800,235.315 272.800 C 235.085 272.800,234.664 273.082,234.379 273.426 C 234.049 273.823,233.520 273.966,232.930 273.818 C 232.262 273.651,232.000 273.756,232.000 274.192 C 232.000 274.567,231.632 274.800,231.043 274.800 C 230.516 274.800,229.975 275.089,229.839 275.442 C 229.696 275.816,229.339 275.985,228.981 275.848 C 228.635 275.715,228.271 275.871,228.142 276.207 C 228.017 276.533,227.503 276.800,227.000 276.800 C 226.497 276.800,225.982 277.070,225.855 277.400 C 225.729 277.730,225.259 278.000,224.813 278.000 C 224.366 278.000,224.000 278.180,224.000 278.400 C 224.000 278.620,223.460 278.800,222.800 278.800 C 222.140 278.800,221.600 278.945,221.600 279.123 C 221.600 279.301,220.835 279.776,219.900 280.178 C 218.965 280.581,217.891 281.178,217.513 281.505 C 217.135 281.833,216.460 282.004,216.013 281.888 C 215.480 281.748,215.200 281.869,215.200 282.237 C 215.200 282.564,214.799 282.800,214.243 282.800 C 213.716 282.800,213.174 283.090,213.038 283.445 C 212.884 283.846,212.498 284.014,212.021 283.890 C 211.578 283.774,211.161 283.924,211.038 284.244 C 210.921 284.550,210.479 284.800,210.055 284.800 C 209.632 284.800,209.182 285.070,209.055 285.400 C 208.929 285.730,208.369 286.000,207.813 286.000 C 207.256 286.000,206.800 286.180,206.800 286.400 C 206.800 286.620,206.369 286.800,205.843 286.800 C 205.316 286.800,204.782 287.070,204.655 287.400 C 204.529 287.730,204.059 288.000,203.613 288.000 C 203.166 288.000,202.800 288.180,202.800 288.400 C 202.800 288.620,202.279 288.800,201.643 288.800 C 200.983 288.800,200.387 289.058,200.255 289.400 C 200.129 289.730,199.659 290.000,199.213 290.000 C 198.766 290.000,198.400 290.180,198.400 290.400 C 198.400 290.620,197.860 290.800,197.200 290.800 C 196.364 290.800,196.000 290.995,196.000 291.443 C 196.000 291.930,195.756 292.026,195.000 291.836 C 194.262 291.651,194.000 291.744,194.000 292.192 C 194.000 292.567,193.632 292.800,193.043 292.800 C 192.516 292.800,191.982 293.070,191.855 293.400 C 191.729 293.730,191.259 294.000,190.813 294.000 C 190.366 294.000,190.000 294.180,190.000 294.400 C 190.000 294.620,189.569 294.800,189.043 294.800 C 188.516 294.800,187.982 295.070,187.855 295.400 C 187.729 295.730,187.259 296.000,186.813 296.000 C 186.366 296.000,186.000 296.180,186.000 296.400 C 186.000 296.620,185.389 296.800,184.643 296.800 C 183.805 296.800,183.197 297.030,183.055 297.400 C 182.929 297.730,182.549 298.000,182.213 298.000 C 181.876 298.000,181.600 298.180,181.600 298.400 C 181.600 298.620,181.079 298.800,180.443 298.800 C 179.783 298.800,179.187 299.058,179.055 299.400 C 178.929 299.730,178.459 300.000,178.013 300.000 C 177.566 300.000,177.200 300.180,177.200 300.400 C 177.200 300.620,176.769 300.800,176.243 300.800 C 175.716 300.800,175.182 301.070,175.055 301.400 C 174.929 301.730,174.459 302.000,174.013 302.000 C 173.566 302.000,173.200 302.180,173.200 302.400 C 173.200 302.620,172.769 302.800,172.243 302.800 C 171.716 302.800,171.182 303.070,171.055 303.400 C 170.929 303.730,170.468 304.000,170.033 304.000 C 169.597 304.000,168.434 304.544,167.449 305.209 C 166.463 305.874,164.609 306.878,163.329 307.441 C 162.048 308.003,160.640 308.622,160.200 308.815 C 159.760 309.009,156.700 310.451,153.400 312.021 C 150.100 313.591,146.680 315.166,145.800 315.520 C 142.093 317.013,137.065 321.045,135.949 323.420 C 135.508 324.357,134.800 325.438,134.374 325.823 C 133.948 326.209,133.600 326.946,133.600 327.462 C 133.600 327.978,133.420 328.400,133.200 328.400 C 132.980 328.400,132.800 329.131,132.800 330.024 C 132.800 331.004,132.958 331.549,133.200 331.400 C 133.457 331.241,133.600 332.663,133.600 335.376 C 133.600 337.925,133.759 339.600,134.000 339.600 C 134.220 339.600,134.400 339.804,134.400 340.054 C 134.400 340.304,134.805 340.900,135.300 341.379 C 136.427 342.468,139.754 346.405,139.933 346.861 C 140.007 347.047,140.417 347.200,140.846 347.200 C 141.274 347.200,141.729 347.470,141.855 347.800 C 141.982 348.130,142.426 348.400,142.843 348.400 C 143.259 348.400,143.600 348.670,143.600 349.000 C 143.600 349.419,144.022 349.600,145.000 349.600 C 145.770 349.600,146.400 349.780,146.400 350.000 C 146.400 350.242,148.133 350.400,150.800 350.400 C 153.467 350.400,155.200 350.242,155.200 350.000 C 155.200 349.780,155.824 349.600,156.587 349.600 C 157.656 349.600,157.922 349.462,157.745 349.000 C 157.572 348.549,157.812 348.400,158.714 348.400 C 159.436 348.400,160.011 348.150,160.155 347.772 C 160.315 347.355,160.665 347.230,161.198 347.399 C 161.768 347.580,162.000 347.472,162.000 347.027 C 162.000 346.632,162.355 346.400,162.957 346.400 C 163.484 346.400,164.018 346.130,164.145 345.800 C 164.271 345.470,164.721 345.200,165.145 345.200 C 165.568 345.200,166.025 344.911,166.161 344.558 C 166.299 344.199,166.664 344.016,166.992 344.142 C 167.314 344.265,167.839 344.104,168.160 343.783 C 168.481 343.462,169.116 343.200,169.571 343.200 C 170.027 343.200,170.400 343.055,170.400 342.877 C 170.400 342.484,173.226 341.200,174.092 341.200 C 174.434 341.200,174.826 340.910,174.962 340.555 C 175.116 340.154,175.502 339.986,175.979 340.110 C 176.422 340.226,176.839 340.076,176.962 339.756 C 177.079 339.450,177.546 339.200,178.000 339.200 C 178.454 339.200,178.934 338.915,179.068 338.568 C 179.209 338.199,179.610 338.014,180.029 338.124 C 180.425 338.227,180.844 338.061,180.962 337.756 C 181.079 337.450,181.519 337.200,181.938 337.200 C 182.358 337.200,182.926 336.930,183.200 336.600 C 183.474 336.270,184.036 336.000,184.449 336.000 C 184.862 336.000,185.200 335.820,185.200 335.600 C 185.200 335.380,185.650 335.200,186.200 335.200 C 186.750 335.200,187.200 335.055,187.200 334.877 C 187.200 334.478,190.031 333.200,190.914 333.200 C 191.269 333.200,192.044 332.750,192.638 332.200 C 193.244 331.638,194.198 331.200,194.816 331.200 C 195.455 331.200,196.017 330.932,196.161 330.558 C 196.304 330.184,196.661 330.015,197.019 330.152 C 197.365 330.285,197.729 330.129,197.858 329.793 C 197.983 329.467,198.497 329.200,199.000 329.200 C 199.503 329.200,200.018 328.930,200.145 328.600 C 200.271 328.270,200.741 328.000,201.187 328.000 C 201.634 328.000,202.000 327.820,202.000 327.600 C 202.000 327.380,202.450 327.200,203.000 327.200 C 203.550 327.200,204.000 327.020,204.000 326.800 C 204.000 326.580,204.347 326.400,204.771 326.400 C 205.196 326.400,205.813 326.130,206.143 325.800 C 206.473 325.470,207.039 325.200,207.400 325.200 C 207.761 325.200,208.341 324.916,208.688 324.569 C 209.035 324.222,209.652 324.025,210.060 324.131 C 210.521 324.252,210.800 324.113,210.800 323.763 C 210.800 323.429,211.207 323.200,211.800 323.200 C 212.350 323.200,212.800 323.033,212.800 322.829 C 212.800 322.347,215.105 321.200,216.074 321.200 C 216.487 321.200,216.929 320.930,217.055 320.600 C 217.182 320.270,217.616 320.000,218.019 320.000 C 218.423 320.000,218.864 319.820,219.000 319.600 C 219.136 319.380,219.597 319.200,220.024 319.200 C 220.451 319.200,220.800 319.034,220.800 318.832 C 220.800 318.629,221.338 318.345,221.995 318.201 C 222.653 318.057,223.294 317.772,223.419 317.569 C 223.545 317.366,223.982 317.200,224.390 317.200 C 224.799 317.200,225.199 317.003,225.279 316.763 C 225.359 316.523,225.912 316.298,226.508 316.263 C 227.103 316.228,227.677 315.975,227.783 315.700 C 227.888 315.425,228.319 315.200,228.738 315.200 C 229.158 315.200,229.729 314.926,230.007 314.591 C 230.299 314.239,230.827 314.082,231.256 314.218 C 231.765 314.379,232.000 314.256,232.000 313.827 C 232.000 313.432,232.355 313.200,232.957 313.200 C 233.484 313.200,234.023 312.918,234.155 312.572 C 234.315 312.155,234.665 312.030,235.198 312.199 C 235.768 312.380,236.000 312.272,236.000 311.827 C 236.000 311.432,236.355 311.200,236.957 311.200 C 237.484 311.200,238.018 310.930,238.145 310.600 C 238.271 310.270,238.653 310.000,238.993 310.000 C 239.618 310.000,239.954 309.861,242.301 308.634 C 243.016 308.260,243.793 308.072,244.027 308.217 C 244.262 308.362,244.685 308.163,244.969 307.775 C 245.262 307.374,245.751 307.172,246.103 307.307 C 246.502 307.461,246.793 307.271,246.923 306.772 C 247.042 306.319,247.472 306.000,247.963 306.000 C 248.423 306.000,248.800 305.820,248.800 305.600 C 248.800 305.380,249.231 305.200,249.757 305.200 C 250.284 305.200,250.826 304.910,250.962 304.555 C 251.116 304.154,251.502 303.986,251.979 304.110 C 252.422 304.226,252.839 304.076,252.962 303.756 C 253.079 303.450,253.530 303.200,253.964 303.200 C 254.398 303.200,254.864 303.020,255.000 302.800 C 255.136 302.580,255.602 302.400,256.036 302.400 C 256.470 302.400,256.929 302.130,257.055 301.800 C 257.182 301.470,257.566 301.200,257.908 301.200 C 258.774 301.200,261.600 299.916,261.600 299.523 C 261.600 299.345,262.050 299.200,262.600 299.200 C 263.150 299.200,263.601 299.065,263.603 298.900 C 263.606 298.489,265.925 297.200,266.661 297.200 C 266.989 297.200,267.511 296.946,267.822 296.636 C 268.132 296.325,268.749 296.166,269.193 296.282 C 269.773 296.434,270.000 296.298,270.000 295.800 C 270.000 295.282,270.245 295.154,270.969 295.292 C 271.684 295.429,271.992 295.274,272.141 294.703 C 272.287 294.146,272.564 293.998,273.125 294.176 C 273.630 294.336,273.988 294.208,274.140 293.812 C 274.269 293.475,274.741 293.200,275.187 293.200 C 275.634 293.200,276.000 293.020,276.000 292.800 C 276.000 292.580,276.441 292.400,276.980 292.400 C 277.519 292.400,278.126 292.105,278.328 291.743 C 278.580 291.292,279.032 291.151,279.771 291.292 C 280.572 291.445,280.793 291.358,280.636 290.949 C 280.482 290.549,280.801 290.400,281.813 290.400 C 282.709 290.400,283.165 290.223,283.100 289.900 C 283.036 289.580,283.409 289.429,284.135 289.480 C 284.981 289.540,285.214 289.413,285.048 288.980 C 284.884 288.554,285.139 288.400,286.013 288.400 C 286.666 288.400,287.200 288.220,287.200 288.000 C 287.200 287.780,287.759 287.600,288.443 287.600 C 289.383 287.600,289.630 287.454,289.455 287.000 C 289.282 286.548,289.524 286.400,290.436 286.400 C 291.142 286.400,291.544 286.233,291.400 286.000 C 291.264 285.780,291.433 285.600,291.776 285.600 C 292.119 285.600,292.400 285.330,292.400 285.000 C 292.400 284.670,292.718 284.400,293.106 284.400 C 293.495 284.400,294.530 283.561,295.406 282.535 C 296.283 281.509,297.315 280.389,297.700 280.046 C 298.085 279.703,298.400 279.192,298.400 278.911 C 298.400 278.630,298.580 278.400,298.800 278.400 C 299.020 278.400,299.200 278.124,299.200 277.787 C 299.200 277.451,299.470 277.071,299.800 276.945 C 300.170 276.803,300.400 276.195,300.400 275.357 C 300.400 274.417,300.585 274.000,301.000 274.000 C 301.500 274.000,301.595 273.247,301.568 269.500 C 301.551 267.025,301.446 265.226,301.334 265.502 C 300.977 266.389,300.400 265.596,300.400 264.219 C 300.400 263.435,300.166 262.796,299.831 262.667 C 299.483 262.534,299.346 262.129,299.478 261.624 C 299.630 261.043,299.503 260.800,299.047 260.800 C 298.592 260.800,298.400 260.437,298.400 259.576 C 298.400 258.863,298.233 258.456,298.000 258.600 C 297.780 258.736,297.600 258.567,297.600 258.224 C 297.600 257.881,297.407 257.600,297.171 257.600 C 296.618 257.600,295.600 256.582,295.600 256.029 C 295.600 255.793,295.238 255.600,294.795 255.600 C 293.795 255.600,292.476 254.879,291.321 253.700 C 290.835 253.205,290.160 252.800,289.819 252.800 C 289.479 252.800,289.200 252.620,289.200 252.400 C 289.200 252.180,289.012 252.000,288.783 252.000 C 288.553 252.000,287.880 251.550,287.287 251.000 C 286.693 250.450,286.063 250.000,285.885 250.000 C 285.707 250.000,285.145 249.550,284.635 249.000 C 284.125 248.450,283.582 248.000,283.427 248.000 C 283.024 248.000,280.259 245.898,279.880 245.302 C 279.704 245.026,279.327 244.800,279.041 244.800 C 278.756 244.800,277.874 244.170,277.081 243.400 C 276.288 242.630,275.466 242.000,275.254 242.000 C 274.888 242.000,273.639 241.053,271.958 239.500 C 271.541 239.115,271.090 238.800,270.956 238.800 C 270.667 238.800,265.235 234.884,264.471 234.125 C 264.181 233.836,263.770 233.600,263.558 233.600 C 263.346 233.600,262.543 232.970,261.773 232.200 C 261.003 231.430,260.109 230.800,259.787 230.800 C 259.464 230.800,259.200 230.664,259.200 230.497 C 259.200 230.330,258.030 229.400,256.600 228.431 C 255.170 227.461,254.000 226.517,254.000 226.334 C 254.000 226.150,253.817 226.000,253.594 226.000 C 253.109 226.000,247.801 222.229,246.445 220.921 C 245.920 220.414,245.335 220.000,245.145 220.000 C 244.955 220.000,244.458 219.685,244.041 219.300 C 241.898 217.325,241.264 216.800,241.024 216.800 C 240.566 216.800,236.000 213.457,236.000 213.121 C 236.000 212.945,235.730 212.800,235.400 212.800 C 235.070 212.800,234.800 212.620,234.800 212.400 C 234.800 212.180,234.617 212.000,234.394 212.000 C 233.947 212.000,228.439 208.109,227.800 207.341 C 227.580 207.077,226.846 206.532,226.168 206.130 C 224.220 204.976,219.664 201.534,218.053 200.000 C 217.244 199.230,214.809 197.340,212.642 195.800 C 210.475 194.260,208.499 192.815,208.251 192.589 C 208.003 192.363,205.190 190.301,202.000 188.008 C 194.496 182.612,189.623 178.897,188.519 177.731 C 188.035 177.219,187.429 176.800,187.172 176.800 C 186.916 176.800,186.008 176.080,185.154 175.200 C 184.300 174.320,183.331 173.600,183.000 173.600 C 182.670 173.600,182.400 173.420,182.400 173.200 C 182.400 172.980,182.130 172.800,181.800 172.800 C 181.470 172.800,181.200 172.530,181.200 172.200 C 181.200 171.870,180.880 171.600,180.489 171.600 C 179.709 171.600,177.200 169.491,177.200 168.835 C 177.200 168.610,176.928 168.529,176.596 168.657 C 176.218 168.802,175.396 168.274,174.397 167.244 C 173.519 166.340,172.518 165.600,172.172 165.600 C 171.453 165.600,170.400 164.666,170.400 164.029 C 170.400 163.563,168.700 163.433,168.267 163.867 M171.929 166.500 C 172.005 166.665,172.378 166.800,172.758 166.800 C 173.138 166.800,173.828 167.312,174.291 167.939 C 174.754 168.565,175.733 169.383,176.467 169.757 C 177.669 170.371,180.438 172.358,182.000 173.729 C 182.330 174.019,183.230 174.684,184.000 175.208 C 184.770 175.731,185.544 176.394,185.720 176.680 C 185.896 176.966,186.301 177.200,186.620 177.200 C 186.939 177.200,187.201 177.335,187.203 177.500 C 187.204 177.665,187.874 178.250,188.691 178.800 C 189.509 179.350,190.468 180.086,190.824 180.436 C 191.180 180.785,194.037 182.945,197.173 185.236 C 204.339 190.469,204.833 190.826,206.244 191.791 C 206.880 192.226,207.490 192.684,207.600 192.810 C 207.710 192.936,209.780 194.467,212.200 196.214 C 219.090 201.186,219.047 200.235,212.600 204.979 C 210.840 206.274,209.340 207.483,209.267 207.667 C 209.193 207.850,208.958 208.000,208.743 208.000 C 208.412 208.000,200.570 213.658,192.354 219.825 C 191.118 220.753,189.471 221.814,188.693 222.183 C 187.915 222.552,186.874 223.382,186.379 224.027 C 185.885 224.672,185.250 225.200,184.969 225.200 C 184.687 225.200,183.789 225.830,182.973 226.600 C 182.156 227.370,181.288 228.000,181.044 228.001 C 180.800 228.001,179.790 228.721,178.800 229.600 C 177.810 230.479,176.790 231.199,176.533 231.199 C 176.277 231.200,176.007 231.346,175.933 231.525 C 175.860 231.704,174.720 232.636,173.400 233.597 C 172.080 234.558,170.908 235.477,170.796 235.640 C 170.684 235.803,170.106 236.059,169.512 236.208 L 168.432 236.479 168.409 200.475 C 168.390 171.739,168.488 164.434,168.893 164.286 C 169.348 164.119,171.587 165.751,171.929 166.500 " stroke="none" fill="#50b13e" fill-rule="evenodd"></path><path id="path5" d="M159.434 53.743 C 159.572 54.105,160.071 54.386,160.543 54.368 C 161.128 54.347,161.210 54.266,160.800 54.115 C 160.470 53.993,159.971 53.711,159.691 53.490 C 159.310 53.188,159.245 53.252,159.434 53.743 M132.528 70.000 C 132.528 71.430,132.601 72.015,132.689 71.300 C 132.778 70.585,132.778 69.415,132.689 68.700 C 132.601 67.985,132.528 68.570,132.528 70.000 M132.579 94.600 C 132.579 101.860,132.633 104.886,132.699 101.325 C 132.765 97.764,132.766 91.824,132.699 88.125 C 132.633 84.426,132.579 87.340,132.579 94.600 M132.580 125.600 C 132.580 133.410,132.634 136.605,132.699 132.700 C 132.765 128.795,132.765 122.405,132.699 118.500 C 132.634 114.595,132.580 117.790,132.580 125.600 M132.537 164.600 C 132.539 166.360,132.609 167.030,132.693 166.089 C 132.778 165.149,132.777 163.709,132.691 162.889 C 132.605 162.070,132.536 162.840,132.537 164.600 M167.693 170.800 C 167.693 171.570,167.775 171.885,167.876 171.500 C 167.976 171.115,167.976 170.485,167.876 170.100 C 167.775 169.715,167.693 170.030,167.693 170.800 M193.469 181.732 C 195.980 183.800,199.200 186.003,199.200 185.652 C 199.200 185.447,198.567 184.906,197.793 184.449 C 197.020 183.993,196.165 183.438,195.893 183.216 C 193.784 181.491,192.846 180.800,192.612 180.800 C 192.461 180.800,192.847 181.219,193.469 181.732 M132.555 188.600 C 132.556 191.460,132.620 192.578,132.697 191.083 C 132.774 189.589,132.774 187.249,132.696 185.883 C 132.618 184.518,132.555 185.740,132.555 188.600 M202.400 188.146 C 202.400 188.256,202.940 188.730,203.600 189.200 C 204.260 189.670,204.800 189.964,204.800 189.854 C 204.800 189.744,204.260 189.270,203.600 188.800 C 202.940 188.330,202.400 188.036,202.400 188.146 M205.200 190.146 C 205.200 190.256,205.740 190.730,206.400 191.200 C 207.060 191.670,207.600 191.964,207.600 191.854 C 207.600 191.744,207.060 191.270,206.400 190.800 C 205.740 190.330,205.200 190.036,205.200 190.146 M209.600 193.600 C 210.150 194.030,210.759 194.386,210.954 194.391 C 211.149 194.396,210.850 194.040,210.291 193.600 C 209.731 193.160,209.122 192.804,208.937 192.809 C 208.752 192.814,209.050 193.170,209.600 193.600 M211.600 194.946 C 211.600 195.056,212.140 195.530,212.800 196.000 C 213.460 196.470,214.000 196.764,214.000 196.654 C 214.000 196.544,213.460 196.070,212.800 195.600 C 212.140 195.130,211.600 194.836,211.600 194.946 M216.000 198.111 C 216.000 198.187,216.585 198.678,217.300 199.201 C 218.104 199.790,218.384 199.887,218.033 199.455 C 217.500 198.799,216.000 197.807,216.000 198.111 M132.563 210.000 C 132.563 213.630,132.623 215.115,132.698 213.300 C 132.772 211.485,132.772 208.515,132.698 206.700 C 132.623 204.885,132.563 206.370,132.563 210.000 M164.042 306.612 C 162.855 307.165,161.982 307.715,162.102 307.835 C 162.330 308.064,166.400 306.130,166.400 305.793 C 166.400 305.514,166.404 305.513,164.042 306.612 M158.900 308.996 C 158.185 309.307,157.600 309.656,157.600 309.772 C 157.600 310.019,159.626 309.196,160.180 308.724 C 160.705 308.276,160.414 308.338,158.900 308.996 M154.000 311.400 C 153.450 311.714,153.180 311.972,153.400 311.972 C 153.620 311.972,154.250 311.714,154.800 311.400 C 155.350 311.086,155.620 310.828,155.400 310.828 C 155.180 310.828,154.550 311.086,154.000 311.400 M147.200 314.600 C 146.650 314.914,146.380 315.172,146.600 315.172 C 146.820 315.172,147.450 314.914,148.000 314.600 C 148.550 314.286,148.820 314.028,148.600 314.028 C 148.380 314.028,147.750 314.286,147.200 314.600 M143.000 316.539 C 141.282 317.529,138.526 319.568,137.977 320.255 C 137.571 320.763,137.757 320.708,138.600 320.068 C 139.260 319.568,140.745 318.533,141.900 317.767 C 144.214 316.234,144.942 315.421,143.000 316.539 M132.528 320.800 C 132.528 322.230,132.601 322.815,132.689 322.100 C 132.778 321.385,132.778 320.215,132.689 319.500 C 132.601 318.785,132.528 319.370,132.528 320.800 M134.693 324.803 C 134.118 325.681,133.717 326.400,133.803 326.400 C 134.113 326.400,136.107 323.574,135.925 323.392 C 135.823 323.289,135.268 323.924,134.693 324.803 " stroke="none" fill="#b6b624" fill-rule="evenodd"></path><path id="path6" d="M132.901 74.200 C 132.905 75.080,132.987 75.393,133.083 74.895 C 133.179 74.398,133.175 73.678,133.075 73.295 C 132.975 72.913,132.896 73.320,132.901 74.200 M132.537 142.600 C 132.539 144.360,132.609 145.030,132.693 144.089 C 132.778 143.149,132.777 141.709,132.691 140.889 C 132.605 140.070,132.536 140.840,132.537 142.600 M168.027 163.149 C 167.792 163.588,167.608 164.184,167.618 164.474 C 167.628 164.763,167.883 164.460,168.186 163.800 C 168.488 163.140,168.750 162.825,168.768 163.100 C 168.785 163.375,168.995 163.600,169.233 163.600 C 169.777 163.600,169.507 162.702,168.902 162.501 C 168.656 162.419,168.262 162.710,168.027 163.149 M170.907 164.964 C 171.664 165.721,172.535 165.806,172.302 165.100 C 172.211 164.825,171.717 164.539,171.204 164.464 C 170.350 164.339,170.325 164.382,170.907 164.964 M167.714 167.800 C 167.717 168.900,167.795 169.303,167.887 168.695 C 167.979 168.086,167.977 167.186,167.882 166.695 C 167.787 166.203,167.711 166.700,167.714 167.800 M175.343 168.200 C 175.673 168.530,176.130 168.800,176.359 168.800 C 176.588 168.800,176.671 168.530,176.545 168.200 C 176.418 167.870,175.961 167.600,175.529 167.600 C 174.830 167.600,174.810 167.667,175.343 168.200 M178.000 169.784 C 178.000 170.090,179.726 171.600,180.075 171.600 C 180.254 171.600,180.400 171.330,180.400 171.000 C 180.400 170.667,180.044 170.400,179.600 170.400 C 179.160 170.400,178.800 170.220,178.800 170.000 C 178.800 169.780,178.620 169.600,178.400 169.600 C 178.180 169.600,178.000 169.683,178.000 169.784 M181.206 172.100 C 181.203 172.485,181.470 172.800,181.800 172.800 C 182.130 172.800,182.400 172.980,182.400 173.200 C 182.400 173.420,182.670 173.600,183.000 173.600 C 183.330 173.600,183.600 173.426,183.600 173.214 C 183.600 172.754,182.003 171.831,181.994 172.286 C 181.991 172.459,181.813 172.330,181.600 172.000 C 181.269 171.487,181.211 171.502,181.206 172.100 M167.790 200.600 C 167.790 216.440,167.839 222.862,167.900 214.871 C 167.960 206.879,167.960 193.919,167.900 186.071 C 167.839 178.222,167.790 184.760,167.790 200.600 M184.032 173.760 C 183.989 174.246,186.649 176.800,187.199 176.800 C 187.441 176.800,188.081 177.278,188.623 177.863 C 189.165 178.447,189.714 178.819,189.844 178.689 C 190.205 178.328,189.625 177.600,188.976 177.600 C 188.659 177.600,188.400 177.407,188.400 177.171 C 188.400 176.551,187.354 175.600,186.671 175.600 C 186.349 175.600,185.982 175.330,185.855 175.000 C 185.729 174.670,185.364 174.400,185.046 174.400 C 184.727 174.400,184.376 174.175,184.265 173.900 C 184.154 173.625,184.049 173.562,184.032 173.760 M191.200 179.800 C 191.717 180.350,192.331 180.800,192.566 180.800 C 192.800 180.800,192.507 180.350,191.913 179.800 C 191.320 179.250,190.706 178.800,190.548 178.800 C 190.390 178.800,190.683 179.250,191.200 179.800 M194.200 181.823 C 196.411 183.660,196.400 183.653,196.400 183.226 C 196.400 183.003,195.860 182.541,195.200 182.200 C 194.540 181.859,194.000 181.404,194.000 181.190 C 194.000 180.975,193.775 180.806,193.500 180.813 C 193.225 180.820,193.540 181.274,194.200 181.823 M215.551 197.494 C 216.529 198.220,218.262 199.891,219.038 200.855 C 219.554 201.497,224.397 205.081,226.168 206.130 C 226.846 206.532,227.580 207.077,227.800 207.341 C 228.439 208.109,233.947 212.000,234.394 212.000 C 234.617 212.000,234.800 212.180,234.800 212.400 C 234.800 212.620,235.051 212.800,235.357 212.800 C 235.664 212.800,236.018 213.070,236.145 213.400 C 236.271 213.730,236.568 214.000,236.805 214.000 C 237.041 214.000,237.702 214.433,238.272 214.962 C 238.842 215.490,239.779 216.163,240.354 216.456 C 241.305 216.940,241.777 217.298,243.974 219.200 C 245.207 220.267,246.400 220.844,246.400 220.373 C 246.400 219.616,244.096 217.600,243.231 217.600 C 242.774 217.600,242.400 217.407,242.400 217.171 C 242.400 216.638,241.390 215.600,240.871 215.600 C 240.659 215.600,240.382 215.330,240.255 215.000 C 240.129 214.670,239.659 214.400,239.213 214.400 C 238.766 214.400,238.400 214.220,238.400 214.000 C 238.400 213.780,238.130 213.600,237.800 213.600 C 237.470 213.600,237.200 213.407,237.200 213.171 C 237.200 212.466,236.114 211.600,235.229 211.600 C 234.773 211.600,234.400 211.407,234.400 211.171 C 234.400 210.618,233.382 209.600,232.829 209.600 C 232.593 209.600,232.400 209.423,232.400 209.208 C 232.400 208.992,231.951 208.703,231.403 208.565 C 230.854 208.427,230.505 208.154,230.626 207.957 C 230.748 207.761,230.586 207.600,230.266 207.600 C 229.947 207.600,229.582 207.330,229.455 207.000 C 229.329 206.670,228.859 206.400,228.413 206.400 C 227.966 206.400,227.600 206.220,227.600 206.000 C 227.600 205.780,227.330 205.600,227.000 205.600 C 226.670 205.600,226.400 205.330,226.400 205.000 C 226.400 204.627,226.022 204.400,225.400 204.400 C 224.850 204.400,224.400 204.220,224.400 204.000 C 224.400 203.780,224.130 203.600,223.800 203.600 C 223.470 203.600,223.200 203.448,223.200 203.263 C 223.200 203.078,222.570 202.587,221.800 202.172 C 221.030 201.757,220.400 201.279,220.400 201.109 C 220.400 200.939,220.160 200.800,219.868 200.800 C 219.575 200.800,219.114 200.387,218.844 199.883 C 218.575 199.379,217.509 198.476,216.477 197.877 C 215.445 197.278,215.028 197.106,215.551 197.494 M247.198 220.801 C 246.818 221.036,246.748 221.291,247.003 221.515 C 248.192 222.560,253.248 226.000,253.594 226.000 C 253.817 226.000,254.000 226.150,254.000 226.334 C 254.000 226.517,255.170 227.461,256.600 228.431 C 258.030 229.400,259.200 230.330,259.200 230.497 C 259.200 230.664,259.464 230.800,259.787 230.800 C 260.109 230.800,261.003 231.430,261.773 232.200 C 262.543 232.970,263.346 233.600,263.558 233.600 C 263.770 233.600,264.181 233.836,264.471 234.125 C 265.184 234.833,270.657 238.800,270.922 238.800 C 271.134 238.800,272.649 240.014,274.042 241.300 C 274.459 241.685,274.989 242.000,275.220 242.000 C 275.451 242.000,276.288 242.630,277.081 243.400 C 277.874 244.170,278.756 244.800,279.041 244.800 C 279.327 244.800,279.704 245.026,279.880 245.302 C 280.259 245.898,283.024 248.000,283.427 248.000 C 283.582 248.000,284.125 248.450,284.635 249.000 C 285.145 249.550,285.707 250.000,285.885 250.000 C 286.063 250.000,286.693 250.450,287.287 251.000 C 287.880 251.550,288.553 252.000,288.783 252.000 C 289.012 252.000,289.200 252.180,289.200 252.400 C 289.200 252.620,289.479 252.800,289.819 252.800 C 290.160 252.800,290.855 253.250,291.365 253.800 C 291.875 254.350,292.586 254.800,292.946 254.800 C 293.306 254.800,293.600 254.980,293.600 255.200 C 293.600 255.420,293.750 255.600,293.933 255.600 C 294.117 255.600,294.267 255.338,294.267 255.018 C 294.267 254.697,294.136 254.516,293.975 254.615 C 293.815 254.714,293.581 254.526,293.454 254.198 C 293.328 253.869,292.859 253.600,292.413 253.600 C 291.966 253.600,291.600 253.409,291.600 253.176 C 291.600 252.943,291.808 252.881,292.062 253.038 C 292.348 253.215,292.415 253.148,292.238 252.862 C 292.081 252.608,291.646 252.400,291.271 252.400 C 290.897 252.400,290.252 251.950,289.839 251.400 C 289.426 250.850,288.753 250.400,288.344 250.400 C 287.935 250.400,287.600 250.220,287.600 250.000 C 287.600 249.780,287.330 249.600,287.000 249.600 C 286.670 249.600,286.400 249.374,286.400 249.098 C 286.400 248.821,285.822 248.339,285.115 248.026 C 284.408 247.714,283.443 247.040,282.969 246.529 C 282.496 246.018,281.724 245.600,281.254 245.600 C 280.784 245.600,280.400 245.407,280.400 245.171 C 280.400 244.638,279.390 243.600,278.871 243.600 C 278.659 243.600,278.382 243.330,278.255 243.000 C 278.129 242.670,277.737 242.400,277.384 242.400 C 276.655 242.400,275.600 241.471,275.600 240.829 C 275.600 240.593,275.105 240.397,274.500 240.394 C 273.643 240.389,273.532 240.302,274.000 240.000 C 274.468 239.698,274.357 239.611,273.500 239.606 C 272.895 239.603,272.400 239.407,272.400 239.171 C 272.400 238.936,272.143 238.486,271.829 238.171 C 271.514 237.857,271.064 237.600,270.829 237.600 C 270.593 237.600,270.400 237.432,270.400 237.227 C 270.400 237.022,269.995 236.727,269.500 236.571 C 269.005 236.416,268.204 235.864,267.719 235.344 C 267.235 234.825,266.560 234.400,266.219 234.400 C 265.879 234.400,265.600 234.220,265.600 234.000 C 265.600 233.780,265.330 233.600,265.000 233.600 C 264.670 233.600,264.400 233.407,264.400 233.171 C 264.400 232.466,263.314 231.600,262.429 231.600 C 261.959 231.600,261.600 231.340,261.600 231.000 C 261.600 230.670,261.330 230.400,261.000 230.400 C 260.670 230.400,260.400 230.220,260.400 230.000 C 260.400 229.780,260.130 229.600,259.800 229.600 C 259.470 229.600,259.245 229.375,259.300 229.100 C 259.355 228.825,259.055 228.599,258.633 228.598 C 258.211 228.597,257.791 228.372,257.699 228.098 C 257.608 227.824,257.278 227.600,256.967 227.600 C 256.655 227.600,256.400 227.395,256.400 227.144 C 256.400 226.603,255.204 225.631,254.516 225.613 C 254.250 225.606,253.298 224.880,252.400 224.000 C 251.502 223.120,250.505 222.400,250.184 222.400 C 249.863 222.400,249.600 222.220,249.600 222.000 C 249.600 221.780,249.339 221.600,249.020 221.600 C 248.701 221.600,248.293 221.338,248.114 221.018 C 247.893 220.622,247.600 220.553,247.198 220.801 M188.700 223.265 C 188.095 223.486,187.600 223.832,187.600 224.033 C 187.600 224.235,187.412 224.400,187.183 224.400 C 186.560 224.400,185.017 225.950,185.329 226.262 C 185.478 226.411,185.600 226.323,185.600 226.067 C 185.600 225.810,185.935 225.600,186.344 225.600 C 186.753 225.600,187.426 225.150,187.839 224.600 C 188.579 223.615,190.000 223.220,190.000 224.000 C 190.000 224.220,190.379 224.400,190.843 224.400 C 191.428 224.400,191.615 224.584,191.455 225.000 C 191.315 225.365,191.455 225.600,191.813 225.600 C 192.136 225.600,192.400 225.780,192.400 226.000 C 192.400 226.220,192.651 226.400,192.957 226.400 C 193.264 226.400,193.618 226.670,193.745 227.000 C 193.871 227.330,194.341 227.600,194.787 227.600 C 195.234 227.600,195.600 227.780,195.600 228.000 C 195.600 228.220,195.870 228.400,196.200 228.400 C 196.530 228.400,196.800 228.670,196.800 229.000 C 196.800 229.330,197.115 229.606,197.500 229.613 C 198.269 229.627,199.600 230.506,199.600 231.000 C 199.600 231.494,200.931 232.373,201.700 232.387 C 202.085 232.394,202.400 232.591,202.400 232.824 C 202.400 233.057,202.192 233.119,201.938 232.962 C 201.652 232.785,201.585 232.852,201.762 233.138 C 201.919 233.392,202.397 233.600,202.824 233.600 C 203.251 233.600,203.600 233.780,203.600 234.000 C 203.600 234.220,203.851 234.400,204.157 234.400 C 204.464 234.400,204.818 234.670,204.945 235.000 C 205.071 235.330,205.475 235.600,205.842 235.600 C 206.210 235.600,207.048 236.230,207.706 237.000 C 208.441 237.861,209.262 238.400,209.838 238.400 C 210.506 238.400,210.709 238.572,210.545 239.000 C 210.418 239.330,210.527 239.600,210.786 239.600 C 211.045 239.600,211.529 239.872,211.861 240.204 C 212.193 240.536,212.610 240.718,212.787 240.608 C 212.964 240.499,213.207 240.785,213.328 241.245 C 213.448 241.704,213.738 241.962,213.973 241.817 C 214.208 241.672,214.400 241.743,214.400 241.976 C 214.400 242.209,214.771 242.400,215.224 242.400 C 215.677 242.400,215.944 242.567,215.818 242.771 C 215.692 242.975,215.985 243.268,216.469 243.422 C 216.953 243.576,217.922 244.308,218.622 245.051 C 219.322 245.793,220.278 246.400,220.747 246.400 C 221.216 246.400,221.600 246.593,221.600 246.829 C 221.600 247.377,222.402 248.170,223.300 248.510 C 223.685 248.656,224.000 248.961,224.000 249.187 C 224.000 249.414,224.268 249.600,224.595 249.600 C 225.363 249.600,226.821 250.843,226.556 251.271 C 226.444 251.452,226.813 251.600,227.376 251.600 C 227.939 251.600,228.400 251.780,228.400 252.000 C 228.400 252.220,228.670 252.400,229.000 252.400 C 229.330 252.400,229.600 252.670,229.600 253.000 C 229.600 253.330,229.881 253.600,230.224 253.600 C 230.567 253.600,230.736 253.780,230.600 254.000 C 230.464 254.220,230.633 254.400,230.976 254.400 C 231.319 254.400,231.600 254.689,231.600 255.043 C 231.600 255.444,231.821 255.601,232.188 255.460 C 232.512 255.336,233.039 255.496,233.360 255.817 C 233.681 256.138,234.136 256.400,234.371 256.400 C 234.607 256.400,234.755 256.621,234.700 256.891 C 234.645 257.160,235.034 257.447,235.565 257.527 C 236.610 257.685,237.600 258.485,237.600 259.171 C 237.600 259.407,238.050 259.600,238.600 259.600 C 239.150 259.600,239.600 259.780,239.600 260.000 C 239.600 260.220,239.870 260.400,240.200 260.400 C 240.530 260.400,240.800 260.593,240.800 260.829 C 240.800 261.534,241.886 262.400,242.771 262.400 C 243.241 262.400,243.600 262.660,243.600 263.000 C 243.600 263.330,243.793 263.600,244.029 263.600 C 244.264 263.600,244.714 263.857,245.029 264.171 C 245.343 264.486,245.600 264.936,245.600 265.171 C 245.600 265.407,246.050 265.600,246.600 265.600 C 247.844 265.600,247.924 266.298,246.700 266.472 C 245.744 266.608,245.460 267.620,246.300 267.900 C 246.575 267.992,246.800 267.782,246.800 267.433 C 246.800 267.024,247.154 266.800,247.800 266.800 C 249.583 266.800,248.599 265.320,245.600 263.495 C 244.830 263.026,244.110 262.542,244.000 262.419 C 243.725 262.112,239.297 258.738,238.201 258.000 C 237.710 257.670,236.302 256.635,235.072 255.700 C 233.841 254.765,232.646 254.000,232.417 254.000 C 232.188 254.000,232.000 253.859,232.000 253.686 C 232.000 253.514,231.415 253.028,230.700 252.607 C 229.985 252.186,228.952 251.427,228.404 250.920 C 227.856 250.414,227.226 249.998,227.004 249.997 C 226.782 249.995,225.937 249.365,225.127 248.597 C 224.316 247.828,223.461 247.200,223.227 247.200 C 222.992 247.200,222.458 246.885,222.041 246.500 C 220.299 244.894,219.340 244.158,218.300 243.627 C 217.695 243.318,217.200 242.930,217.200 242.765 C 217.200 242.600,216.615 242.102,215.900 241.659 C 215.185 241.216,214.235 240.526,213.788 240.127 C 213.341 239.727,212.351 239.052,211.588 238.627 C 210.825 238.202,209.965 237.527,209.677 237.127 C 209.390 236.727,208.889 236.400,208.565 236.400 C 208.240 236.400,207.871 236.130,207.745 235.800 C 207.618 235.470,207.342 235.200,207.131 235.200 C 206.919 235.200,206.157 234.750,205.436 234.200 C 204.714 233.650,204.012 233.200,203.876 233.200 C 203.739 233.200,202.997 232.570,202.227 231.800 C 201.457 231.030,200.665 230.400,200.468 230.400 C 200.270 230.400,199.499 229.867,198.754 229.216 C 198.009 228.564,196.960 227.799,196.421 227.516 C 195.883 227.232,195.002 226.595,194.463 226.100 C 193.924 225.605,193.284 225.192,193.042 225.183 C 192.799 225.174,192.158 224.634,191.619 223.983 C 190.559 222.705,190.364 222.657,188.700 223.265 M183.600 226.800 C 183.600 227.020,183.330 227.200,183.000 227.200 C 182.670 227.200,182.400 227.470,182.400 227.800 C 182.400 228.613,183.192 228.558,183.843 227.700 C 184.484 226.856,184.539 226.400,184.000 226.400 C 183.780 226.400,183.600 226.580,183.600 226.800 M179.456 229.478 C 179.005 229.928,179.181 230.400,179.800 230.400 C 180.130 230.400,180.400 230.231,180.400 230.024 C 180.400 229.519,179.775 229.158,179.456 229.478 M167.740 232.800 C 167.740 234.670,167.809 235.435,167.893 234.500 C 167.977 233.565,167.977 232.035,167.893 231.100 C 167.809 230.165,167.740 230.930,167.740 232.800 M174.852 233.049 C 174.375 233.589,174.422 233.651,175.221 233.534 C 175.725 233.460,176.211 233.175,176.302 232.900 C 176.533 232.199,175.512 232.304,174.852 233.049 M171.900 235.157 C 171.042 236.027,171.012 236.400,171.800 236.400 C 172.130 236.400,172.400 236.130,172.400 235.800 C 172.400 235.470,172.670 235.200,173.000 235.200 C 173.330 235.200,173.600 235.020,173.600 234.800 C 173.600 234.178,172.674 234.373,171.900 235.157 M168.018 237.634 C 168.258 238.082,168.635 238.388,168.857 238.314 C 169.537 238.088,169.305 237.456,168.421 237.129 C 167.673 236.853,167.629 236.907,168.018 237.634 M132.540 241.200 C 132.540 243.070,132.609 243.835,132.693 242.900 C 132.777 241.965,132.777 240.435,132.693 239.500 C 132.609 238.565,132.540 239.330,132.540 241.200 M298.400 260.200 C 298.400 260.567,298.594 260.802,298.830 260.723 C 299.067 260.645,299.260 260.409,299.260 260.200 C 299.260 259.991,299.067 259.755,298.830 259.677 C 298.594 259.598,298.400 259.833,298.400 260.200 M299.478 261.856 C 299.158 262.175,299.519 262.800,300.024 262.800 C 300.231 262.800,300.400 262.530,300.400 262.200 C 300.400 261.581,299.928 261.405,299.478 261.856 M300.400 264.600 C 300.400 265.588,300.942 265.941,301.378 265.236 C 301.667 264.768,301.224 263.600,300.757 263.600 C 300.561 263.600,300.400 264.050,300.400 264.600 M242.700 268.264 C 242.095 268.583,241.600 269.014,241.600 269.222 C 241.600 269.430,241.165 269.600,240.633 269.600 C 240.102 269.600,239.604 269.788,239.527 270.018 C 239.451 270.248,238.986 270.466,238.494 270.503 C 238.002 270.540,237.600 270.764,237.600 271.000 C 237.600 271.236,237.198 271.460,236.706 271.497 C 236.214 271.534,235.749 271.752,235.673 271.982 C 235.596 272.212,235.113 272.400,234.599 272.400 C 233.180 272.400,232.426 272.803,232.668 273.433 C 232.955 274.181,233.964 274.159,234.255 273.400 C 234.382 273.070,234.766 272.800,235.108 272.800 C 235.974 272.800,238.800 271.516,238.800 271.123 C 238.800 270.945,239.149 270.800,239.576 270.800 C 240.003 270.800,240.464 270.620,240.600 270.400 C 240.736 270.180,241.278 270.000,241.804 270.000 C 242.330 270.000,242.904 269.750,243.080 269.445 C 243.256 269.139,243.745 268.824,244.167 268.745 C 245.173 268.555,245.495 267.587,244.533 267.642 C 244.130 267.666,243.305 267.946,242.700 268.264 M229.716 274.346 C 228.722 274.856,228.521 275.140,228.824 275.602 C 229.165 276.123,229.284 276.110,229.752 275.500 C 230.047 275.115,230.673 274.800,231.144 274.800 C 231.638 274.800,232.000 274.546,232.000 274.200 C 232.000 273.455,231.373 273.495,229.716 274.346 M300.400 274.800 C 300.400 275.240,300.559 275.600,300.753 275.600 C 300.948 275.600,301.201 275.240,301.316 274.800 C 301.452 274.280,301.328 274.000,300.963 274.000 C 300.653 274.000,300.400 274.360,300.400 274.800 M226.600 276.000 C 226.740 276.227,226.404 276.400,225.824 276.400 C 225.180 276.400,224.800 276.623,224.800 277.000 C 224.800 277.403,224.397 277.600,223.576 277.600 C 222.863 277.600,222.456 277.767,222.600 278.000 C 222.736 278.220,222.657 278.400,222.424 278.400 C 222.191 278.400,222.000 278.207,222.000 277.971 C 222.000 277.736,221.730 277.813,221.400 278.143 C 221.070 278.473,220.800 278.921,220.800 279.138 C 220.800 279.355,220.575 279.624,220.300 279.735 C 219.948 279.877,219.940 279.946,220.271 279.968 C 220.531 279.986,221.013 279.730,221.343 279.400 C 221.673 279.070,222.406 278.800,222.971 278.800 C 223.537 278.800,224.000 278.620,224.000 278.400 C 224.000 278.180,224.366 278.000,224.813 278.000 C 225.259 278.000,225.729 277.730,225.855 277.400 C 225.982 277.070,226.516 276.800,227.043 276.800 C 227.627 276.800,228.000 276.566,228.000 276.200 C 228.000 275.861,227.642 275.600,227.176 275.600 C 226.723 275.600,226.464 275.780,226.600 276.000 M299.316 277.600 C 299.201 278.040,298.948 278.400,298.753 278.400 C 298.559 278.400,298.400 278.670,298.400 279.000 C 298.400 279.984,299.363 279.674,299.900 278.517 C 300.514 277.194,300.529 276.800,299.963 276.800 C 299.722 276.800,299.431 277.160,299.316 277.600 M218.000 280.000 C 218.482 280.312,218.418 280.389,217.671 280.394 C 216.825 280.399,215.600 281.214,215.600 281.771 C 215.600 282.249,217.175 281.975,217.480 281.445 C 217.656 281.139,218.145 280.824,218.567 280.745 C 219.837 280.505,219.810 279.599,218.533 279.606 C 217.655 279.611,217.535 279.699,218.000 280.000 M297.200 280.300 C 297.200 280.465,296.464 281.405,295.565 282.389 C 294.525 283.527,294.115 284.238,294.437 284.346 C 294.715 284.438,295.352 284.039,295.852 283.457 C 296.352 282.876,296.950 282.400,297.181 282.400 C 297.411 282.400,297.600 282.119,297.600 281.776 C 297.600 281.433,297.780 281.264,298.000 281.400 C 298.220 281.536,298.400 281.277,298.400 280.824 C 298.400 280.358,298.139 280.000,297.800 280.000 C 297.470 280.000,297.200 280.135,297.200 280.300 M213.600 281.953 C 213.600 282.148,213.240 282.401,212.800 282.516 C 212.360 282.631,212.000 283.012,212.000 283.363 C 212.000 284.169,212.750 284.196,213.055 283.400 C 213.182 283.070,213.716 282.800,214.243 282.800 C 214.827 282.800,215.200 282.566,215.200 282.200 C 215.200 281.867,214.844 281.600,214.400 281.600 C 213.960 281.600,213.600 281.759,213.600 281.953 M209.600 283.972 C 209.600 284.177,209.197 284.402,208.704 284.472 C 207.664 284.621,207.194 286.000,208.183 286.000 C 208.536 286.000,208.929 285.730,209.055 285.400 C 209.182 285.070,209.607 284.800,210.000 284.800 C 210.393 284.800,210.818 284.530,210.945 284.200 C 211.101 283.792,210.923 283.600,210.387 283.600 C 209.954 283.600,209.600 283.767,209.600 283.972 M205.600 286.000 C 205.600 286.220,205.150 286.400,204.600 286.400 C 203.978 286.400,203.600 286.627,203.600 287.000 C 203.600 287.403,203.197 287.600,202.376 287.600 C 201.663 287.600,201.256 287.767,201.400 288.000 C 201.540 288.227,201.204 288.400,200.624 288.400 C 199.980 288.400,199.600 288.623,199.600 289.000 C 199.600 289.419,199.178 289.600,198.200 289.600 C 197.430 289.600,196.800 289.780,196.800 290.000 C 196.800 290.220,196.361 290.400,195.824 290.400 C 194.659 290.400,194.313 290.826,194.834 291.619 C 195.160 292.116,195.293 292.099,195.752 291.500 C 196.047 291.115,196.763 290.800,197.344 290.800 C 197.925 290.800,198.400 290.620,198.400 290.400 C 198.400 290.180,198.766 290.000,199.213 290.000 C 199.659 290.000,200.129 289.730,200.255 289.400 C 200.387 289.058,200.983 288.800,201.643 288.800 C 202.279 288.800,202.800 288.620,202.800 288.400 C 202.800 288.180,203.166 288.000,203.613 288.000 C 204.059 288.000,204.529 287.730,204.655 287.400 C 204.782 287.070,205.297 286.800,205.800 286.800 C 206.303 286.800,206.818 286.530,206.945 286.200 C 207.101 285.792,206.923 285.600,206.387 285.600 C 205.954 285.600,205.600 285.780,205.600 286.000 M283.017 289.572 C 282.629 290.200,283.367 290.352,283.916 289.758 C 284.339 289.300,284.326 289.200,283.839 289.200 C 283.514 289.200,283.144 289.368,283.017 289.572 M280.933 291.030 C 280.933 291.739,281.367 291.763,281.931 291.084 C 282.252 290.696,282.182 290.554,281.646 290.513 C 281.254 290.484,280.933 290.716,280.933 291.030 M278.255 291.800 C 278.102 292.201,278.272 292.400,278.770 292.400 C 279.179 292.400,279.618 292.130,279.745 291.800 C 279.898 291.399,279.728 291.200,279.230 291.200 C 278.821 291.200,278.382 291.470,278.255 291.800 M192.800 292.000 C 192.800 292.220,192.434 292.400,191.987 292.400 C 191.541 292.400,191.068 292.678,190.938 293.017 C 190.581 293.946,191.193 294.298,191.777 293.499 C 192.058 293.115,192.673 292.800,193.144 292.800 C 193.638 292.800,194.000 292.546,194.000 292.200 C 194.000 291.870,193.730 291.600,193.400 291.600 C 193.070 291.600,192.800 291.780,192.800 292.000 M276.000 292.772 C 276.000 292.977,275.609 293.202,275.131 293.272 C 273.986 293.441,273.675 294.400,274.767 294.400 C 275.225 294.400,275.600 294.233,275.600 294.028 C 275.600 293.823,275.991 293.598,276.469 293.528 C 277.614 293.359,277.925 292.400,276.833 292.400 C 276.375 292.400,276.000 292.567,276.000 292.772 M188.076 294.224 C 187.788 294.550,187.383 294.713,187.176 294.585 C 186.969 294.457,186.800 294.633,186.800 294.976 C 186.800 295.375,186.439 295.600,185.800 295.600 C 185.250 295.600,184.800 295.780,184.800 296.000 C 184.800 296.220,184.125 296.414,183.300 296.432 C 182.475 296.449,182.026 296.554,182.302 296.666 C 183.011 296.951,182.507 297.600,181.576 297.600 C 181.149 297.600,180.800 297.780,180.800 298.000 C 180.800 298.220,180.282 298.400,179.649 298.400 C 179.016 298.400,178.274 298.670,178.000 299.000 C 177.726 299.330,177.074 299.600,176.551 299.600 C 176.028 299.600,175.600 299.780,175.600 300.000 C 175.600 300.220,175.234 300.400,174.787 300.400 C 174.341 300.400,173.871 300.670,173.745 301.000 C 173.618 301.330,173.184 301.600,172.781 301.600 C 172.377 301.600,171.936 301.780,171.800 302.000 C 171.664 302.220,171.113 302.400,170.576 302.400 C 169.975 302.400,169.600 302.631,169.600 303.000 C 169.600 303.336,169.243 303.600,168.787 303.600 C 168.341 303.600,167.871 303.870,167.745 304.200 C 167.618 304.530,167.196 304.800,166.806 304.800 C 166.417 304.800,165.874 305.070,165.600 305.400 C 165.326 305.730,165.192 306.000,165.302 306.000 C 165.823 306.000,168.374 304.765,168.596 304.406 C 168.734 304.183,169.292 304.000,169.836 304.000 C 170.380 304.000,170.929 303.730,171.055 303.400 C 171.182 303.070,171.716 302.800,172.243 302.800 C 172.769 302.800,173.200 302.620,173.200 302.400 C 173.200 302.180,173.566 302.000,174.013 302.000 C 174.459 302.000,174.929 301.730,175.055 301.400 C 175.182 301.070,175.716 300.800,176.243 300.800 C 176.769 300.800,177.200 300.620,177.200 300.400 C 177.200 300.180,177.566 300.000,178.013 300.000 C 178.459 300.000,178.929 299.730,179.055 299.400 C 179.187 299.058,179.783 298.800,180.443 298.800 C 181.079 298.800,181.600 298.620,181.600 298.400 C 181.600 298.180,181.876 298.000,182.213 298.000 C 182.549 298.000,182.929 297.730,183.055 297.400 C 183.185 297.062,183.781 296.800,184.419 296.800 C 185.043 296.800,185.664 296.620,185.800 296.400 C 185.936 296.180,186.402 296.000,186.836 296.000 C 187.270 296.000,187.729 295.730,187.855 295.400 C 187.982 295.070,188.497 294.800,189.000 294.800 C 189.503 294.800,190.018 294.530,190.145 294.200 C 190.453 293.396,188.790 293.415,188.076 294.224 M272.275 294.258 C 271.709 294.825,272.029 295.600,272.829 295.600 C 273.389 295.600,273.617 295.383,273.529 294.933 C 273.387 294.197,272.704 293.830,272.275 294.258 M270.000 295.829 C 270.000 296.202,270.272 296.406,270.667 296.329 C 271.670 296.135,271.808 295.200,270.833 295.200 C 270.342 295.200,270.000 295.458,270.000 295.829 M268.154 296.575 C 268.022 296.920,267.441 297.204,266.857 297.209 C 265.536 297.220,263.819 298.493,264.116 299.242 C 264.276 299.646,264.346 299.607,264.368 299.100 C 264.390 298.628,264.726 298.400,265.400 298.400 C 265.950 298.400,266.400 298.220,266.400 298.000 C 266.400 297.780,267.030 297.600,267.800 297.600 C 268.752 297.600,269.200 297.416,269.200 297.024 C 269.200 296.177,268.433 295.848,268.154 296.575 M132.501 299.800 C 132.505 300.680,132.587 300.993,132.683 300.495 C 132.779 299.998,132.775 299.278,132.675 298.895 C 132.575 298.513,132.496 298.920,132.501 299.800 M261.600 299.800 C 261.600 300.130,261.780 300.400,262.000 300.400 C 262.220 300.400,262.400 300.233,262.400 300.029 C 262.400 299.825,262.715 299.576,263.100 299.476 C 263.531 299.363,263.377 299.275,262.700 299.246 C 261.968 299.216,261.600 299.401,261.600 299.800 M259.400 300.800 C 259.264 301.020,258.733 301.200,258.219 301.200 C 257.706 301.200,257.182 301.470,257.055 301.800 C 256.899 302.208,257.077 302.400,257.613 302.400 C 258.046 302.400,258.400 302.220,258.400 302.000 C 258.400 301.780,258.850 301.600,259.400 301.600 C 260.022 301.600,260.400 301.373,260.400 301.000 C 260.400 300.321,259.774 300.195,259.400 300.800 M254.800 302.795 C 254.470 302.986,253.885 303.240,253.500 303.359 C 252.543 303.654,252.614 304.400,253.600 304.400 C 254.040 304.400,254.400 304.220,254.400 304.000 C 254.400 303.780,254.850 303.600,255.400 303.600 C 256.022 303.600,256.400 303.373,256.400 303.000 C 256.400 302.341,255.731 302.255,254.800 302.795 M250.945 304.600 C 250.818 304.930,250.284 305.200,249.757 305.200 C 249.231 305.200,248.800 305.367,248.800 305.572 C 248.800 305.777,248.397 306.002,247.904 306.072 C 246.884 306.218,246.390 307.600,247.358 307.600 C 247.742 307.600,247.888 307.373,247.745 307.000 C 247.566 306.534,247.842 306.400,248.981 306.400 C 249.787 306.400,250.344 306.232,250.217 306.027 C 250.090 305.822,250.483 305.597,251.090 305.527 C 251.757 305.450,252.246 305.124,252.326 304.700 C 252.491 303.831,251.273 303.743,250.945 304.600 M162.000 307.104 C 160.790 307.685,158.131 308.960,156.090 309.937 C 154.050 310.914,152.454 311.788,152.544 311.878 C 152.634 311.968,154.603 311.132,156.918 310.021 C 159.234 308.909,161.216 308.000,161.323 308.000 C 161.431 308.000,162.302 307.552,163.259 307.005 C 165.534 305.704,164.796 305.763,162.000 307.104 M244.984 307.627 C 244.528 308.364,245.132 308.525,245.810 307.848 C 246.369 307.288,246.375 307.200,245.852 307.200 C 245.519 307.200,245.129 307.392,244.984 307.627 M242.200 308.671 C 240.130 309.792,239.629 310.000,238.993 310.000 C 238.653 310.000,238.271 310.270,238.145 310.600 C 238.018 310.930,237.484 311.200,236.957 311.200 C 236.373 311.200,236.000 311.434,236.000 311.800 C 236.000 312.139,236.358 312.400,236.824 312.400 C 237.277 312.400,237.536 312.220,237.400 312.000 C 237.255 311.766,237.677 311.600,238.419 311.600 C 239.381 311.600,239.630 311.455,239.455 311.000 C 239.283 310.550,239.521 310.400,240.413 310.400 C 241.066 310.400,241.600 310.220,241.600 310.000 C 241.600 309.780,241.954 309.600,242.386 309.600 C 242.818 309.600,243.365 309.240,243.600 308.800 C 244.115 307.838,243.793 307.808,242.200 308.671 M149.043 313.235 C 147.746 313.904,145.946 314.738,145.043 315.088 C 141.887 316.310,137.982 319.222,136.136 321.730 C 135.161 323.055,134.011 324.443,133.582 324.816 C 132.768 325.522,132.471 328.000,133.200 328.000 C 133.420 328.000,133.600 327.649,133.600 327.220 C 133.600 326.791,134.140 325.640,134.800 324.662 C 135.460 323.684,136.000 322.769,136.000 322.627 C 136.000 321.804,141.035 317.530,143.200 316.515 C 143.750 316.257,145.955 315.225,148.100 314.222 C 151.613 312.579,152.582 311.984,151.700 312.008 C 151.535 312.013,150.339 312.565,149.043 313.235 M234.145 312.600 C 234.018 312.930,233.484 313.200,232.957 313.200 C 232.300 313.200,232.010 313.420,232.032 313.900 C 232.050 314.318,232.144 314.399,232.265 314.100 C 232.376 313.825,233.052 313.600,233.767 313.600 C 235.261 313.600,235.633 313.352,235.330 312.561 C 235.047 311.825,234.434 311.845,234.145 312.600 M230.000 314.600 C 229.726 314.930,229.175 315.200,228.775 315.200 C 227.962 315.200,227.361 315.905,227.815 316.327 C 227.977 316.477,228.190 316.375,228.288 316.100 C 228.386 315.825,229.127 315.597,229.933 315.594 C 231.037 315.589,231.251 315.490,230.800 315.194 C 230.267 314.844,230.267 314.756,230.800 314.406 C 231.130 314.189,231.197 314.009,230.949 314.006 C 230.701 314.003,230.274 314.270,230.000 314.600 M225.900 316.276 C 225.515 316.376,225.200 316.625,225.200 316.829 C 225.200 317.033,224.947 317.200,224.637 317.200 C 224.160 317.200,221.873 318.209,219.105 319.641 C 218.723 319.838,218.138 320.000,217.805 320.000 C 217.472 320.000,217.200 320.270,217.200 320.600 C 217.200 321.000,216.800 321.200,216.000 321.200 C 215.200 321.200,214.800 321.400,214.800 321.800 C 214.800 322.473,215.818 322.618,216.200 322.000 C 216.336 321.780,216.887 321.600,217.424 321.600 C 218.025 321.600,218.400 321.369,218.400 321.000 C 218.400 320.627,218.778 320.400,219.400 320.400 C 219.950 320.400,220.400 320.220,220.400 320.000 C 220.400 319.780,221.019 319.600,221.776 319.600 C 223.274 319.600,224.041 318.973,222.905 318.677 C 222.465 318.562,222.614 318.475,223.300 318.446 C 223.905 318.421,224.400 318.220,224.400 318.000 C 224.400 317.780,224.850 317.600,225.400 317.600 C 225.996 317.600,226.400 317.371,226.400 317.033 C 226.400 316.722,226.625 316.376,226.900 316.265 C 227.512 316.018,226.859 316.025,225.900 316.276 M212.945 322.600 C 212.818 322.930,212.284 323.200,211.757 323.200 C 211.145 323.200,210.800 323.431,210.800 323.843 C 210.800 324.300,211.002 324.401,211.500 324.191 C 211.885 324.030,212.603 323.810,213.095 323.703 C 213.588 323.596,213.880 323.329,213.744 323.110 C 213.608 322.890,213.746 322.553,214.049 322.361 C 214.483 322.087,214.448 322.011,213.887 322.006 C 213.496 322.003,213.071 322.270,212.945 322.600 M208.657 324.600 C 208.327 324.930,207.684 325.200,207.229 325.200 C 206.773 325.200,206.400 325.345,206.400 325.523 C 206.400 325.864,203.624 327.200,202.915 327.200 C 202.685 327.200,202.283 327.459,202.020 327.776 C 201.757 328.093,201.286 328.254,200.974 328.135 C 200.662 328.015,200.296 328.206,200.161 328.558 C 200.025 328.911,199.484 329.200,198.957 329.200 C 198.373 329.200,198.000 329.434,198.000 329.800 C 198.000 330.139,198.358 330.400,198.824 330.400 C 199.277 330.400,199.536 330.220,199.400 330.000 C 199.255 329.766,199.670 329.600,200.400 329.600 C 201.135 329.600,201.545 329.435,201.398 329.197 C 201.261 328.976,201.476 328.692,201.875 328.568 C 202.274 328.443,202.913 328.175,203.295 327.971 C 203.677 327.767,204.352 327.600,204.795 327.600 C 205.244 327.600,205.600 327.335,205.600 327.000 C 205.600 326.627,205.978 326.400,206.600 326.400 C 207.150 326.400,207.600 326.220,207.600 326.000 C 207.600 325.780,208.121 325.600,208.757 325.600 C 209.737 325.600,210.400 325.022,210.400 324.167 C 210.400 323.758,209.201 324.056,208.657 324.600 M196.145 330.600 C 196.013 330.942,195.417 331.200,194.757 331.200 C 194.121 331.200,193.600 331.380,193.600 331.600 C 193.600 331.820,193.324 332.000,192.987 332.000 C 192.651 332.000,192.271 332.270,192.145 332.600 C 192.013 332.942,191.417 333.200,190.757 333.200 C 190.121 333.200,189.600 333.366,189.600 333.568 C 189.600 333.771,189.060 334.055,188.400 334.200 C 187.740 334.345,187.200 334.629,187.200 334.832 C 187.200 335.034,186.750 335.200,186.200 335.200 C 185.650 335.200,185.200 335.380,185.200 335.600 C 185.200 335.820,184.849 336.000,184.420 336.000 C 183.991 336.000,183.496 336.253,183.320 336.562 C 183.144 336.870,182.564 337.185,182.031 337.262 C 180.814 337.436,180.420 338.400,181.567 338.400 C 182.025 338.400,182.400 338.220,182.400 338.000 C 182.400 337.780,182.850 337.600,183.400 337.600 C 184.022 337.600,184.400 337.373,184.400 337.000 C 184.400 336.627,184.778 336.400,185.400 336.400 C 185.950 336.400,186.400 336.220,186.400 336.000 C 186.400 335.780,186.850 335.600,187.400 335.600 C 188.022 335.600,188.400 335.373,188.400 335.000 C 188.400 334.670,188.702 334.400,189.072 334.400 C 190.271 334.400,192.400 333.453,192.400 332.920 C 192.400 332.632,192.847 332.400,193.400 332.400 C 193.950 332.400,194.400 332.220,194.400 332.000 C 194.400 331.780,195.030 331.600,195.800 331.600 C 196.933 331.600,197.200 331.448,197.200 330.800 C 197.200 329.865,196.479 329.728,196.145 330.600 M179.055 338.600 C 178.929 338.930,178.470 339.200,178.036 339.200 C 177.173 339.200,176.546 339.892,177.015 340.327 C 177.177 340.477,177.390 340.375,177.488 340.100 C 177.586 339.825,178.282 339.600,179.033 339.600 C 180.133 339.600,180.400 339.444,180.400 338.800 C 180.400 337.869,179.393 337.719,179.055 338.600 M174.945 340.600 C 174.818 340.930,174.434 341.200,174.092 341.200 C 173.226 341.200,170.400 342.484,170.400 342.877 C 170.400 343.055,170.027 343.200,169.571 343.200 C 169.116 343.200,168.471 343.472,168.139 343.804 C 167.807 344.136,167.343 344.288,167.107 344.143 C 166.871 343.997,166.476 344.154,166.229 344.492 C 165.982 344.830,165.439 345.173,165.023 345.253 C 163.953 345.461,163.743 346.400,164.767 346.400 C 165.225 346.400,165.600 346.220,165.600 346.000 C 165.600 345.780,165.966 345.600,166.413 345.600 C 166.859 345.600,167.329 345.330,167.455 345.000 C 167.582 344.670,168.116 344.400,168.643 344.400 C 169.169 344.400,169.600 344.220,169.600 344.000 C 169.600 343.780,170.050 343.600,170.600 343.600 C 171.222 343.600,171.600 343.373,171.600 343.000 C 171.600 342.421,172.047 342.233,173.100 342.370 C 173.375 342.406,173.600 342.247,173.600 342.018 C 173.600 341.788,173.920 341.600,174.311 341.600 C 174.702 341.600,175.330 341.240,175.707 340.800 C 176.292 340.117,176.303 340.000,175.784 340.000 C 175.449 340.000,175.071 340.270,174.945 340.600 M134.400 341.586 C 134.400 342.043,134.663 342.400,135.000 342.400 C 135.373 342.400,135.600 342.778,135.600 343.400 C 135.600 344.022,135.827 344.400,136.200 344.400 C 136.530 344.400,136.755 344.558,136.700 344.751 C 136.570 345.207,139.248 347.585,139.900 347.594 C 140.175 347.597,140.400 347.780,140.400 348.000 C 140.400 348.220,140.670 348.400,141.000 348.400 C 141.849 348.400,141.750 347.204,140.900 347.183 C 140.515 347.174,139.750 346.615,139.200 345.942 C 138.650 345.268,137.708 344.151,137.106 343.459 C 136.505 342.766,136.010 342.071,136.006 341.914 C 135.988 341.113,134.400 340.788,134.400 341.586 M162.000 347.000 C 162.000 347.330,162.251 347.600,162.557 347.600 C 162.864 347.600,163.218 347.330,163.345 347.000 C 163.501 346.592,163.323 346.400,162.787 346.400 C 162.354 346.400,162.000 346.670,162.000 347.000 M160.275 347.458 C 160.124 347.610,160.000 347.867,160.000 348.031 C 160.000 348.456,160.974 348.258,161.130 347.801 C 161.289 347.334,160.654 347.079,160.275 347.458 M142.400 349.000 C 142.400 349.367,142.594 349.602,142.830 349.523 C 143.066 349.445,143.260 349.209,143.260 349.000 C 143.260 348.791,143.066 348.555,142.830 348.477 C 142.594 348.398,142.400 348.633,142.400 349.000 M157.600 348.758 C 157.600 349.299,158.060 349.552,158.639 349.330 C 159.454 349.017,159.326 348.580,158.400 348.510 C 157.960 348.477,157.600 348.589,157.600 348.758 " stroke="none" fill="#a2d1a2" fill-rule="evenodd"></path><path id="path7" d="" stroke="none" fill="#00ff00" fill-rule="evenodd"></path><path id="path8" d="M148.500 50.682 C 147.565 50.772,146.800 51.016,146.800 51.223 C 146.800 51.430,146.384 51.600,145.876 51.600 C 145.369 51.600,144.604 51.864,144.176 52.187 C 143.749 52.510,143.162 52.780,142.871 52.787 C 142.581 52.794,142.092 53.025,141.785 53.300 C 140.502 54.451,140.015 54.800,139.695 54.800 C 138.643 54.800,133.600 61.551,133.600 62.959 C 133.600 63.506,133.431 64.057,133.225 64.185 C 132.474 64.649,132.335 322.845,133.086 323.095 C 133.460 323.220,133.464 323.429,133.101 324.010 C 132.842 324.425,132.750 324.883,132.896 325.029 C 133.242 325.376,134.096 324.500,136.197 321.647 C 137.689 319.620,142.751 315.600,143.812 315.600 C 144.114 315.600,146.147 314.660,154.600 310.612 C 157.020 309.453,160.350 307.907,162.000 307.178 C 163.650 306.448,165.284 305.614,165.631 305.325 C 165.979 305.036,166.533 304.800,166.864 304.800 C 168.397 304.800,168.425 304.086,168.206 270.200 C 167.938 228.577,167.936 172.769,168.202 130.300 C 168.422 95.173,168.348 96.368,170.224 97.787 C 170.651 98.110,171.321 98.380,171.713 98.387 C 172.104 98.394,172.529 98.670,172.655 99.000 C 172.782 99.330,173.316 99.600,173.843 99.600 C 174.369 99.600,174.800 99.780,174.800 100.000 C 174.800 100.220,175.231 100.400,175.757 100.400 C 176.284 100.400,176.818 100.670,176.945 101.000 C 177.071 101.330,177.541 101.600,177.987 101.600 C 178.434 101.600,178.800 101.780,178.800 102.000 C 178.800 102.220,179.250 102.400,179.800 102.400 C 180.350 102.400,180.800 102.556,180.800 102.746 C 180.800 102.936,181.655 103.410,182.700 103.800 C 183.745 104.190,184.870 104.710,185.200 104.955 C 186.343 105.803,187.592 106.400,188.223 106.400 C 188.572 106.400,189.127 106.670,189.457 107.000 C 189.787 107.330,190.404 107.600,190.829 107.600 C 191.253 107.600,191.600 107.780,191.600 108.000 C 191.600 108.220,192.031 108.400,192.557 108.400 C 193.084 108.400,193.618 108.670,193.745 109.000 C 193.871 109.330,194.341 109.600,194.787 109.600 C 195.234 109.600,195.600 109.780,195.600 110.000 C 195.600 110.220,196.170 110.400,196.867 110.400 C 197.563 110.400,198.018 110.515,197.878 110.656 C 197.737 110.796,198.382 111.266,199.311 111.699 C 200.240 112.133,201.872 112.918,202.937 113.444 C 204.002 113.970,205.127 114.400,205.437 114.400 C 205.747 114.400,206.000 114.556,206.000 114.746 C 206.000 115.154,209.115 116.400,210.137 116.400 C 210.528 116.400,210.735 116.582,210.597 116.805 C 210.458 117.030,210.892 117.318,211.573 117.455 C 212.248 117.590,212.800 117.858,212.800 118.050 C 212.800 118.243,213.231 118.400,213.757 118.400 C 214.284 118.400,214.818 118.670,214.945 119.000 C 215.071 119.330,215.541 119.600,215.987 119.600 C 216.434 119.600,216.800 119.780,216.800 120.000 C 216.800 120.220,217.250 120.400,217.800 120.400 C 218.350 120.400,218.800 120.545,218.800 120.723 C 218.800 121.186,221.697 122.400,222.801 122.400 C 223.314 122.400,223.608 122.525,223.455 122.679 C 223.163 122.970,225.793 124.400,226.622 124.400 C 226.886 124.400,227.326 124.670,227.600 125.000 C 227.874 125.330,228.436 125.600,228.849 125.600 C 229.262 125.600,229.600 125.780,229.600 126.000 C 229.600 126.220,230.031 126.400,230.557 126.400 C 231.084 126.400,231.618 126.670,231.745 127.000 C 231.871 127.330,232.341 127.600,232.787 127.600 C 233.234 127.600,233.600 127.780,233.600 128.000 C 233.600 128.220,234.031 128.400,234.557 128.400 C 235.084 128.400,235.618 128.670,235.745 129.000 C 235.871 129.330,236.341 129.600,236.787 129.600 C 237.234 129.600,237.600 129.780,237.600 130.000 C 237.600 130.220,238.031 130.400,238.557 130.400 C 239.084 130.400,239.618 130.670,239.745 131.000 C 239.871 131.330,240.341 131.600,240.787 131.600 C 241.234 131.600,241.603 131.825,241.606 132.100 C 241.610 132.433,241.742 132.400,242.000 132.000 C 242.258 131.600,242.390 131.567,242.394 131.900 C 242.397 132.175,242.760 132.400,243.200 132.400 C 243.640 132.400,244.000 132.643,244.000 132.939 C 244.000 133.261,244.473 133.492,245.175 133.512 C 246.673 133.554,248.000 134.260,248.000 135.014 C 248.000 135.521,246.957 135.826,245.870 135.637 C 245.689 135.606,245.655 135.765,245.794 135.990 C 245.933 136.216,245.761 136.400,245.411 136.400 C 245.061 136.400,244.671 136.670,244.545 137.000 C 244.418 137.330,244.053 137.600,243.734 137.600 C 243.414 137.600,243.264 137.780,243.400 138.000 C 243.536 138.220,243.374 138.400,243.040 138.400 C 242.706 138.400,241.698 139.120,240.800 140.000 C 239.902 140.880,238.918 141.600,238.613 141.600 C 238.308 141.600,237.723 142.005,237.313 142.500 C 236.576 143.390,235.563 144.148,234.400 144.679 C 234.070 144.830,233.170 145.547,232.400 146.273 C 231.630 146.999,230.820 147.597,230.600 147.603 C 230.380 147.608,229.591 148.150,228.846 148.806 C 228.101 149.463,227.381 150.000,227.246 150.001 C 227.111 150.001,226.370 150.542,225.600 151.203 C 224.830 151.863,223.885 152.505,223.500 152.629 C 223.115 152.753,222.800 153.022,222.800 153.227 C 222.800 153.432,222.611 153.600,222.381 153.600 C 222.150 153.600,221.545 154.050,221.035 154.600 C 220.525 155.150,219.947 155.600,219.750 155.600 C 219.553 155.600,218.907 156.050,218.313 156.600 C 217.720 157.150,217.090 157.600,216.913 157.600 C 216.737 157.600,216.107 158.050,215.513 158.600 C 214.920 159.150,214.324 159.600,214.189 159.600 C 214.054 159.600,213.692 159.825,213.385 160.100 C 212.183 161.178,211.624 161.600,211.398 161.600 C 211.268 161.600,210.745 162.050,210.235 162.600 C 209.725 163.150,209.054 163.600,208.743 163.600 C 208.432 163.600,207.898 163.915,207.555 164.300 C 206.662 165.304,204.690 166.800,204.260 166.800 C 204.059 166.800,203.603 167.115,203.247 167.500 C 202.891 167.885,201.655 168.830,200.501 169.600 C 199.346 170.370,198.401 171.135,198.401 171.300 C 198.400 171.465,198.156 171.600,197.858 171.600 C 197.561 171.600,196.831 172.050,196.238 172.600 C 195.644 173.150,194.943 173.603,194.679 173.607 C 194.416 173.611,193.776 174.061,193.258 174.607 C 192.740 175.153,192.054 175.600,191.734 175.600 C 191.415 175.600,191.252 175.761,191.374 175.957 C 191.495 176.154,191.162 176.423,190.632 176.556 C 189.992 176.717,189.715 177.032,189.805 177.499 C 189.878 177.884,189.953 178.335,189.969 178.500 C 189.986 178.665,190.188 178.800,190.417 178.800 C 190.647 178.800,191.320 179.250,191.913 179.800 C 192.507 180.350,193.129 180.800,193.296 180.800 C 193.463 180.800,193.949 181.115,194.375 181.500 C 194.801 181.885,195.566 182.518,196.075 182.907 C 196.584 183.296,197.526 184.016,198.170 184.507 C 198.813 184.998,199.668 185.715,200.070 186.100 C 200.471 186.485,200.980 186.800,201.200 186.800 C 201.420 186.800,201.933 187.115,202.340 187.500 C 203.373 188.477,204.401 189.271,205.800 190.173 C 206.460 190.599,207.239 191.185,207.531 191.476 C 207.823 191.767,208.442 192.208,208.906 192.457 C 209.370 192.705,209.941 193.066,210.175 193.259 C 211.966 194.736,214.135 196.322,216.000 197.518 C 217.210 198.294,218.344 199.170,218.520 199.464 C 218.997 200.263,219.648 200.097,221.185 198.784 C 221.947 198.133,222.719 197.600,222.902 197.600 C 223.085 197.600,224.209 196.880,225.400 196.000 C 226.591 195.120,227.672 194.400,227.802 194.400 C 227.932 194.400,228.455 193.950,228.965 193.400 C 229.475 192.850,230.070 192.400,230.287 192.400 C 230.505 192.400,231.169 191.950,231.762 191.400 C 232.356 190.850,232.935 190.400,233.049 190.400 C 233.164 190.400,233.508 190.175,233.815 189.900 C 235.049 188.793,235.579 188.400,235.837 188.400 C 235.986 188.400,236.525 187.950,237.035 187.400 C 237.545 186.850,238.107 186.400,238.285 186.400 C 238.463 186.400,239.093 185.950,239.687 185.400 C 240.280 184.850,240.876 184.400,241.011 184.400 C 241.146 184.400,241.508 184.175,241.815 183.900 C 242.970 182.864,243.572 182.400,243.763 182.400 C 243.870 182.400,244.444 181.950,245.038 181.400 C 245.631 180.850,246.295 180.400,246.513 180.400 C 246.730 180.400,247.325 179.950,247.835 179.400 C 248.345 178.850,248.873 178.400,249.009 178.400 C 249.146 178.400,249.508 178.175,249.815 177.900 C 251.138 176.713,251.591 176.400,251.983 176.400 C 252.212 176.400,252.400 176.220,252.400 176.000 C 252.400 175.780,252.578 175.600,252.795 175.600 C 253.406 175.600,256.368 173.450,256.385 172.994 C 256.393 172.771,257.120 172.277,258.000 171.896 C 258.880 171.514,259.600 171.055,259.600 170.875 C 259.600 170.695,260.230 170.248,261.000 169.881 C 261.770 169.513,262.400 169.058,262.400 168.869 C 262.400 168.681,263.030 168.187,263.800 167.772 C 264.570 167.357,265.200 166.879,265.200 166.709 C 265.200 166.539,265.389 166.400,265.619 166.400 C 265.850 166.400,266.455 165.950,266.965 165.400 C 267.475 164.850,268.120 164.400,268.400 164.400 C 268.680 164.400,269.325 163.950,269.835 163.400 C 270.345 162.850,270.873 162.400,271.009 162.400 C 271.146 162.400,271.508 162.175,271.815 161.900 C 273.015 160.824,273.576 160.400,273.801 160.400 C 273.929 160.400,274.520 159.950,275.113 159.400 C 275.707 158.850,276.353 158.400,276.550 158.400 C 276.747 158.400,277.325 157.950,277.835 157.400 C 278.345 156.850,278.907 156.400,279.085 156.400 C 279.263 156.400,279.893 155.950,280.487 155.400 C 281.080 154.850,281.671 154.400,281.800 154.400 C 281.929 154.400,282.520 153.950,283.113 153.400 C 283.707 152.850,284.353 152.400,284.550 152.400 C 284.747 152.400,285.325 151.950,285.835 151.400 C 286.345 150.850,286.873 150.400,287.009 150.400 C 287.146 150.400,287.508 150.175,287.815 149.900 C 289.138 148.713,289.591 148.400,289.983 148.400 C 290.212 148.400,290.400 148.220,290.400 148.000 C 290.400 147.780,290.625 147.598,290.900 147.595 C 291.175 147.592,292.173 146.872,293.117 145.995 C 294.062 145.118,295.007 144.400,295.217 144.400 C 295.428 144.400,295.600 144.246,295.600 144.058 C 295.600 143.871,296.041 143.241,296.581 142.658 C 297.120 142.076,297.435 141.597,297.281 141.594 C 297.126 141.591,297.204 141.456,297.454 141.294 C 298.456 140.645,300.400 136.354,300.400 134.791 C 300.400 133.916,300.552 133.200,300.738 133.200 C 301.229 133.200,301.295 128.906,300.809 128.606 C 300.584 128.467,300.400 127.761,300.400 127.038 C 300.400 125.840,299.438 123.288,298.802 122.800 C 298.659 122.690,298.421 122.330,298.273 122.000 C 297.557 120.397,296.258 118.800,295.671 118.800 C 295.459 118.800,295.182 118.530,295.055 118.200 C 294.929 117.870,294.549 117.600,294.213 117.600 C 293.876 117.600,293.599 117.465,293.597 117.300 C 293.594 116.898,291.281 115.600,290.568 115.600 C 290.255 115.600,290.000 115.420,290.000 115.200 C 290.000 114.980,289.752 114.800,289.449 114.800 C 289.146 114.800,288.674 114.530,288.400 114.200 C 288.126 113.870,287.579 113.600,287.184 113.600 C 286.790 113.600,286.407 113.465,286.333 113.300 C 286.140 112.865,283.635 111.600,282.968 111.600 C 282.655 111.600,282.400 111.420,282.400 111.200 C 282.400 110.980,282.062 110.800,281.649 110.800 C 281.236 110.800,280.674 110.530,280.400 110.200 C 280.126 109.870,279.564 109.600,279.151 109.600 C 278.738 109.600,278.400 109.420,278.400 109.200 C 278.400 108.980,278.062 108.800,277.649 108.800 C 277.236 108.800,276.674 108.530,276.400 108.200 C 276.126 107.870,275.609 107.594,275.251 107.587 C 274.893 107.580,274.258 107.316,273.841 107.000 C 273.424 106.684,272.949 106.508,272.786 106.608 C 272.624 106.709,272.268 106.523,271.996 106.196 C 271.724 105.868,271.179 105.600,270.784 105.600 C 270.390 105.600,270.007 105.465,269.933 105.300 C 269.712 104.803,267.190 103.600,266.368 103.600 C 265.945 103.600,265.600 103.455,265.600 103.277 C 265.600 102.984,262.867 101.600,262.288 101.600 C 262.155 101.600,261.369 101.200,260.541 100.712 C 259.713 100.224,258.676 99.769,258.235 99.702 C 257.795 99.635,257.337 99.435,257.217 99.259 C 256.910 98.804,254.384 97.600,253.739 97.600 C 253.442 97.600,253.200 97.434,253.200 97.232 C 253.200 97.029,252.662 96.745,252.005 96.601 C 251.347 96.457,250.706 96.172,250.581 95.969 C 250.455 95.766,249.928 95.600,249.410 95.600 C 248.891 95.600,248.407 95.465,248.333 95.300 C 248.167 94.926,245.676 93.600,245.139 93.600 C 244.921 93.600,244.481 93.338,244.160 93.017 C 243.839 92.696,243.335 92.527,243.040 92.640 C 242.745 92.753,242.396 92.566,242.264 92.223 C 242.133 91.880,241.659 91.600,241.213 91.600 C 240.766 91.600,240.400 91.434,240.400 91.232 C 240.400 91.029,239.860 90.745,239.200 90.600 C 238.540 90.455,238.000 90.171,238.000 89.968 C 238.000 89.766,237.778 89.600,237.506 89.600 C 237.234 89.600,236.019 89.123,234.806 88.541 C 233.593 87.958,231.610 87.038,230.400 86.496 C 227.685 85.279,227.301 85.098,225.800 84.317 C 225.140 83.974,223.880 83.357,223.000 82.946 C 222.120 82.536,221.340 82.065,221.267 81.900 C 221.193 81.735,220.698 81.600,220.167 81.600 C 219.635 81.600,219.200 81.420,219.200 81.200 C 219.200 80.980,218.862 80.800,218.449 80.800 C 218.036 80.800,217.474 80.530,217.200 80.200 C 216.926 79.870,216.289 79.600,215.784 79.600 C 215.280 79.600,214.806 79.418,214.732 79.196 C 214.658 78.974,214.149 78.706,213.600 78.600 C 213.051 78.494,212.542 78.226,212.468 78.004 C 212.394 77.782,212.126 77.600,211.872 77.600 C 211.442 77.600,208.419 76.249,205.900 74.930 C 205.295 74.614,204.795 74.500,204.788 74.677 C 204.781 74.855,204.592 74.685,204.368 74.300 C 204.144 73.915,203.624 73.600,203.213 73.600 C 202.803 73.600,202.407 73.436,202.333 73.237 C 202.260 73.037,201.840 72.812,201.400 72.737 C 200.960 72.661,200.362 72.375,200.071 72.100 C 199.781 71.825,199.211 71.600,198.805 71.600 C 198.399 71.600,198.007 71.465,197.933 71.300 C 197.712 70.803,195.190 69.600,194.368 69.600 C 193.945 69.600,193.600 69.455,193.600 69.277 C 193.600 69.099,192.880 68.649,192.000 68.277 C 191.120 67.905,189.680 67.295,188.800 66.923 C 187.920 66.551,187.200 66.101,187.200 65.923 C 187.200 65.745,186.765 65.600,186.233 65.600 C 185.702 65.600,185.207 65.465,185.133 65.300 C 184.940 64.865,182.435 63.600,181.768 63.600 C 181.455 63.600,181.200 63.428,181.200 63.218 C 181.200 63.008,180.570 62.718,179.800 62.574 C 179.030 62.429,178.400 62.151,178.400 61.955 C 178.400 61.760,177.950 61.600,177.400 61.600 C 176.850 61.600,176.400 61.423,176.400 61.208 C 176.400 60.992,175.950 60.702,175.400 60.564 C 174.850 60.426,174.400 60.153,174.400 59.957 C 174.400 59.760,173.965 59.600,173.433 59.600 C 172.902 59.600,172.407 59.465,172.333 59.300 C 172.260 59.135,171.570 58.708,170.800 58.350 C 170.030 57.993,168.438 57.228,167.263 56.650 C 166.088 56.073,164.828 55.594,164.463 55.587 C 164.098 55.580,163.451 55.310,163.024 54.987 C 162.596 54.664,161.664 54.400,160.951 54.400 C 160.068 54.400,159.582 54.176,159.428 53.700 C 159.126 52.763,157.006 51.600,155.601 51.600 C 154.977 51.600,154.407 51.441,154.333 51.247 C 154.164 50.799,150.730 50.466,148.500 50.682 " stroke="none" fill="#cddc20" fill-rule="evenodd"></path><path id="path9" d="M132.509 74.000 C 132.509 74.990,132.587 75.395,132.682 74.900 C 132.778 74.405,132.778 73.595,132.682 73.100 C 132.587 72.605,132.509 73.010,132.509 74.000 M132.520 109.600 C 132.520 110.810,132.595 111.305,132.687 110.700 C 132.778 110.095,132.778 109.105,132.687 108.500 C 132.595 107.895,132.520 108.390,132.520 109.600 M224.400 204.000 C 224.400 204.220,224.805 204.397,225.300 204.394 C 226.028 204.389,226.085 204.314,225.600 204.000 C 224.824 203.499,224.400 203.499,224.400 204.000 M241.900 216.265 C 242.175 216.376,242.400 216.722,242.400 217.033 C 242.400 217.345,242.698 217.600,243.062 217.600 C 243.657 217.600,243.651 217.519,243.000 216.800 C 242.602 216.360,242.079 216.014,241.838 216.032 C 241.585 216.050,241.611 216.148,241.900 216.265 M215.800 243.412 C 216.460 243.953,217.180 244.396,217.400 244.395 C 217.620 244.395,217.304 244.067,216.697 243.667 C 216.090 243.267,215.715 242.818,215.863 242.670 C 216.012 242.521,215.788 242.406,215.367 242.414 C 214.724 242.426,214.794 242.588,215.800 243.412 M283.081 246.587 C 283.477 247.131,283.966 247.581,284.170 247.587 C 284.373 247.594,284.117 247.150,283.600 246.600 C 282.401 245.323,282.157 245.318,283.081 246.587 M220.654 246.998 C 220.781 247.326,221.045 247.496,221.242 247.374 C 221.807 247.025,221.660 246.400,221.013 246.400 C 220.656 246.400,220.515 246.635,220.654 246.998 M238.400 260.000 C 238.400 260.220,238.670 260.400,239.000 260.400 C 239.330 260.400,239.600 260.220,239.600 260.000 C 239.600 259.780,239.330 259.600,239.000 259.600 C 238.670 259.600,238.400 259.780,238.400 260.000 M239.867 260.667 C 239.406 261.127,239.575 261.600,240.200 261.600 C 240.530 261.600,240.800 261.330,240.800 261.000 C 240.800 260.375,240.327 260.206,239.867 260.667 M242.626 262.758 C 242.504 262.955,242.674 263.219,243.002 263.346 C 243.365 263.485,243.600 263.344,243.600 262.987 C 243.600 262.340,242.975 262.193,242.626 262.758 M198.800 289.000 C 198.800 289.330,198.980 289.600,199.200 289.600 C 199.420 289.600,199.600 289.330,199.600 289.000 C 199.600 288.670,199.420 288.400,199.200 288.400 C 198.980 288.400,198.800 288.670,198.800 289.000 M266.400 298.000 C 266.400 298.220,266.670 298.400,267.000 298.400 C 267.330 298.400,267.600 298.220,267.600 298.000 C 267.600 297.780,267.330 297.600,267.000 297.600 C 266.670 297.600,266.400 297.780,266.400 298.000 M260.588 300.820 C 260.207 301.435,260.728 301.832,261.242 301.318 C 261.529 301.031,261.536 300.807,261.262 300.639 C 261.039 300.500,260.735 300.582,260.588 300.820 M228.720 316.080 C 229.093 316.453,229.307 316.453,229.680 316.080 C 230.053 315.707,229.947 315.600,229.200 315.600 C 228.453 315.600,228.347 315.707,228.720 316.080 M213.600 322.733 C 213.600 323.307,214.054 323.554,214.673 323.317 C 215.157 323.131,215.168 323.026,214.734 322.750 C 214.050 322.317,213.600 322.310,213.600 322.733 M194.252 332.209 C 194.061 332.706,194.164 332.741,194.809 332.395 C 195.736 331.899,195.824 331.600,195.043 331.600 C 194.736 331.600,194.380 331.874,194.252 332.209 M188.400 334.776 C 188.400 335.447,189.109 335.613,189.346 334.998 C 189.485 334.635,189.344 334.400,188.987 334.400 C 188.664 334.400,188.400 334.569,188.400 334.776 M175.455 341.000 C 175.315 341.365,175.455 341.600,175.813 341.600 C 176.136 341.600,176.400 341.330,176.400 341.000 C 176.400 340.670,176.239 340.400,176.043 340.400 C 175.846 340.400,175.582 340.670,175.455 341.000 " stroke="none" fill="#99ff99" fill-rule="evenodd"></path></g></svg>
