<?xml version="1.0" encoding="UTF-8" standalone="no"?>
<svg width="22px" height="26px" viewBox="0 0 22 26" version="1.1" xmlns="http://www.w3.org/2000/svg" xmlns:xlink="http://www.w3.org/1999/xlink">
    <!-- Generator: Sketch 47.1 (45422) - http://www.bohemiancoding.com/sketch -->
    <title>Group</title>
    <desc>Created with Sketch.</desc>
    <defs></defs>
    <g id="Exploration-v2" stroke="none" stroke-width="1" fill="none" fill-rule="evenodd">
        <g id="Main-Page-Copy-14" transform="translate(-37.000000, -380.000000)" fill="#FFFFFF">
            <g id="Group-3" transform="translate(37.000000, 380.000000)">
                <g id="Group">
                    <path d="M13.1483846,22.7275617 C11.7209231,22.7275617 10.56,21.5768218 10.56,20.1637808 C10.56,18.7253559 11.6616923,17.6 13.068,17.6 C13.7102308,17.6 14.1290769,17.8453784 14.4861538,18.1169868 C14.6731538,18.2515219 14.7120769,18.5231303 14.5724615,18.7084333 C14.4328462,18.8945824 14.1696923,18.936889 13.981,18.7930465 C13.6391538,18.540053 13.4005385,18.4469784 13.068,18.4469784 C12.1363846,18.4469784 11.4061538,19.2000362 11.4061538,20.1637808 C11.4061538,21.1122951 12.1871538,21.8814294 13.1483846,21.8814294 C13.5206923,21.8814294 13.9006154,21.7545096 14.1933846,21.5353613 C14.3803846,21.3999801 14.6452308,21.4329793 14.7848462,21.6199745 C14.9253077,21.8061236 14.8872308,22.076886 14.7002308,22.211421 C14.2585385,22.5422587 13.7076923,22.7275617 13.1483846,22.7275617" id="Fill-11612"></path>
                    <path d="M18.6284143,22.7275617 C18.0792605,22.7275617 17.5521066,22.5498739 17.1027989,22.211421 C16.9157989,22.076886 16.877722,21.8061236 17.0173374,21.6199745 C17.1569528,21.4329793 17.4226451,21.3915188 17.6096451,21.5353613 C17.9108759,21.7629709 18.2628759,21.8814294 18.6284143,21.8814294 C19.5744143,21.8814294 20.3444143,21.1122951 20.3444143,20.1637808 C20.3444143,19.2161127 19.5744143,18.4469784 18.6284143,18.4469784 C18.2027989,18.4469784 17.6502605,18.5984361 17.3964143,18.7930465 C17.2094143,18.9292738 16.9445682,18.8945824 16.8041066,18.7084333 C16.6644912,18.5231303 16.7025682,18.2515219 16.8895682,18.1169868 C17.3600297,17.7607651 18.120722,17.6 18.6284143,17.6 C20.0406451,17.6 21.1905682,18.751586 21.1905682,20.1637808 C21.1905682,21.5768218 20.0406451,22.7275617 18.6284143,22.7275617" id="Fill-11613"></path>
                    <path d="M17.8538462,21.0852862 L13.6230769,21.0852862 C13.3895385,21.0852862 13.2,20.8991371 13.2,20.6630661 C13.2,20.425303 13.3895385,20.24 13.6230769,20.24 L17.8538462,20.24 C18.0873846,20.24 18.2769231,20.425303 18.2769231,20.6630661 C18.2769231,20.8991371 18.0873846,21.0852862 17.8538462,21.0852862" id="Fill-11614"></path>
                    <path d="M11,25.3839687 L0.423076923,25.3839687 C0.189538462,25.3839687 0,25.1969735 0,24.9600565 L0,6.32822341 C0,6.21907234 0.0414615385,6.11753647 0.115923077,6.03207711 L5.71153846,0.134535034 C5.79192308,0.0507679375 5.90276923,0 6.01869231,0 L19.0384615,0 C19.272,0 19.4615385,0.185302972 19.4615385,0.423066146 L19.4615385,16.0756674 C19.4615385,16.3125844 19.272,16.4995797 19.0384615,16.4995797 C18.8049231,16.4995797 18.6153846,16.3125844 18.6153846,16.0756674 L18.6153846,0.845286159 L6.20061538,0.845286159 L0.846153846,6.49744987 L0.846153846,24.5378365 L11,24.5378365 C11.2335385,24.5378365 11.4230769,24.7231394 11.4230769,24.9600565 C11.4230769,25.1969735 11.2335385,25.3839687 11,25.3839687" id="Fill-11615"></path>
                    <path d="M5.92307692,6.34599219 L0.423076923,6.34599219 C0.189538462,6.34599219 0,6.15899695 0,5.92292604 C0,5.686009 0.189538462,5.49901376 0.423076923,5.49901376 L5.5,5.49901376 L5.5,0.422220013 C5.5,0.185302972 5.68953846,0 5.92307692,0 C6.15661538,0 6.34615385,0.185302972 6.34615385,0.422220013 L6.34615385,5.92292604 C6.34615385,6.15899695 6.15661538,6.34599219 5.92307692,6.34599219" id="Fill-11616"></path>
                </g>
            </g>
        </g>
    </g>
</svg>
