<?xml version="1.0" encoding="UTF-8"?>
<svg width="32px" height="14px" viewBox="0 0 32 14" version="1.1" xmlns="http://www.w3.org/2000/svg" xmlns:xlink="http://www.w3.org/1999/xlink">
    <!-- Generator: Sketch 48.2 (47327) - http://www.bohemiancoding.com/sketch -->
    <title>Group 20 Copy</title>
    <desc>Created with Sketch.</desc>
    <defs></defs>
    <g id="Generate-Request-Invoice" stroke="none" stroke-width="1" fill="none" fill-rule="evenodd" transform="translate(-496.000000, -77.000000)">
        <g id="Group-9" transform="translate(423.000000, 78.000000)" stroke="#FFFFFF" stroke-width="0.75">
            <g id="Group-20-Copy" transform="translate(74.000000, 0.000000)">
                <path d="M6,1.07778574 C10.0254503,0.706033518 13.3396626,1.66678494 15.9426369,3.96004002 C17.6659089,3.96004002 19.2069713,3.96004002 20.5658241,3.96004002 C22.6041032,3.96004002 22.3477222,7 20.5658241,7 C19.377892,7 16.9999136,7 13.4318889,7" id="Path-5"></path>
                <path d="M2.10931173,9.9245745 L6,9.9245745 L6,0 L0,0 C0.208329331,5.0351144 0.965722589,8.36844774 2.27217977,10" id="Path-2"></path>
                <path d="M6,8.84278961 C11.4341037,10.9475965 15.0785314,12 16.933283,12 C19.7154105,12 27.7492176,7.1560437 29.2844267,6.15768359 C30.8196358,5.15932348 29.5244956,4 28.7375913,4 C28.2129884,4 25.9404234,4.75236148 21.9198962,6.25708445" id="Path-4"></path>
            </g>
        </g>
    </g>
</svg>