<?xml version="1.0" encoding="UTF-8"?>
<svg width="16px" height="16px" viewBox="0 0 16 16" version="1.1" xmlns="http://www.w3.org/2000/svg" xmlns:xlink="http://www.w3.org/1999/xlink">
    <!-- Generator: Sketch 48.2 (47327) - http://www.bohemiancoding.com/sketch -->
    <title>Group 23</title>
    <desc>Created with Sketch.</desc>
    <defs></defs>
    <g id="v1" stroke="none" stroke-width="1" fill="none" fill-rule="evenodd" transform="translate(-276.000000, -96.000000)">
        <g id="Group-23" transform="translate(276.000000, 96.000000)" fill="#FFFFFF" fill-rule="nonzero">
            <g id="Group-22">
                <g id="Group">
                    <path d="M0.4,4.80896 C0.17904,4.80896 0,4.62992 0,4.40896 L0,0.4 C0,0.17904 0.17904,0 0.4,0 L4.40896,0 C4.62992,0 4.80896,0.17904 4.80896,0.4 C4.80896,0.62096 4.62992,0.8 4.40896,0.8 L0.8,0.8 L0.8,4.40896 C0.8,4.62992 0.62096,4.80896 0.4,4.80896 Z" id="Shape"></path>
                    <path d="M15.6,16 L11.59088,16 C11.36992,16 11.19088,15.82096 11.19088,15.6 C11.19088,15.37904 11.36992,15.2 11.59088,15.2 L15.2,15.2 L15.2,11.59088 C15.2,11.36992 15.37904,11.19088 15.6,11.19088 C15.82096,11.19088 16,11.36992 16,11.59088 L16,15.6 C16,15.82096 15.82096,16 15.6,16 Z" id="Shape"></path>
                </g>
                <g id="Group">
                    <path d="M15.6,4.80896 C15.37904,4.80896 15.2,4.62992 15.2,4.40896 L15.2,0.8 L11.59088,0.8 C11.36992,0.8 11.19088,0.62096 11.19088,0.4 C11.19088,0.17904 11.36992,0 11.59088,0 L15.6,0 C15.82096,0 16,0.17904 16,0.4 L16,4.40896 C16,4.62992 15.82096,4.80896 15.6,4.80896 Z" id="Shape"></path>
                    <path d="M4.40896,16 L0.4,16 C0.17904,16 0,15.82096 0,15.6 L0,11.59088 C0,11.36992 0.17904,11.19088 0.4,11.19088 C0.62096,11.19088 0.8,11.36992 0.8,11.59088 L0.8,15.2 L4.40896,15.2 C4.62992,15.2 4.80896,15.37904 4.80896,15.6 C4.80896,15.82096 4.62992,16 4.40896,16 Z" id="Shape"></path>
                </g>
                <path d="M11.5875,11.9803571 L7.6,11.9803571 C7.38298571,11.9803571 7.20714286,11.8045143 7.20714286,11.5875 L7.20714286,7.99285714 L3.6125,7.99285714 C3.39548571,7.99285714 3.21964286,7.81701429 3.21964286,7.6 C3.21964286,7.38298571 3.39548571,7.20714286 3.6125,7.20714286 L7.6,7.20714286 C7.81701429,7.20714286 7.99285714,7.38298571 7.99285714,7.6 L7.99285714,11.1946429 L11.5875,11.1946429 C11.8045143,11.1946429 11.9803571,11.3704857 11.9803571,11.5875 C11.9803571,11.8045143 11.8045143,11.9803571 11.5875,11.9803571 Z" id="Shape"></path>
                <path d="M11.5875,9.87857143 C11.3704857,9.87857143 11.1946429,9.70272857 11.1946429,9.48571429 L11.1946429,7.99285714 L9.87857143,7.99285714 L9.87857143,9.48571429 C9.87857143,9.70272857 9.70272857,9.87857143 9.48571429,9.87857143 C9.2687,9.87857143 9.09285714,9.70272857 9.09285714,9.48571429 L9.09285714,7.6 C9.09285714,7.38298571 9.2687,7.20714286 9.48571429,7.20714286 L11.5875,7.20714286 C11.8045143,7.20714286 11.9803571,7.38298571 11.9803571,7.6 L11.9803571,9.48571429 C11.9803571,9.70272857 11.8045143,9.87857143 11.5875,9.87857143 Z" id="Shape"></path>
                <path d="M5.71428571,6.10714286 L3.6125,6.10714286 C3.39548571,6.10714286 3.21964286,5.9313 3.21964286,5.71428571 L3.21964286,3.6125 C3.21964286,3.39548571 3.39548571,3.21964286 3.6125,3.21964286 L5.71428571,3.21964286 C5.9313,3.21964286 6.10714286,3.39548571 6.10714286,3.6125 L6.10714286,5.71428571 C6.10714286,5.9313 5.9313,6.10714286 5.71428571,6.10714286 Z M4.00535714,5.32142857 L5.32142857,5.32142857 L5.32142857,4.00535714 L4.00535714,4.00535714 L4.00535714,5.32142857 Z" id="Shape"></path>
                <path d="M11.5875,6.10714286 L9.48571429,6.10714286 C9.2687,6.10714286 9.09285714,5.9313 9.09285714,5.71428571 L9.09285714,3.6125 C9.09285714,3.39548571 9.2687,3.21964286 9.48571429,3.21964286 L11.5875,3.21964286 C11.8045143,3.21964286 11.9803571,3.39548571 11.9803571,3.6125 L11.9803571,5.71428571 C11.9803571,5.9313 11.8045143,6.10714286 11.5875,6.10714286 Z M9.87857143,5.32142857 L11.1946429,5.32142857 L11.1946429,4.00535714 L9.87857143,4.00535714 L9.87857143,5.32142857 Z" id="Shape"></path>
                <path d="M5.71428571,11.9803571 L3.6125,11.9803571 C3.39548571,11.9803571 3.21964286,11.8045143 3.21964286,11.5875 L3.21964286,9.48571429 C3.21964286,9.2687 3.39548571,9.09285714 3.6125,9.09285714 L5.71428571,9.09285714 C5.9313,9.09285714 6.10714286,9.2687 6.10714286,9.48571429 L6.10714286,11.5875 C6.10714286,11.8045143 5.9313,11.9803571 5.71428571,11.9803571 Z M4.00535714,11.1946429 L5.32142857,11.1946429 L5.32142857,9.87857143 L4.00535714,9.87857143 L4.00535714,11.1946429 Z" id="Shape"></path>
                <path d="M7.6,6.10714286 C7.38298571,6.10714286 7.20714286,5.9313 7.20714286,5.71428571 L7.20714286,3.6125 C7.20714286,3.39548571 7.38298571,3.21964286 7.6,3.21964286 C7.81701429,3.21964286 7.99285714,3.39548571 7.99285714,3.6125 L7.99285714,5.71428571 C7.99285714,5.9313 7.81701429,6.10714286 7.6,6.10714286 Z" id="Shape"></path>
            </g>
        </g>
    </g>
</svg>
