<?xml version="1.0" encoding="UTF-8" standalone="no"?>
<svg width="25px" height="42px" viewBox="0 0 25 42" version="1.1" xmlns="http://www.w3.org/2000/svg" xmlns:xlink="http://www.w3.org/1999/xlink">
    <!-- Generator: Sketch 47.1 (45422) - http://www.bohemiancoding.com/sketch -->
    <title>noun_209249_cc</title>
    <desc>Created with Sketch.</desc>
    <defs></defs>
    <g id="Exploration-v2" stroke="none" stroke-width="1" fill="none" fill-rule="evenodd">
        <g id="Main-Page-Copy-14" transform="translate(-248.000000, -108.000000)" fill-rule="nonzero" fill="#F5A623">
            <g id="Group-35" transform="translate(248.000000, 107.000000)">
                <g id="noun_209249_cc" transform="translate(0.000000, 1.000000)">
                    <g id="Group">
                        <path d="M16.6666667,38 L0.833333333,38 C0.373333333,38 0,37.6192 0,37.15 L0,4.85 C0,4.3808 0.373333333,4 0.833333333,4 L13.3333333,4 C17.9283333,4 21.6666667,7.8131 21.6666667,12.5 C21.6666667,15.3594 20.2766667,17.8924 18.1483333,19.4343 C22.0383333,20.1483 25,23.6282 25,27.8 L25,29.5 C25,34.1869 21.2616667,38 16.6666667,38 Z M1.66666667,36.3 L16.6666667,36.3 C20.3433333,36.3 23.3333333,33.2502 23.3333333,29.5 L23.3333333,27.8 C23.3333333,24.0498 20.3433333,21 16.6666667,21 L1.66666667,21 L1.66666667,36.3 Z M1.66666667,19.3 L13.3333333,19.3 C17.01,19.3 20,16.2502 20,12.5 C20,8.7498 17.01,5.7 13.3333333,5.7 L1.66666667,5.7 L1.66666667,19.3 Z" id="Shape"></path>
                        <path d="M6,5 C5.448,5 5,4.62666667 5,4.16666667 L5,0.833333333 C5,0.373333333 5.448,0 6,0 C6.552,0 7,0.373333333 7,0.833333333 L7,4.16666667 C7,4.62666667 6.554,5 6,5 Z" id="Shape"></path>
                        <path d="M12,5 C11.448,5 11,4.62666667 11,4.16666667 L11,0.833333333 C11,0.373333333 11.448,0 12,0 C12.552,0 13,0.373333333 13,0.833333333 L13,4.16666667 C13,4.62666667 12.554,5 12,5 Z" id="Shape"></path>
                        <path d="M6,42 C5.448,42 5,41.6266667 5,41.1666667 L5,37.8333333 C5,37.3733333 5.448,37 6,37 C6.552,37 7,37.3733333 7,37.8333333 L7,41.1666667 C7,41.6266667 6.554,42 6,42 Z" id="Shape"></path>
                        <path d="M12,42 C11.448,42 11,41.6266667 11,41.1666667 L11,37.8333333 C11,37.3733333 11.448,37 12,37 C12.552,37 13,37.3733333 13,37.8333333 L13,41.1666667 C13,41.6266667 12.554,42 12,42 Z" id="Shape"></path>
                    </g>
                </g>
            </g>
        </g>
    </g>
</svg>