<?xml version="1.0" encoding="UTF-8"?>
<svg width="18px" height="16px" viewBox="0 0 18 16" version="1.1" xmlns="http://www.w3.org/2000/svg" xmlns:xlink="http://www.w3.org/1999/xlink">
    <!-- Generator: Sketch 48.2 (47327) - http://www.bohemiancoding.com/sketch -->
    <title>Group 5</title>
    <desc>Created with Sketch.</desc>
    <defs></defs>
    <g id="Main-Page-Copy-15" stroke="none" stroke-width="1" fill="none" fill-rule="evenodd" transform="translate(-39.000000, -175.000000)">
        <g id="Group-5" transform="translate(39.000000, 175.000000)" fill="#FFFFFF">
            <path d="M16.488,15.8758927 L1.512,15.8758927 C0.67824,15.8758927 0,15.2205883 0,14.4150231 L0,3.3868492 C0,3.2414579 0.09288,3.11693616 0.22392,3.06476224 C0.17496,2.99311007 0.13176,2.91380572 0.0972,2.82615355 C0.02592,2.64667529 0.11808,2.44493616 0.30384,2.37606659 C0.4896,2.30858833 0.69768,2.39624051 0.76896,2.57571877 C0.95328,3.03902311 1.7352,3.04458833 2.07576,3.03902311 L16.488,3.03902311 C17.32176,3.03902311 18,3.69432746 18,4.49989268 L18,14.4150231 C18,15.2205883 17.32176,15.8758927 16.488,15.8758927 L16.488,15.8758927 Z M0.72,3.49050138 L0.72,14.4150231 C0.72,14.8365883 1.07568,15.1802405 1.512,15.1802405 L16.488,15.1802405 C16.92504,15.1802405 17.28,14.8365883 17.28,14.4150231 L17.28,4.49989268 C17.28,4.07832746 16.92504,3.73467529 16.488,3.73467529 L2.08872,3.73467529 C1.79928,3.74858833 1.20168,3.73537094 0.72,3.49050138 L0.72,3.49050138 Z" id="Fill-305"></path>
            <path d="M16.06896,3.69015355 C15.87024,3.69015355 15.70896,3.53502311 15.70896,3.34232746 L15.70896,1.27206659 C15.70896,1.0814579 15.63768,0.918675288 15.50736,0.815718766 C15.37704,0.712066592 15.1992,0.674501375 15.00696,0.71137094 L1.54728,1.97119703 C0.77112,2.13815355 0.72,2.75450138 0.71928,2.76076224 L0.72,3.28250138 C0.72,3.47450138 0.55872,3.63032746 0.36,3.63032746 C0.16128,3.63032746 0,3.47450138 0,3.28250138 L0,2.73780572 C0.02808,2.32041442 0.36216,1.51276224 1.43496,1.28528398 L14.90328,0.0240665925 C15.2712,-0.0482812336 15.6708,0.0442405055 15.96528,0.277979636 C16.25976,0.513110071 16.42896,0.875544853 16.42896,1.27206659 L16.42896,3.34232746 C16.42896,3.53502311 16.2684,3.69015355 16.06896,3.69015355" id="Fill-306"></path>
            <path d="M14.33952,10.4324144 C13.82328,10.4324144 13.40352,10.0261535 13.40352,9.52737094 C13.40352,9.02928398 13.82328,8.62371877 14.33952,8.62371877 C14.85576,8.62371877 15.27552,9.02928398 15.27552,9.52737094 C15.27552,10.0261535 14.85576,10.4324144 14.33952,10.4324144 L14.33952,10.4324144 Z M14.33952,9.31937094 C14.22,9.31937094 14.12352,9.41258833 14.12352,9.52737094 C14.12352,9.6428492 14.22,9.73676224 14.33952,9.73676224 C14.45832,9.73676224 14.55552,9.6428492 14.55552,9.52737094 C14.55552,9.41258833 14.45832,9.31937094 14.33952,9.31937094 L14.33952,9.31937094 Z" id="Fill-307"></path>
            <path d="M17.64,12.243197 L12.48984,12.243197 C11.4912,12.243197 10.67904,11.4585014 10.67904,10.4936318 L10.67904,8.56250138 C10.67904,7.59763181 11.4912,6.81224051 12.48984,6.81224051 L17.64,6.81224051 C17.83872,6.81224051 18,6.96806659 18,7.16006659 L18,11.8953709 C18,12.0880666 17.83872,12.243197 17.64,12.243197 L17.64,12.243197 Z M12.48984,7.50789268 C11.88864,7.50789268 11.39904,7.98093616 11.39904,8.56250138 L11.39904,10.4936318 C11.39904,11.075197 11.88864,11.5475449 12.48984,11.5475449 L17.28,11.5475449 L17.28,7.50789268 L12.48984,7.50789268 L12.48984,7.50789268 Z" id="Fill-308"></path>
        </g>
    </g>
</svg>