<svg xmlns="http://www.w3.org/2000/svg" xmlns:xlink="http://www.w3.org/1999/xlink" width="15" height="14" viewBox="0 0 15 14">
    <defs>
        <path id="a" d="M9.264 1.682l5.105 9.36A2 2 0 0 1 12.613 14H2.403a2 2 0 0 1-1.757-2.958l5.106-9.36a2 2 0 0 1 3.512 0zm-1.689 8.434a.706.706 0 1 0 0 1.412.706.706 0 0 0 0-1.412zm0-5.297a.706.706 0 0 0-.706.706V8.35a.706.706 0 1 0 1.412 0V5.525a.706.706 0 0 0-.706-.706z"/>
    </defs>
    <use fill="currentColor" fill-rule="evenodd" xlink:href="#a"/>
</svg>
