<?xml version="1.0" encoding="UTF-8"?>
<svg width="60px" height="21px" viewBox="0 0 60 21" version="1.1" xmlns="http://www.w3.org/2000/svg" xmlns:xlink="http://www.w3.org/1999/xlink">
    <!-- Generator: Sketch 48.2 (47327) - http://www.bohemiancoding.com/sketch -->
    <title>Group 5</title>
    <desc>Created with Sketch.</desc>
    <defs></defs>
    <g id="Pay-Hover-Copy" stroke="none" stroke-width="1" fill="none" fill-rule="evenodd" transform="translate(-56.000000, -23.000000)">
        <g id="Group-5" transform="translate(56.000000, 20.000000)">
            <path d="M29.5332033,18.0136719 L36.3984377,18.0136719 L36.3984377,19 L28.0878908,19 L28.0878908,18.140625 L34.4941408,9.43945312 L28.2832033,9.43945312 L28.2832033,8.43359375 L35.9687502,8.43359375 L35.9687502,9.30273438 L29.5332033,18.0136719 Z M46.1582032,19 C46.0410151,18.6679671 45.9661461,18.1764355 45.9335938,17.5253906 C45.5234355,18.0592475 45.0009798,18.4710272 44.366211,18.7607422 C43.7314422,19.0504572 43.0592484,19.1953125 42.3496094,19.1953125 C41.3339794,19.1953125 40.5120475,18.9121122 39.8837891,18.3457031 C39.2555308,17.779294 38.9414063,17.0631554 38.9414063,16.1972656 C38.9414063,15.1686146 39.3694619,14.3548207 40.225586,13.7558594 C41.0817101,13.156898 42.274732,12.8574219 43.8046876,12.8574219 L45.9238282,12.8574219 L45.9238282,11.65625 C45.9238282,10.9010379 45.6910831,10.3069683 45.225586,9.87402344 C44.7600889,9.44107856 44.0813847,9.22460938 43.1894532,9.22460938 C42.375647,9.22460938 41.7018256,9.43294063 41.1679688,9.84960938 C40.634112,10.2662781 40.3671876,10.7675752 40.3671876,11.3535156 L39.1953126,11.34375 C39.1953126,10.5039021 39.5859337,9.77637026 40.3671876,9.16113281 C41.1484415,8.54589536 42.1087183,8.23828125 43.2480469,8.23828125 C44.4264382,8.23828125 45.3557909,8.53287466 46.0361329,9.12207031 C46.7164748,9.71126597 47.0664062,10.5331979 47.0859376,11.5878906 L47.0859376,16.5878906 C47.0859376,17.6100312 47.1933584,18.3749975 47.4082032,18.8828125 L47.4082032,19 L46.1582032,19 Z M42.4863282,18.1601562 C43.2675821,18.1601562 43.9658173,17.9713561 44.5810547,17.59375 C45.1962922,17.2161439 45.6438789,16.7115917 45.9238282,16.0800781 L45.9238282,13.7558594 L43.8339844,13.7558594 C42.668614,13.7688803 41.7571648,13.9820943 41.0996094,14.3955078 C40.4420541,14.8089213 40.1132813,15.3769495 40.1132813,16.0996094 C40.1132813,16.6920603 40.3330057,17.1835918 40.772461,17.5742188 C41.2119163,17.9648457 41.7831997,18.1601562 42.4863282,18.1601562 Z M59.6972656,13.8242188 C59.6972656,15.4713624 59.3326859,16.7783155 58.6035156,17.7451172 C57.8743453,18.7119189 56.8977925,19.1953125 55.6738281,19.1953125 C54.2285083,19.1953125 53.1217486,18.6875051 52.3535156,17.671875 L52.3535156,23.0625 L51.1914062,23.0625 L51.1914062,8.43359375 L52.2753906,8.43359375 L52.3339843,9.92773438 C53.0957069,8.80142666 54.1992115,8.23828125 55.6445312,8.23828125 C56.9075583,8.23828125 57.8987594,8.71679209 58.618164,9.67382812 C59.3375686,10.6308642 59.6972656,11.9589759 59.6972656,13.6582031 L59.6972656,13.8242188 Z M58.5253906,13.6191406 C58.5253906,12.2714776 58.2487006,11.2070352 57.6953124,10.4257812 C57.1419243,9.64452734 56.3704476,9.25390625 55.3808593,9.25390625 C54.6647099,9.25390625 54.0494817,9.42643057 53.5351562,9.77148438 C53.0208307,10.1165382 52.6269544,10.6178353 52.3535156,11.2753906 L52.3535156,16.34375 C52.6334649,16.9492218 53.0338515,17.4114567 53.5546874,17.7304688 C54.0755234,18.0494808 54.6907516,18.2089844 55.4003906,18.2089844 C56.3834684,18.2089844 57.1500623,17.8167357 57.7001953,17.0322266 C58.2503282,16.2477174 58.5253906,15.1100335 58.5253906,13.6191406 Z" id="zap" fill="#313340"></path>
            <g id="cloud-lightning" transform="translate(0.000000, 4.000000)" stroke-linecap="round" stroke-linejoin="round" stroke-width="0.77">
                <path d="M15.0416667,12.2863636 C17.0346026,11.8913673 18.396646,10.0866143 18.1922712,8.11170759 C17.9878963,6.13680088 16.283606,4.63436876 14.25,4.63636364 L13.2525,4.63636364 C12.5303096,1.90723362 10.0081977,0.000523827862 7.12041491,0.000523855726 C4.23263213,0.000523883591 1.71052026,1.90723373 0.988329904,4.63636375 C0.26613955,7.36549378 1.52676812,10.2258816 4.05333333,11.5909091" id="Shape" stroke="#313340"></path>
                <polyline id="Shape" stroke="#F5B300" points="10.2916667 7.72727273 7.125 12.3636364 11.875 12.3636364 8.70833333 17"></polyline>
            </g>
        </g>
    </g>
</svg>